M48
; DRILL file {KiCad 9.0.3} date 2025-08-23T20:43:36+0500
; FORMAT={-:-/ absolute / metric / decimal}
; #@! TF.CreationDate,2025-08-23T20:43:36+05:00
; #@! TF.GenerationSoftware,Kicad,Pcbnew,9.0.3
; #@! TF.FileFunction,Plated,1,4,PTH
FMAT,2
METRIC
; #@! TA.AperFunction,Plated,PTH,ViaDrill
T1C0.200
; #@! TA.AperFunction,Plated,PTH,ComponentDrill
T2C0.200
; #@! TA.AperFunction,Plated,PTH,ViaDrill
T3C0.300
; #@! TA.AperFunction,Plated,PTH,ComponentDrill
T4C0.500
%
G90
G05
T1
X82.47Y-101.86
X83.79Y-102.71
X83.9Y-116.58
X85.27Y-111.38
X86.5Y-104.19
X87.38Y-101.36
X88.24Y-118.52
X89.66Y-105.08
X91.4Y-103.3
X91.41Y-98.952
X91.545Y-99.525
X91.64Y-118.38
X91.865Y-100.025
X94.8Y-120.17
X94.81Y-106.14
X98.086Y-100.374
X98.1Y-101.53
X98.13Y-100.91
X98.14Y-98.99
X98.309Y-98.452
X101.99Y-114.99
X102.33Y-123.76
X102.544Y-101.944
X103.22Y-114.44
X103.961Y-115.5
X105.28Y-100.08
X105.81Y-105.08
X106.31Y-105.122
X106.83Y-111.51
X107.31Y-111.281
X107.332Y-114.38
X108.4Y-114.23
X108.512Y-95.262
X110.04Y-123.54
X111.79Y-109.48
X114.08Y-123.43
X117.11Y-125.04
X117.72Y-119.39
T2
X75.74Y-107.872
X75.74Y-109.397
X76.502Y-107.11
X76.502Y-108.635
X76.502Y-110.16
X77.265Y-107.872
X77.265Y-109.397
X78.028Y-107.11
X78.028Y-108.635
X78.028Y-110.16
X78.79Y-107.872
X78.79Y-109.397
T3
X69.86Y-101.98
X70.04Y-116.9
X71.2Y-101.81
X87.22Y-118.14
X89.99Y-118.61
X90.97Y-105.36
X92.18Y-113.61
X92.705Y-109.015
X93.3Y-118.47
X93.83Y-108.3
X93.99Y-112.27
X94.85Y-118.39
X95.23Y-124.63
X95.34Y-109.91
X96.072Y-111.35
X96.43Y-115.14
X96.47Y-118.63
X96.88Y-105.47
X97.72Y-112.16
X98.353Y-115.527
X98.99Y-113.97
X99.04Y-99.43
X99.06Y-109.15
X99.06Y-112.09
X99.93Y-114.91
X100.02Y-106.12
X100.275Y-113.415
X100.63Y-120.13
X101.087Y-109.763
X101.3Y-111.46
X101.37Y-113.84
X102.667Y-109.503
X102.85Y-120.368
X103.91Y-104.65
X105.06Y-102.91
X106.41Y-118.87
X107.35Y-108.25
X107.48Y-100.12
X108.67Y-117.42
X109.55Y-120.59
X110.8Y-101.13
X111.65Y-113.44
X112.55Y-103.05
X112.75Y-101.12
X117.63Y-113.3
X117.76Y-98.83
T4
X96.415Y-94.05
X96.415Y-124.59
X97.415Y-94.05
X97.415Y-124.59
X98.415Y-94.05
X98.415Y-124.59
X99.415Y-94.05
X99.415Y-124.59
X100.415Y-94.05
X100.415Y-124.59
X101.415Y-94.05
X101.415Y-124.59
X102.415Y-94.05
X102.415Y-124.59
X103.415Y-94.05
X103.415Y-124.59
X104.415Y-94.05
X104.415Y-124.59
X105.415Y-94.05
X105.415Y-124.59
X106.415Y-94.05
X106.415Y-124.59
X107.415Y-94.05
X107.415Y-124.59
X108.415Y-94.05
X108.415Y-124.59
X109.415Y-94.05
X109.415Y-124.59
X110.415Y-94.05
X110.415Y-124.59
X111.415Y-94.05
X111.415Y-124.59
X112.415Y-94.05
X112.415Y-124.59
X113.415Y-94.05
X113.415Y-124.59
X114.415Y-94.05
X114.415Y-124.59
M30
