%TF.GenerationSoftware,KiCad,Pcbnew,9.0.3*%
%TF.CreationDate,2025-08-23T20:39:02+05:00*%
%TF.ProjectId,esp-32-new,6573702d-3332-42d6-9e65-772e6b696361,rev?*%
%TF.SameCoordinates,Original*%
%TF.FileFunction,Legend,Bot*%
%TF.FilePolarity,Positive*%
%FSLAX46Y46*%
G04 Gerber Fmt 4.6, Leading zero omitted, Abs format (unit mm)*
G04 Created by KiCad (PCBNEW 9.0.3) date 2025-08-23 20:39:02*
%MOMM*%
%LPD*%
G01*
G04 APERTURE LIST*
%ADD10C,0.150000*%
%ADD11C,0.120000*%
G04 APERTURE END LIST*
D10*
X101529580Y-104515833D02*
X101577200Y-104468214D01*
X101577200Y-104468214D02*
X101624819Y-104325357D01*
X101624819Y-104325357D02*
X101624819Y-104230119D01*
X101624819Y-104230119D02*
X101577200Y-104087262D01*
X101577200Y-104087262D02*
X101481961Y-103992024D01*
X101481961Y-103992024D02*
X101386723Y-103944405D01*
X101386723Y-103944405D02*
X101196247Y-103896786D01*
X101196247Y-103896786D02*
X101053390Y-103896786D01*
X101053390Y-103896786D02*
X100862914Y-103944405D01*
X100862914Y-103944405D02*
X100767676Y-103992024D01*
X100767676Y-103992024D02*
X100672438Y-104087262D01*
X100672438Y-104087262D02*
X100624819Y-104230119D01*
X100624819Y-104230119D02*
X100624819Y-104325357D01*
X100624819Y-104325357D02*
X100672438Y-104468214D01*
X100672438Y-104468214D02*
X100720057Y-104515833D01*
X100624819Y-105420595D02*
X100624819Y-104944405D01*
X100624819Y-104944405D02*
X101101009Y-104896786D01*
X101101009Y-104896786D02*
X101053390Y-104944405D01*
X101053390Y-104944405D02*
X101005771Y-105039643D01*
X101005771Y-105039643D02*
X101005771Y-105277738D01*
X101005771Y-105277738D02*
X101053390Y-105372976D01*
X101053390Y-105372976D02*
X101101009Y-105420595D01*
X101101009Y-105420595D02*
X101196247Y-105468214D01*
X101196247Y-105468214D02*
X101434342Y-105468214D01*
X101434342Y-105468214D02*
X101529580Y-105420595D01*
X101529580Y-105420595D02*
X101577200Y-105372976D01*
X101577200Y-105372976D02*
X101624819Y-105277738D01*
X101624819Y-105277738D02*
X101624819Y-105039643D01*
X101624819Y-105039643D02*
X101577200Y-104944405D01*
X101577200Y-104944405D02*
X101529580Y-104896786D01*
X105496666Y-98809580D02*
X105544285Y-98857200D01*
X105544285Y-98857200D02*
X105687142Y-98904819D01*
X105687142Y-98904819D02*
X105782380Y-98904819D01*
X105782380Y-98904819D02*
X105925237Y-98857200D01*
X105925237Y-98857200D02*
X106020475Y-98761961D01*
X106020475Y-98761961D02*
X106068094Y-98666723D01*
X106068094Y-98666723D02*
X106115713Y-98476247D01*
X106115713Y-98476247D02*
X106115713Y-98333390D01*
X106115713Y-98333390D02*
X106068094Y-98142914D01*
X106068094Y-98142914D02*
X106020475Y-98047676D01*
X106020475Y-98047676D02*
X105925237Y-97952438D01*
X105925237Y-97952438D02*
X105782380Y-97904819D01*
X105782380Y-97904819D02*
X105687142Y-97904819D01*
X105687142Y-97904819D02*
X105544285Y-97952438D01*
X105544285Y-97952438D02*
X105496666Y-98000057D01*
X104639523Y-98238152D02*
X104639523Y-98904819D01*
X104877618Y-97857200D02*
X105115713Y-98571485D01*
X105115713Y-98571485D02*
X104496666Y-98571485D01*
X94369819Y-125631666D02*
X95084104Y-125631666D01*
X95084104Y-125631666D02*
X95226961Y-125584047D01*
X95226961Y-125584047D02*
X95322200Y-125488809D01*
X95322200Y-125488809D02*
X95369819Y-125345952D01*
X95369819Y-125345952D02*
X95369819Y-125250714D01*
X94369819Y-126012619D02*
X94369819Y-126631666D01*
X94369819Y-126631666D02*
X94750771Y-126298333D01*
X94750771Y-126298333D02*
X94750771Y-126441190D01*
X94750771Y-126441190D02*
X94798390Y-126536428D01*
X94798390Y-126536428D02*
X94846009Y-126584047D01*
X94846009Y-126584047D02*
X94941247Y-126631666D01*
X94941247Y-126631666D02*
X95179342Y-126631666D01*
X95179342Y-126631666D02*
X95274580Y-126584047D01*
X95274580Y-126584047D02*
X95322200Y-126536428D01*
X95322200Y-126536428D02*
X95369819Y-126441190D01*
X95369819Y-126441190D02*
X95369819Y-126155476D01*
X95369819Y-126155476D02*
X95322200Y-126060238D01*
X95322200Y-126060238D02*
X95274580Y-126012619D01*
D11*
%TO.C,C5*%
X99650000Y-104798335D02*
X99650000Y-104566665D01*
X100370000Y-104798335D02*
X100370000Y-104566665D01*
%TO.C,R5*%
X112317500Y-108275276D02*
X112317500Y-108784724D01*
X113362500Y-108275276D02*
X113362500Y-108784724D01*
%TO.C,U2*%
X104700000Y-105690000D02*
X104700000Y-106415000D01*
X104700000Y-110185000D02*
X104700000Y-110670000D01*
X105425000Y-105690000D02*
X104700000Y-105690000D01*
X105425000Y-110910000D02*
X105000000Y-110910000D01*
X109195000Y-105690000D02*
X109920000Y-105690000D01*
X109195000Y-110910000D02*
X109920000Y-110910000D01*
X109920000Y-105690000D02*
X109920000Y-106415000D01*
X109920000Y-110910000D02*
X109920000Y-110185000D01*
X104940000Y-111240000D02*
X104460000Y-111240000D01*
X104700000Y-110910000D01*
X104940000Y-111240000D01*
G36*
X104940000Y-111240000D02*
G01*
X104460000Y-111240000D01*
X104700000Y-110910000D01*
X104940000Y-111240000D01*
G37*
%TO.C,U1*%
X62315000Y-100195000D02*
X62315000Y-118435000D01*
X62315000Y-100195000D02*
X68475000Y-100195000D01*
X62315000Y-118435000D02*
X68730000Y-118435000D01*
X87275000Y-100195000D02*
X88055000Y-100195000D01*
X87275000Y-118435000D02*
X88055000Y-118435000D01*
X88055000Y-100195000D02*
X88055000Y-101195000D01*
X88055000Y-118435000D02*
X88055000Y-117435000D01*
X69200000Y-100190000D02*
X68700000Y-100190000D01*
X69200000Y-99690000D01*
X69200000Y-100190000D01*
G36*
X69200000Y-100190000D02*
G01*
X68700000Y-100190000D01*
X69200000Y-99690000D01*
X69200000Y-100190000D01*
G37*
%TO.C,Q1*%
X96360000Y-103910000D02*
X95710000Y-103910000D01*
X96360000Y-103910000D02*
X97010000Y-103910000D01*
X96360000Y-107030000D02*
X95710000Y-107030000D01*
X96360000Y-107030000D02*
X97010000Y-107030000D01*
X97522500Y-103960000D02*
X97282500Y-103630000D01*
X97762500Y-103630000D01*
X97522500Y-103960000D01*
G36*
X97522500Y-103960000D02*
G01*
X97282500Y-103630000D01*
X97762500Y-103630000D01*
X97522500Y-103960000D01*
G37*
%TO.C,Q2*%
X96360000Y-110670000D02*
X95710000Y-110670000D01*
X96360000Y-110670000D02*
X97010000Y-110670000D01*
X96360000Y-113790000D02*
X95710000Y-113790000D01*
X96360000Y-113790000D02*
X97010000Y-113790000D01*
X97522500Y-110720000D02*
X97282500Y-110390000D01*
X97762500Y-110390000D01*
X97522500Y-110720000D01*
G36*
X97522500Y-110720000D02*
G01*
X97282500Y-110390000D01*
X97762500Y-110390000D01*
X97522500Y-110720000D01*
G37*
%TO.C,SW1*%
X116050000Y-118000000D02*
X116050000Y-118300000D01*
X116050000Y-120800000D02*
X116050000Y-120500000D01*
X119350000Y-118000000D02*
X116050000Y-118000000D01*
X119350000Y-118300000D02*
X119350000Y-118000000D01*
X119350000Y-120500000D02*
X119350000Y-120800000D01*
X119350000Y-120800000D02*
X116050000Y-120800000D01*
%TO.C,C4*%
X105591252Y-99395000D02*
X105068748Y-99395000D01*
X105591252Y-100865000D02*
X105068748Y-100865000D01*
%TO.C,C8*%
X117683335Y-114320000D02*
X117451665Y-114320000D01*
X117683335Y-115040000D02*
X117451665Y-115040000D01*
%TO.C,R6*%
X99677500Y-108624724D02*
X99677500Y-108115276D01*
X100722500Y-108624724D02*
X100722500Y-108115276D01*
%TO.C,R7*%
X96934724Y-108127500D02*
X96425276Y-108127500D01*
X96934724Y-109172500D02*
X96425276Y-109172500D01*
%TO.C,J3*%
X95680000Y-123855000D02*
X95680000Y-124590000D01*
X95805000Y-125325000D02*
X95805000Y-125950000D01*
X95805000Y-125950000D02*
X115025000Y-125950000D01*
X96415000Y-123855000D02*
X95680000Y-123855000D01*
X96915000Y-125325000D02*
X96915000Y-125950000D01*
X97155000Y-125950000D02*
X97155000Y-127950000D01*
X97155000Y-127950000D02*
X97675000Y-127950000D01*
X97675000Y-127950000D02*
X97675000Y-125950000D01*
X97915000Y-125128725D02*
X97915000Y-125950000D01*
X98155000Y-125950000D02*
X98155000Y-127950000D01*
X98155000Y-127950000D02*
X98675000Y-127950000D01*
X98675000Y-127950000D02*
X98675000Y-125950000D01*
X98915000Y-125128725D02*
X98915000Y-125950000D01*
X99155000Y-125950000D02*
X99155000Y-127950000D01*
X99155000Y-127950000D02*
X99675000Y-127950000D01*
X99675000Y-127950000D02*
X99675000Y-125950000D01*
X99915000Y-125128725D02*
X99915000Y-125950000D01*
X100155000Y-125950000D02*
X100155000Y-127950000D01*
X100155000Y-127950000D02*
X100675000Y-127950000D01*
X100675000Y-127950000D02*
X100675000Y-125950000D01*
X100915000Y-125128725D02*
X100915000Y-125950000D01*
X101155000Y-125950000D02*
X101155000Y-127950000D01*
X101155000Y-127950000D02*
X101675000Y-127950000D01*
X101675000Y-127950000D02*
X101675000Y-125950000D01*
X101915000Y-125128725D02*
X101915000Y-125950000D01*
X102155000Y-125950000D02*
X102155000Y-127950000D01*
X102155000Y-127950000D02*
X102675000Y-127950000D01*
X102675000Y-127950000D02*
X102675000Y-125950000D01*
X102915000Y-125128725D02*
X102915000Y-125950000D01*
X103155000Y-125950000D02*
X103155000Y-127950000D01*
X103155000Y-127950000D02*
X103675000Y-127950000D01*
X103675000Y-127950000D02*
X103675000Y-125950000D01*
X103915000Y-125128725D02*
X103915000Y-125950000D01*
X104155000Y-125950000D02*
X104155000Y-127950000D01*
X104155000Y-127950000D02*
X104675000Y-127950000D01*
X104675000Y-127950000D02*
X104675000Y-125950000D01*
X104915000Y-125128725D02*
X104915000Y-125950000D01*
X105155000Y-125950000D02*
X105155000Y-127950000D01*
X105155000Y-127950000D02*
X105675000Y-127950000D01*
X105675000Y-127950000D02*
X105675000Y-125950000D01*
X105915000Y-125128725D02*
X105915000Y-125950000D01*
X106155000Y-125950000D02*
X106155000Y-127950000D01*
X106155000Y-127950000D02*
X106675000Y-127950000D01*
X106675000Y-127950000D02*
X106675000Y-125950000D01*
X106915000Y-125128725D02*
X106915000Y-125950000D01*
X107155000Y-125950000D02*
X107155000Y-127950000D01*
X107155000Y-127950000D02*
X107675000Y-127950000D01*
X107675000Y-127950000D02*
X107675000Y-125950000D01*
X107915000Y-125128725D02*
X107915000Y-125950000D01*
X108155000Y-125950000D02*
X108155000Y-127950000D01*
X108155000Y-127950000D02*
X108675000Y-127950000D01*
X108675000Y-127950000D02*
X108675000Y-125950000D01*
X108915000Y-125128725D02*
X108915000Y-125950000D01*
X109155000Y-125950000D02*
X109155000Y-127950000D01*
X109155000Y-127950000D02*
X109675000Y-127950000D01*
X109675000Y-127950000D02*
X109675000Y-125950000D01*
X109915000Y-125128725D02*
X109915000Y-125950000D01*
X110155000Y-125950000D02*
X110155000Y-127950000D01*
X110155000Y-127950000D02*
X110675000Y-127950000D01*
X110675000Y-127950000D02*
X110675000Y-125950000D01*
X110915000Y-125128725D02*
X110915000Y-125950000D01*
X111155000Y-125950000D02*
X111155000Y-127950000D01*
X111155000Y-127950000D02*
X111675000Y-127950000D01*
X111675000Y-127950000D02*
X111675000Y-125950000D01*
X111915000Y-125128725D02*
X111915000Y-125950000D01*
X112155000Y-125950000D02*
X112155000Y-127950000D01*
X112155000Y-127950000D02*
X112675000Y-127950000D01*
X112675000Y-127950000D02*
X112675000Y-125950000D01*
X112915000Y-125128725D02*
X112915000Y-125950000D01*
X113155000Y-125950000D02*
X113155000Y-127950000D01*
X113155000Y-127950000D02*
X113675000Y-127950000D01*
X113675000Y-127950000D02*
X113675000Y-125950000D01*
X113915000Y-125128725D02*
X113915000Y-125950000D01*
X114155000Y-125950000D02*
X114155000Y-127950000D01*
X114155000Y-127950000D02*
X114675000Y-127950000D01*
X114675000Y-127950000D02*
X114675000Y-125950000D01*
X115025000Y-125950000D02*
X115025000Y-125000030D01*
X96155000Y-125950000D02*
X96675000Y-125950000D01*
X96675000Y-127950000D01*
X96155000Y-127950000D01*
X96155000Y-125950000D01*
G36*
X96155000Y-125950000D02*
G01*
X96675000Y-125950000D01*
X96675000Y-127950000D01*
X96155000Y-127950000D01*
X96155000Y-125950000D01*
G37*
%TO.C,C3*%
X91168335Y-104060000D02*
X90936665Y-104060000D01*
X91168335Y-104780000D02*
X90936665Y-104780000D01*
%TO.C,SW2*%
X116100000Y-97410000D02*
X116100000Y-97710000D01*
X116100000Y-100210000D02*
X116100000Y-99910000D01*
X119400000Y-97410000D02*
X116100000Y-97410000D01*
X119400000Y-97710000D02*
X119400000Y-97410000D01*
X119400000Y-99910000D02*
X119400000Y-100210000D01*
X119400000Y-100210000D02*
X116100000Y-100210000D01*
%TD*%
M02*
