%TF.GenerationSoftware,KiCad,Pcbnew,9.0.3*%
%TF.CreationDate,2025-08-23T20:39:03+05:00*%
%TF.ProjectId,esp-32-new,6573702d-3332-42d6-9e65-772e6b696361,rev?*%
%TF.SameCoordinates,Original*%
%TF.FileFunction,Soldermask,Bot*%
%TF.FilePolarity,Negative*%
%FSLAX46Y46*%
G04 Gerber Fmt 4.6, Leading zero omitted, Abs format (unit mm)*
G04 Created by KiCad (PCBNEW 9.0.3) date 2025-08-23 20:39:03*
%MOMM*%
%LPD*%
G01*
G04 APERTURE LIST*
G04 Aperture macros list*
%AMRoundRect*
0 Rectangle with rounded corners*
0 $1 Rounding radius*
0 $2 $3 $4 $5 $6 $7 $8 $9 X,Y pos of 4 corners*
0 Add a 4 corners polygon primitive as box body*
4,1,4,$2,$3,$4,$5,$6,$7,$8,$9,$2,$3,0*
0 Add four circle primitives for the rounded corners*
1,1,$1+$1,$2,$3*
1,1,$1+$1,$4,$5*
1,1,$1+$1,$6,$7*
1,1,$1+$1,$8,$9*
0 Add four rect primitives between the rounded corners*
20,1,$1+$1,$2,$3,$4,$5,0*
20,1,$1+$1,$4,$5,$6,$7,0*
20,1,$1+$1,$6,$7,$8,$9,0*
20,1,$1+$1,$8,$9,$2,$3,0*%
G04 Aperture macros list end*
%ADD10R,0.850000X0.850000*%
%ADD11C,0.850000*%
%ADD12RoundRect,0.155000X0.155000X-0.212500X0.155000X0.212500X-0.155000X0.212500X-0.155000X-0.212500X0*%
%ADD13RoundRect,0.237500X-0.237500X0.250000X-0.237500X-0.250000X0.237500X-0.250000X0.237500X0.250000X0*%
%ADD14RoundRect,0.062500X-0.337500X-0.062500X0.337500X-0.062500X0.337500X0.062500X-0.337500X0.062500X0*%
%ADD15RoundRect,0.062500X-0.062500X-0.337500X0.062500X-0.337500X0.062500X0.337500X-0.062500X0.337500X0*%
%ADD16R,3.350000X3.350000*%
%ADD17R,0.900000X1.500000*%
%ADD18R,1.500000X0.900000*%
%ADD19C,0.600000*%
%ADD20R,4.200000X4.200000*%
%ADD21RoundRect,0.150000X0.587500X0.150000X-0.587500X0.150000X-0.587500X-0.150000X0.587500X-0.150000X0*%
%ADD22R,0.900000X1.700000*%
%ADD23RoundRect,0.250000X0.337500X0.475000X-0.337500X0.475000X-0.337500X-0.475000X0.337500X-0.475000X0*%
%ADD24RoundRect,0.155000X0.212500X0.155000X-0.212500X0.155000X-0.212500X-0.155000X0.212500X-0.155000X0*%
%ADD25RoundRect,0.237500X0.237500X-0.250000X0.237500X0.250000X-0.237500X0.250000X-0.237500X-0.250000X0*%
%ADD26RoundRect,0.237500X0.250000X0.237500X-0.250000X0.237500X-0.250000X-0.237500X0.250000X-0.237500X0*%
G04 APERTURE END LIST*
D10*
%TO.C,J2*%
X96415000Y-94050000D03*
D11*
X97415000Y-94050000D03*
X98415000Y-94050000D03*
X99415000Y-94050000D03*
X100415000Y-94050000D03*
X101415000Y-94050000D03*
X102415000Y-94050000D03*
X103415000Y-94050000D03*
X104415000Y-94050000D03*
X105415000Y-94050000D03*
X106415000Y-94050000D03*
X107415000Y-94050000D03*
X108415000Y-94050000D03*
X109415000Y-94050000D03*
X110415000Y-94050000D03*
X111415000Y-94050000D03*
X112415000Y-94050000D03*
X113415000Y-94050000D03*
X114415000Y-94050000D03*
%TD*%
D12*
%TO.C,C5*%
X100010000Y-105250000D03*
X100010000Y-104115000D03*
%TD*%
D13*
%TO.C,R5*%
X112840000Y-107617500D03*
X112840000Y-109442500D03*
%TD*%
D14*
%TO.C,U2*%
X104860000Y-109800000D03*
X104860000Y-109300000D03*
X104860000Y-108800000D03*
X104860000Y-108300000D03*
X104860000Y-107800000D03*
X104860000Y-107300000D03*
X104860000Y-106800000D03*
D15*
X105810000Y-105850000D03*
X106310000Y-105850000D03*
X106810000Y-105850000D03*
X107310000Y-105850000D03*
X107810000Y-105850000D03*
X108310000Y-105850000D03*
X108810000Y-105850000D03*
D14*
X109760000Y-106800000D03*
X109760000Y-107300000D03*
X109760000Y-107800000D03*
X109760000Y-108300000D03*
X109760000Y-108800000D03*
X109760000Y-109300000D03*
X109760000Y-109800000D03*
D15*
X108810000Y-110750000D03*
X108310000Y-110750000D03*
X107810000Y-110750000D03*
X107310000Y-110750000D03*
X106810000Y-110750000D03*
X106310000Y-110750000D03*
X105810000Y-110750000D03*
D16*
X107310000Y-108300000D03*
%TD*%
D17*
%TO.C,U1*%
X69925000Y-100565000D03*
X71195000Y-100565000D03*
X72465000Y-100565000D03*
X73735000Y-100565000D03*
X75005000Y-100565000D03*
X76275000Y-100565000D03*
X77545000Y-100565000D03*
X78815000Y-100565000D03*
X80085000Y-100565000D03*
X81355000Y-100565000D03*
X82625000Y-100565000D03*
X83895000Y-100565000D03*
X85165000Y-100565000D03*
X86435000Y-100565000D03*
D18*
X87685000Y-103605000D03*
X87685000Y-104875000D03*
X87685000Y-106145000D03*
X87685000Y-107415000D03*
X87685000Y-108685000D03*
X87685000Y-109955000D03*
X87685000Y-111225000D03*
X87685000Y-112495000D03*
X87685000Y-113765000D03*
X87685000Y-115035000D03*
D17*
X86435000Y-118065000D03*
X85165000Y-118065000D03*
X83895000Y-118065000D03*
X82625000Y-118065000D03*
X81355000Y-118065000D03*
X80085000Y-118065000D03*
X78815000Y-118065000D03*
X77545000Y-118065000D03*
X76275000Y-118065000D03*
X75005000Y-118065000D03*
X73735000Y-118065000D03*
X72465000Y-118065000D03*
X71195000Y-118065000D03*
X69925000Y-118065000D03*
D19*
X78027500Y-107110000D03*
X76502500Y-107110000D03*
X78790000Y-107872500D03*
X77265000Y-107872500D03*
X75740000Y-107872500D03*
X78027500Y-108635000D03*
D20*
X77265000Y-108635000D03*
D19*
X76502500Y-108635000D03*
X78790000Y-109397500D03*
X77265000Y-109397500D03*
X75740000Y-109397500D03*
X78027500Y-110160000D03*
X76502500Y-110160000D03*
%TD*%
D21*
%TO.C,Q1*%
X97297500Y-104520000D03*
X97297500Y-106420000D03*
X95422500Y-105470000D03*
%TD*%
%TO.C,Q2*%
X97297500Y-111280000D03*
X97297500Y-113180000D03*
X95422500Y-112230000D03*
%TD*%
D22*
%TO.C,SW1*%
X119400000Y-119400000D03*
X116000000Y-119400000D03*
%TD*%
D23*
%TO.C,C4*%
X106367500Y-100130000D03*
X104292500Y-100130000D03*
%TD*%
D24*
%TO.C,C8*%
X118135000Y-114680000D03*
X117000000Y-114680000D03*
%TD*%
D25*
%TO.C,R6*%
X100200000Y-109282500D03*
X100200000Y-107457500D03*
%TD*%
D26*
%TO.C,R7*%
X97592500Y-108650000D03*
X95767500Y-108650000D03*
%TD*%
D10*
%TO.C,J3*%
X96415000Y-124590000D03*
D11*
X97415000Y-124590000D03*
X98415000Y-124590000D03*
X99415000Y-124590000D03*
X100415000Y-124590000D03*
X101415000Y-124590000D03*
X102415000Y-124590000D03*
X103415000Y-124590000D03*
X104415000Y-124590000D03*
X105415000Y-124590000D03*
X106415000Y-124590000D03*
X107415000Y-124590000D03*
X108415000Y-124590000D03*
X109415000Y-124590000D03*
X110415000Y-124590000D03*
X111415000Y-124590000D03*
X112415000Y-124590000D03*
X113415000Y-124590000D03*
X114415000Y-124590000D03*
%TD*%
D24*
%TO.C,C3*%
X91620000Y-104420000D03*
X90485000Y-104420000D03*
%TD*%
D22*
%TO.C,SW2*%
X119450000Y-98810000D03*
X116050000Y-98810000D03*
%TD*%
M02*
