%TF.GenerationSoftware,KiCad,Pcbnew,9.0.3*%
%TF.CreationDate,2025-08-23T20:39:02+05:00*%
%TF.ProjectId,esp-32-new,6573702d-3332-42d6-9e65-772e6b696361,rev?*%
%TF.SameCoordinates,Original*%
%TF.FileFunction,Legend,Top*%
%TF.FilePolarity,Positive*%
%FSLAX46Y46*%
G04 Gerber Fmt 4.6, Leading zero omitted, Abs format (unit mm)*
G04 Created by KiCad (PCBNEW 9.0.3) date 2025-08-23 20:39:02*
%MOMM*%
%LPD*%
G01*
G04 APERTURE LIST*
%ADD10C,0.150000*%
%ADD11C,0.120000*%
G04 APERTURE END LIST*
D10*
X96479580Y-99706666D02*
X96527200Y-99754285D01*
X96527200Y-99754285D02*
X96574819Y-99897142D01*
X96574819Y-99897142D02*
X96574819Y-99992380D01*
X96574819Y-99992380D02*
X96527200Y-100135237D01*
X96527200Y-100135237D02*
X96431961Y-100230475D01*
X96431961Y-100230475D02*
X96336723Y-100278094D01*
X96336723Y-100278094D02*
X96146247Y-100325713D01*
X96146247Y-100325713D02*
X96003390Y-100325713D01*
X96003390Y-100325713D02*
X95812914Y-100278094D01*
X95812914Y-100278094D02*
X95717676Y-100230475D01*
X95717676Y-100230475D02*
X95622438Y-100135237D01*
X95622438Y-100135237D02*
X95574819Y-99992380D01*
X95574819Y-99992380D02*
X95574819Y-99897142D01*
X95574819Y-99897142D02*
X95622438Y-99754285D01*
X95622438Y-99754285D02*
X95670057Y-99706666D01*
X96574819Y-99230475D02*
X96574819Y-99039999D01*
X96574819Y-99039999D02*
X96527200Y-98944761D01*
X96527200Y-98944761D02*
X96479580Y-98897142D01*
X96479580Y-98897142D02*
X96336723Y-98801904D01*
X96336723Y-98801904D02*
X96146247Y-98754285D01*
X96146247Y-98754285D02*
X95765295Y-98754285D01*
X95765295Y-98754285D02*
X95670057Y-98801904D01*
X95670057Y-98801904D02*
X95622438Y-98849523D01*
X95622438Y-98849523D02*
X95574819Y-98944761D01*
X95574819Y-98944761D02*
X95574819Y-99135237D01*
X95574819Y-99135237D02*
X95622438Y-99230475D01*
X95622438Y-99230475D02*
X95670057Y-99278094D01*
X95670057Y-99278094D02*
X95765295Y-99325713D01*
X95765295Y-99325713D02*
X96003390Y-99325713D01*
X96003390Y-99325713D02*
X96098628Y-99278094D01*
X96098628Y-99278094D02*
X96146247Y-99230475D01*
X96146247Y-99230475D02*
X96193866Y-99135237D01*
X96193866Y-99135237D02*
X96193866Y-98944761D01*
X96193866Y-98944761D02*
X96146247Y-98849523D01*
X96146247Y-98849523D02*
X96098628Y-98801904D01*
X96098628Y-98801904D02*
X96003390Y-98754285D01*
X94369819Y-93008333D02*
X95084104Y-93008333D01*
X95084104Y-93008333D02*
X95226961Y-93055952D01*
X95226961Y-93055952D02*
X95322200Y-93151190D01*
X95322200Y-93151190D02*
X95369819Y-93294047D01*
X95369819Y-93294047D02*
X95369819Y-93389285D01*
X94465057Y-92579761D02*
X94417438Y-92532142D01*
X94417438Y-92532142D02*
X94369819Y-92436904D01*
X94369819Y-92436904D02*
X94369819Y-92198809D01*
X94369819Y-92198809D02*
X94417438Y-92103571D01*
X94417438Y-92103571D02*
X94465057Y-92055952D01*
X94465057Y-92055952D02*
X94560295Y-92008333D01*
X94560295Y-92008333D02*
X94655533Y-92008333D01*
X94655533Y-92008333D02*
X94798390Y-92055952D01*
X94798390Y-92055952D02*
X95369819Y-92627380D01*
X95369819Y-92627380D02*
X95369819Y-92008333D01*
D11*
%TO.C,R4*%
X110097500Y-117822224D02*
X110097500Y-117312776D01*
X111142500Y-117822224D02*
X111142500Y-117312776D01*
%TO.C,R2*%
X104897500Y-117902224D02*
X104897500Y-117392776D01*
X105942500Y-117902224D02*
X105942500Y-117392776D01*
%TO.C,D3*%
X110400000Y-99407500D02*
X110400000Y-100767500D01*
X110400000Y-100767500D02*
X111200000Y-100767500D01*
X111200000Y-99407500D02*
X111200000Y-100767500D01*
%TO.C,R3*%
X106887500Y-117902224D02*
X106887500Y-117392776D01*
X107932500Y-117902224D02*
X107932500Y-117392776D01*
%TO.C,C9*%
X96920000Y-99655835D02*
X96920000Y-99424165D01*
X97640000Y-99655835D02*
X97640000Y-99424165D01*
%TO.C,R10*%
X111217776Y-120067500D02*
X111727224Y-120067500D01*
X111217776Y-121112500D02*
X111727224Y-121112500D01*
%TO.C,C7*%
X89020000Y-117741248D02*
X89020000Y-119163752D01*
X90840000Y-117741248D02*
X90840000Y-119163752D01*
%TO.C,D5*%
X116365000Y-123215000D02*
X116365000Y-124685000D01*
X116365000Y-124685000D02*
X118825000Y-124685000D01*
X118825000Y-123215000D02*
X116365000Y-123215000D01*
%TO.C,C6*%
X92370000Y-117741248D02*
X92370000Y-119163752D01*
X94190000Y-117741248D02*
X94190000Y-119163752D01*
%TO.C,D4*%
X112350000Y-99407500D02*
X112350000Y-100767500D01*
X112350000Y-100767500D02*
X113150000Y-100767500D01*
X113150000Y-99407500D02*
X113150000Y-100767500D01*
%TO.C,D2*%
X102950000Y-102020000D02*
X102950000Y-104020000D01*
X102950000Y-102020000D02*
X106960000Y-102020000D01*
X102950000Y-104020000D02*
X106960000Y-104020000D01*
%TO.C,R9*%
X100877500Y-117914724D02*
X100877500Y-117405276D01*
X101922500Y-117914724D02*
X101922500Y-117405276D01*
%TO.C,R8*%
X98747500Y-117944724D02*
X98747500Y-117435276D01*
X99792500Y-117944724D02*
X99792500Y-117435276D01*
%TO.C,U3*%
X85900000Y-105200000D02*
X85900000Y-106460000D01*
X85900000Y-112020000D02*
X85900000Y-110760000D01*
X89660000Y-105200000D02*
X85900000Y-105200000D01*
X89660000Y-112020000D02*
X85900000Y-112020000D01*
X91180000Y-112250000D02*
X90700000Y-112250000D01*
X90940000Y-111920000D01*
X91180000Y-112250000D01*
G36*
X91180000Y-112250000D02*
G01*
X90700000Y-112250000D01*
X90940000Y-111920000D01*
X91180000Y-112250000D01*
G37*
%TO.C,C2*%
X99870000Y-112065835D02*
X99870000Y-111834165D01*
X100590000Y-112065835D02*
X100590000Y-111834165D01*
%TO.C,D1*%
X110052500Y-112560000D02*
X110052500Y-114260000D01*
X110052500Y-112560000D02*
X112712500Y-112560000D01*
X110052500Y-114260000D02*
X112712500Y-114260000D01*
%TO.C,J1*%
X116550000Y-105260000D02*
X116550000Y-105640000D01*
X116550000Y-105260000D02*
X118320000Y-105260000D01*
X116550000Y-112880000D02*
X116550000Y-112500000D01*
X118320000Y-112880000D02*
X116550000Y-112880000D01*
X120600000Y-105260000D02*
X120860000Y-105260000D01*
X120860000Y-112880000D02*
X120600000Y-112880000D01*
%TO.C,J2*%
X95680000Y-94785000D02*
X95680000Y-94050000D01*
X95805000Y-92690000D02*
X115025000Y-92690000D01*
X95805000Y-93315000D02*
X95805000Y-92690000D01*
X96415000Y-94785000D02*
X95680000Y-94785000D01*
X96915000Y-93315000D02*
X96915000Y-92690000D01*
X97155000Y-90690000D02*
X97675000Y-90690000D01*
X97155000Y-92690000D02*
X97155000Y-90690000D01*
X97675000Y-90690000D02*
X97675000Y-92690000D01*
X97915000Y-93511275D02*
X97915000Y-92690000D01*
X98155000Y-90690000D02*
X98675000Y-90690000D01*
X98155000Y-92690000D02*
X98155000Y-90690000D01*
X98675000Y-90690000D02*
X98675000Y-92690000D01*
X98915000Y-93511275D02*
X98915000Y-92690000D01*
X99155000Y-90690000D02*
X99675000Y-90690000D01*
X99155000Y-92690000D02*
X99155000Y-90690000D01*
X99675000Y-90690000D02*
X99675000Y-92690000D01*
X99915000Y-93511275D02*
X99915000Y-92690000D01*
X100155000Y-90690000D02*
X100675000Y-90690000D01*
X100155000Y-92690000D02*
X100155000Y-90690000D01*
X100675000Y-90690000D02*
X100675000Y-92690000D01*
X100915000Y-93511275D02*
X100915000Y-92690000D01*
X101155000Y-90690000D02*
X101675000Y-90690000D01*
X101155000Y-92690000D02*
X101155000Y-90690000D01*
X101675000Y-90690000D02*
X101675000Y-92690000D01*
X101915000Y-93511275D02*
X101915000Y-92690000D01*
X102155000Y-90690000D02*
X102675000Y-90690000D01*
X102155000Y-92690000D02*
X102155000Y-90690000D01*
X102675000Y-90690000D02*
X102675000Y-92690000D01*
X102915000Y-93511275D02*
X102915000Y-92690000D01*
X103155000Y-90690000D02*
X103675000Y-90690000D01*
X103155000Y-92690000D02*
X103155000Y-90690000D01*
X103675000Y-90690000D02*
X103675000Y-92690000D01*
X103915000Y-93511275D02*
X103915000Y-92690000D01*
X104155000Y-90690000D02*
X104675000Y-90690000D01*
X104155000Y-92690000D02*
X104155000Y-90690000D01*
X104675000Y-90690000D02*
X104675000Y-92690000D01*
X104915000Y-93511275D02*
X104915000Y-92690000D01*
X105155000Y-90690000D02*
X105675000Y-90690000D01*
X105155000Y-92690000D02*
X105155000Y-90690000D01*
X105675000Y-90690000D02*
X105675000Y-92690000D01*
X105915000Y-93511275D02*
X105915000Y-92690000D01*
X106155000Y-90690000D02*
X106675000Y-90690000D01*
X106155000Y-92690000D02*
X106155000Y-90690000D01*
X106675000Y-90690000D02*
X106675000Y-92690000D01*
X106915000Y-93511275D02*
X106915000Y-92690000D01*
X107155000Y-90690000D02*
X107675000Y-90690000D01*
X107155000Y-92690000D02*
X107155000Y-90690000D01*
X107675000Y-90690000D02*
X107675000Y-92690000D01*
X107915000Y-93511275D02*
X107915000Y-92690000D01*
X108155000Y-90690000D02*
X108675000Y-90690000D01*
X108155000Y-92690000D02*
X108155000Y-90690000D01*
X108675000Y-90690000D02*
X108675000Y-92690000D01*
X108915000Y-93511275D02*
X108915000Y-92690000D01*
X109155000Y-90690000D02*
X109675000Y-90690000D01*
X109155000Y-92690000D02*
X109155000Y-90690000D01*
X109675000Y-90690000D02*
X109675000Y-92690000D01*
X109915000Y-93511275D02*
X109915000Y-92690000D01*
X110155000Y-90690000D02*
X110675000Y-90690000D01*
X110155000Y-92690000D02*
X110155000Y-90690000D01*
X110675000Y-90690000D02*
X110675000Y-92690000D01*
X110915000Y-93511275D02*
X110915000Y-92690000D01*
X111155000Y-90690000D02*
X111675000Y-90690000D01*
X111155000Y-92690000D02*
X111155000Y-90690000D01*
X111675000Y-90690000D02*
X111675000Y-92690000D01*
X111915000Y-93511275D02*
X111915000Y-92690000D01*
X112155000Y-90690000D02*
X112675000Y-90690000D01*
X112155000Y-92690000D02*
X112155000Y-90690000D01*
X112675000Y-90690000D02*
X112675000Y-92690000D01*
X112915000Y-93511275D02*
X112915000Y-92690000D01*
X113155000Y-90690000D02*
X113675000Y-90690000D01*
X113155000Y-92690000D02*
X113155000Y-90690000D01*
X113675000Y-90690000D02*
X113675000Y-92690000D01*
X113915000Y-93511275D02*
X113915000Y-92690000D01*
X114155000Y-90690000D02*
X114675000Y-90690000D01*
X114155000Y-92690000D02*
X114155000Y-90690000D01*
X114675000Y-90690000D02*
X114675000Y-92690000D01*
X115025000Y-92690000D02*
X115025000Y-93639970D01*
X96155000Y-92690000D02*
X96675000Y-92690000D01*
X96675000Y-90690000D01*
X96155000Y-90690000D01*
X96155000Y-92690000D01*
G36*
X96155000Y-92690000D02*
G01*
X96675000Y-92690000D01*
X96675000Y-90690000D01*
X96155000Y-90690000D01*
X96155000Y-92690000D01*
G37*
%TO.C,C1*%
X95720000Y-117741248D02*
X95720000Y-119163752D01*
X97540000Y-117741248D02*
X97540000Y-119163752D01*
%TO.C,R1*%
X102937500Y-117944724D02*
X102937500Y-117435276D01*
X103982500Y-117944724D02*
X103982500Y-117435276D01*
%TD*%
M02*
