%TF.GenerationSoftware,KiCad,Pcbnew,9.0.3*%
%TF.CreationDate,2025-08-23T20:39:02+05:00*%
%TF.ProjectId,esp-32-new,6573702d-3332-42d6-9e65-772e6b696361,rev?*%
%TF.SameCoordinates,Original*%
%TF.FileFunction,Copper,L3,Inr*%
%TF.FilePolarity,Positive*%
%FSLAX46Y46*%
G04 Gerber Fmt 4.6, Leading zero omitted, Abs format (unit mm)*
G04 Created by KiCad (PCBNEW 9.0.3) date 2025-08-23 20:39:02*
%MOMM*%
%LPD*%
G01*
G04 APERTURE LIST*
%TA.AperFunction,ComponentPad*%
%ADD10R,0.850000X0.850000*%
%TD*%
%TA.AperFunction,ComponentPad*%
%ADD11C,0.850000*%
%TD*%
%TA.AperFunction,HeatsinkPad*%
%ADD12C,0.600000*%
%TD*%
%TA.AperFunction,ViaPad*%
%ADD13C,0.600000*%
%TD*%
%TA.AperFunction,ViaPad*%
%ADD14C,0.300000*%
%TD*%
G04 APERTURE END LIST*
D10*
%TO.N,/VDD33*%
%TO.C,J2*%
X96415000Y-94050000D03*
D11*
%TO.N,/EN*%
X97415000Y-94050000D03*
%TO.N,/SENSOR_VP*%
X98415000Y-94050000D03*
X99415000Y-94050000D03*
%TO.N,/IO34*%
X100415000Y-94050000D03*
%TO.N,/IO35*%
X101415000Y-94050000D03*
%TO.N,/IO32*%
X102415000Y-94050000D03*
%TO.N,/IO33*%
X103415000Y-94050000D03*
%TO.N,/IO25*%
X104415000Y-94050000D03*
%TO.N,/IO26*%
X105415000Y-94050000D03*
%TO.N,/IO27*%
X106415000Y-94050000D03*
%TO.N,/IO14*%
X107415000Y-94050000D03*
%TO.N,/IO12*%
X108415000Y-94050000D03*
%TO.N,GND*%
X109415000Y-94050000D03*
%TO.N,/IO13*%
X110415000Y-94050000D03*
%TO.N,/SHD*%
X111415000Y-94050000D03*
%TO.N,/SWP*%
X112415000Y-94050000D03*
%TO.N,/SCS*%
X113415000Y-94050000D03*
%TO.N,/EXT_5V*%
X114415000Y-94050000D03*
%TD*%
D12*
%TO.N,GND*%
%TO.C,U1*%
X78027500Y-107110000D03*
X76502500Y-107110000D03*
X78790000Y-107872500D03*
X77265000Y-107872500D03*
X75740000Y-107872500D03*
X78027500Y-108635000D03*
X76502500Y-108635000D03*
X78790000Y-109397500D03*
X77265000Y-109397500D03*
X75740000Y-109397500D03*
X78027500Y-110160000D03*
X76502500Y-110160000D03*
%TD*%
D10*
%TO.N,GND*%
%TO.C,J3*%
X96415000Y-124590000D03*
D11*
%TO.N,/IO23*%
X97415000Y-124590000D03*
%TO.N,/IO22*%
X98415000Y-124590000D03*
%TO.N,/TXD0*%
X99415000Y-124590000D03*
%TO.N,/RXD0*%
X100415000Y-124590000D03*
%TO.N,/IO21*%
X101415000Y-124590000D03*
%TO.N,GND*%
X102415000Y-124590000D03*
%TO.N,/IO19*%
X103415000Y-124590000D03*
%TO.N,/IO18*%
X104415000Y-124590000D03*
%TO.N,/IO5*%
X105415000Y-124590000D03*
%TO.N,/IO17*%
X106415000Y-124590000D03*
%TO.N,/IO16*%
X107415000Y-124590000D03*
%TO.N,/IO4*%
X108415000Y-124590000D03*
%TO.N,/IO2*%
X109415000Y-124590000D03*
%TO.N,/IO0*%
X110415000Y-124590000D03*
%TO.N,/IO15*%
X111415000Y-124590000D03*
%TO.N,/SDI*%
X112415000Y-124590000D03*
%TO.N,/SD0*%
X113415000Y-124590000D03*
%TO.N,/SCK*%
X114415000Y-124590000D03*
%TD*%
D13*
%TO.N,Net-(U1-VDD)*%
X98990380Y-113969620D03*
X100274620Y-113415380D03*
X71200000Y-101810000D03*
%TO.N,GND*%
X110800000Y-101130000D03*
X107480000Y-100120000D03*
D14*
X117720000Y-119390000D03*
D13*
X117630000Y-113300000D03*
X107350000Y-108250000D03*
X112750000Y-101120000D03*
X96470000Y-118630000D03*
X106410000Y-118870000D03*
D14*
X108511574Y-95261574D03*
D13*
X99040000Y-99430000D03*
X95230000Y-124630000D03*
X101300000Y-111460000D03*
D14*
X117110000Y-125040000D03*
D13*
X100020000Y-106120000D03*
X117760000Y-98830000D03*
X69860000Y-101980000D03*
X111650000Y-113440000D03*
D14*
X89660000Y-105080000D03*
X86500000Y-104190000D03*
D13*
X89990000Y-118610000D03*
X70040000Y-116900000D03*
D14*
X102330000Y-123760000D03*
D13*
X93300000Y-118470000D03*
D14*
X85270000Y-111380000D03*
X111790000Y-109480000D03*
%TO.N,/EN*%
X98140000Y-98990000D03*
D13*
X96880000Y-105470000D03*
D14*
%TO.N,Net-(U2-VDD)*%
X105280000Y-100080000D03*
X102543554Y-101943554D03*
D13*
%TO.N,/EXT_5V*%
X105060000Y-102910000D03*
X90970000Y-105360000D03*
X109550000Y-120590000D03*
X94850000Y-118390000D03*
%TO.N,/VDD33*%
X100630000Y-120130000D03*
X102850000Y-120368480D03*
X96430000Y-115140000D03*
X98353069Y-115526932D03*
%TO.N,/SCS*%
X92705380Y-109014620D03*
X103910000Y-104650000D03*
X112550000Y-103050000D03*
X99060000Y-109150000D03*
X93830000Y-108300000D03*
D14*
%TO.N,/IO14*%
X91865390Y-100024554D03*
X98100000Y-101530000D03*
X87380000Y-101360000D03*
%TO.N,/SHD*%
X94810000Y-106140000D03*
%TO.N,/IO25*%
X98309106Y-98452000D03*
%TO.N,/IO13*%
X91400000Y-103300000D03*
D13*
%TO.N,/SWP*%
X93990000Y-112270000D03*
X99060000Y-112090000D03*
X97720000Y-112160000D03*
D14*
%TO.N,/IO27*%
X98130000Y-100910000D03*
X83790000Y-102710000D03*
X91544554Y-99524554D03*
%TO.N,/IO26*%
X98086446Y-100373554D03*
X82470000Y-101860000D03*
X91410000Y-98952000D03*
D13*
%TO.N,/IO0*%
X108670000Y-117420000D03*
X87220000Y-118140000D03*
X92180000Y-113610000D03*
D14*
X110040000Y-123540000D03*
X114080000Y-123430000D03*
X103961000Y-115500000D03*
%TO.N,/IO16*%
X94800000Y-120170000D03*
X83900000Y-116580000D03*
%TO.N,/IO4*%
X91640000Y-118380000D03*
X88240000Y-118520000D03*
D13*
%TO.N,Net-(Q2-B)*%
X96072500Y-111350000D03*
X95340000Y-109910000D03*
%TO.N,/DTR*%
X102666543Y-109503457D03*
X101087303Y-109762697D03*
D14*
%TO.N,Net-(U2-~{RST})*%
X106310000Y-105121523D03*
X107332000Y-114380000D03*
X108400000Y-114230000D03*
%TO.N,Net-(U2-VBUS)*%
X105810000Y-105080000D03*
D13*
%TO.N,/TXD*%
X99930380Y-114909620D03*
X101370000Y-113840000D03*
D14*
X106830000Y-111510000D03*
%TO.N,/RXD*%
X103220000Y-114440000D03*
X107310000Y-111281479D03*
X101990000Y-114990000D03*
%TD*%
%TA.AperFunction,Conductor*%
%TO.N,/EXT_5V*%
G36*
X95456026Y-93172271D02*
G01*
X95523057Y-93191977D01*
X95568795Y-93244796D01*
X95578716Y-93313958D01*
X95555254Y-93370577D01*
X95546207Y-93382662D01*
X95546202Y-93382671D01*
X95495908Y-93517517D01*
X95489501Y-93577116D01*
X95489500Y-93577135D01*
X95489500Y-94522870D01*
X95489501Y-94522876D01*
X95495908Y-94582483D01*
X95546202Y-94717328D01*
X95546206Y-94717335D01*
X95632452Y-94832544D01*
X95632455Y-94832547D01*
X95747664Y-94918793D01*
X95747671Y-94918797D01*
X95882517Y-94969091D01*
X95882516Y-94969091D01*
X95889444Y-94969835D01*
X95942127Y-94975500D01*
X96887872Y-94975499D01*
X96947483Y-94969091D01*
X97042768Y-94933551D01*
X97112457Y-94928568D01*
X97133551Y-94935173D01*
X97145042Y-94939933D01*
X97145044Y-94939933D01*
X97145046Y-94939934D01*
X97323843Y-94975500D01*
X97323846Y-94975500D01*
X97506156Y-94975500D01*
X97635173Y-94949836D01*
X97684958Y-94939933D01*
X97853389Y-94870167D01*
X97853394Y-94870163D01*
X97856541Y-94868482D01*
X97858386Y-94868097D01*
X97859018Y-94867836D01*
X97859067Y-94867955D01*
X97924943Y-94854236D01*
X97973459Y-94868482D01*
X97976615Y-94870169D01*
X98145037Y-94939931D01*
X98145042Y-94939933D01*
X98145046Y-94939933D01*
X98145047Y-94939934D01*
X98323843Y-94975500D01*
X98323846Y-94975500D01*
X98506156Y-94975500D01*
X98635173Y-94949836D01*
X98684958Y-94939933D01*
X98853389Y-94870167D01*
X98853394Y-94870163D01*
X98856541Y-94868482D01*
X98858386Y-94868097D01*
X98859018Y-94867836D01*
X98859067Y-94867955D01*
X98924943Y-94854236D01*
X98973459Y-94868482D01*
X98976615Y-94870169D01*
X99145037Y-94939931D01*
X99145042Y-94939933D01*
X99145046Y-94939933D01*
X99145047Y-94939934D01*
X99323843Y-94975500D01*
X99323846Y-94975500D01*
X99506156Y-94975500D01*
X99635173Y-94949836D01*
X99684958Y-94939933D01*
X99853389Y-94870167D01*
X99853394Y-94870163D01*
X99856541Y-94868482D01*
X99858386Y-94868097D01*
X99859018Y-94867836D01*
X99859067Y-94867955D01*
X99924943Y-94854236D01*
X99973459Y-94868482D01*
X99976615Y-94870169D01*
X100145037Y-94939931D01*
X100145042Y-94939933D01*
X100145046Y-94939933D01*
X100145047Y-94939934D01*
X100323843Y-94975500D01*
X100323846Y-94975500D01*
X100506156Y-94975500D01*
X100635173Y-94949836D01*
X100684958Y-94939933D01*
X100853389Y-94870167D01*
X100853394Y-94870163D01*
X100856541Y-94868482D01*
X100858386Y-94868097D01*
X100859018Y-94867836D01*
X100859067Y-94867955D01*
X100924943Y-94854236D01*
X100973459Y-94868482D01*
X100976615Y-94870169D01*
X101145037Y-94939931D01*
X101145042Y-94939933D01*
X101145046Y-94939933D01*
X101145047Y-94939934D01*
X101323843Y-94975500D01*
X101323846Y-94975500D01*
X101506156Y-94975500D01*
X101635173Y-94949836D01*
X101684958Y-94939933D01*
X101853389Y-94870167D01*
X101853394Y-94870163D01*
X101856541Y-94868482D01*
X101858386Y-94868097D01*
X101859018Y-94867836D01*
X101859067Y-94867955D01*
X101924943Y-94854236D01*
X101973459Y-94868482D01*
X101976615Y-94870169D01*
X102145037Y-94939931D01*
X102145042Y-94939933D01*
X102145046Y-94939933D01*
X102145047Y-94939934D01*
X102323843Y-94975500D01*
X102323846Y-94975500D01*
X102506156Y-94975500D01*
X102635173Y-94949836D01*
X102684958Y-94939933D01*
X102853389Y-94870167D01*
X102853394Y-94870163D01*
X102856541Y-94868482D01*
X102858386Y-94868097D01*
X102859018Y-94867836D01*
X102859067Y-94867955D01*
X102924943Y-94854236D01*
X102973459Y-94868482D01*
X102976615Y-94870169D01*
X103145037Y-94939931D01*
X103145042Y-94939933D01*
X103145046Y-94939933D01*
X103145047Y-94939934D01*
X103323843Y-94975500D01*
X103323846Y-94975500D01*
X103506156Y-94975500D01*
X103635173Y-94949836D01*
X103684958Y-94939933D01*
X103853389Y-94870167D01*
X103853394Y-94870163D01*
X103856541Y-94868482D01*
X103858386Y-94868097D01*
X103859018Y-94867836D01*
X103859067Y-94867955D01*
X103924943Y-94854236D01*
X103973459Y-94868482D01*
X103976615Y-94870169D01*
X104145037Y-94939931D01*
X104145042Y-94939933D01*
X104145046Y-94939933D01*
X104145047Y-94939934D01*
X104323843Y-94975500D01*
X104323846Y-94975500D01*
X104506156Y-94975500D01*
X104635173Y-94949836D01*
X104684958Y-94939933D01*
X104853389Y-94870167D01*
X104853394Y-94870163D01*
X104856541Y-94868482D01*
X104858386Y-94868097D01*
X104859018Y-94867836D01*
X104859067Y-94867955D01*
X104924943Y-94854236D01*
X104973459Y-94868482D01*
X104976615Y-94870169D01*
X105145037Y-94939931D01*
X105145042Y-94939933D01*
X105145046Y-94939933D01*
X105145047Y-94939934D01*
X105323843Y-94975500D01*
X105323846Y-94975500D01*
X105506156Y-94975500D01*
X105635173Y-94949836D01*
X105684958Y-94939933D01*
X105853389Y-94870167D01*
X105853394Y-94870163D01*
X105856541Y-94868482D01*
X105858386Y-94868097D01*
X105859018Y-94867836D01*
X105859067Y-94867955D01*
X105924943Y-94854236D01*
X105973459Y-94868482D01*
X105976615Y-94870169D01*
X106145037Y-94939931D01*
X106145042Y-94939933D01*
X106145046Y-94939933D01*
X106145047Y-94939934D01*
X106323843Y-94975500D01*
X106323846Y-94975500D01*
X106506156Y-94975500D01*
X106635173Y-94949836D01*
X106684958Y-94939933D01*
X106853389Y-94870167D01*
X106853394Y-94870163D01*
X106856541Y-94868482D01*
X106858386Y-94868097D01*
X106859018Y-94867836D01*
X106859067Y-94867955D01*
X106924943Y-94854236D01*
X106973459Y-94868482D01*
X106976615Y-94870169D01*
X107145037Y-94939931D01*
X107145042Y-94939933D01*
X107145046Y-94939933D01*
X107145047Y-94939934D01*
X107323843Y-94975500D01*
X107323846Y-94975500D01*
X107506156Y-94975500D01*
X107635173Y-94949836D01*
X107684958Y-94939933D01*
X107718516Y-94926032D01*
X107787982Y-94918563D01*
X107850462Y-94949836D01*
X107886116Y-95009924D01*
X107884899Y-95065386D01*
X107887261Y-95065856D01*
X107861074Y-95197502D01*
X107861074Y-95197503D01*
X107861074Y-95197505D01*
X107861074Y-95325643D01*
X107861074Y-95325645D01*
X107861073Y-95325645D01*
X107886071Y-95451312D01*
X107886073Y-95451318D01*
X107935107Y-95569698D01*
X107935112Y-95569707D01*
X108006297Y-95676242D01*
X108006300Y-95676246D01*
X108096901Y-95766847D01*
X108096905Y-95766850D01*
X108203440Y-95838035D01*
X108203446Y-95838038D01*
X108203447Y-95838039D01*
X108321830Y-95887075D01*
X108321834Y-95887075D01*
X108321835Y-95887076D01*
X108447502Y-95912074D01*
X108447505Y-95912074D01*
X108575645Y-95912074D01*
X108660189Y-95895256D01*
X108701318Y-95887075D01*
X108819701Y-95838039D01*
X108926243Y-95766850D01*
X109016850Y-95676243D01*
X109088039Y-95569701D01*
X109137075Y-95451318D01*
X109156783Y-95352242D01*
X109162074Y-95325645D01*
X109162074Y-95197503D01*
X109145635Y-95114865D01*
X109151862Y-95045273D01*
X109194724Y-94990095D01*
X109260613Y-94966850D01*
X109291444Y-94969055D01*
X109323844Y-94975500D01*
X109323846Y-94975500D01*
X109506156Y-94975500D01*
X109635173Y-94949836D01*
X109684958Y-94939933D01*
X109853389Y-94870167D01*
X109853394Y-94870163D01*
X109856541Y-94868482D01*
X109858386Y-94868097D01*
X109859018Y-94867836D01*
X109859067Y-94867955D01*
X109924943Y-94854236D01*
X109973459Y-94868482D01*
X109976615Y-94870169D01*
X110145037Y-94939931D01*
X110145042Y-94939933D01*
X110145046Y-94939933D01*
X110145047Y-94939934D01*
X110323843Y-94975500D01*
X110323846Y-94975500D01*
X110506156Y-94975500D01*
X110635173Y-94949836D01*
X110684958Y-94939933D01*
X110853389Y-94870167D01*
X110853394Y-94870163D01*
X110856541Y-94868482D01*
X110858386Y-94868097D01*
X110859018Y-94867836D01*
X110859067Y-94867955D01*
X110924943Y-94854236D01*
X110973459Y-94868482D01*
X110976615Y-94870169D01*
X111145037Y-94939931D01*
X111145042Y-94939933D01*
X111145046Y-94939933D01*
X111145047Y-94939934D01*
X111323843Y-94975500D01*
X111323846Y-94975500D01*
X111506156Y-94975500D01*
X111635173Y-94949836D01*
X111684958Y-94939933D01*
X111853389Y-94870167D01*
X111853394Y-94870163D01*
X111856541Y-94868482D01*
X111858386Y-94868097D01*
X111859018Y-94867836D01*
X111859067Y-94867955D01*
X111924943Y-94854236D01*
X111973459Y-94868482D01*
X111976615Y-94870169D01*
X112145037Y-94939931D01*
X112145042Y-94939933D01*
X112145046Y-94939933D01*
X112145047Y-94939934D01*
X112323843Y-94975500D01*
X112323846Y-94975500D01*
X112506156Y-94975500D01*
X112635173Y-94949836D01*
X112684958Y-94939933D01*
X112853389Y-94870167D01*
X112853394Y-94870163D01*
X112856541Y-94868482D01*
X112858386Y-94868097D01*
X112859018Y-94867836D01*
X112859067Y-94867955D01*
X112924943Y-94854236D01*
X112973459Y-94868482D01*
X112976615Y-94870169D01*
X113145037Y-94939931D01*
X113145042Y-94939933D01*
X113145046Y-94939933D01*
X113145047Y-94939934D01*
X113323843Y-94975500D01*
X113323846Y-94975500D01*
X113506156Y-94975500D01*
X113635173Y-94949836D01*
X113684958Y-94939933D01*
X113853389Y-94870167D01*
X113853399Y-94870160D01*
X113857061Y-94868203D01*
X113925462Y-94853950D01*
X113973992Y-94868198D01*
X113976854Y-94869728D01*
X114145182Y-94939451D01*
X114145194Y-94939454D01*
X114323890Y-94974999D01*
X114323894Y-94975000D01*
X114506106Y-94975000D01*
X114506109Y-94974999D01*
X114684805Y-94939454D01*
X114684813Y-94939452D01*
X114853151Y-94869724D01*
X114853152Y-94869724D01*
X114869948Y-94858500D01*
X114356191Y-94344745D01*
X114352386Y-94337777D01*
X114345946Y-94333133D01*
X114335879Y-94307547D01*
X114322706Y-94283422D01*
X114322696Y-94282364D01*
X114365272Y-94300000D01*
X114464728Y-94300000D01*
X114556614Y-94261940D01*
X114626940Y-94191614D01*
X114665000Y-94099728D01*
X114665000Y-94049999D01*
X114768553Y-94049999D01*
X114768553Y-94050001D01*
X115223500Y-94504948D01*
X115223500Y-94504947D01*
X115234723Y-94488154D01*
X115234724Y-94488151D01*
X115304452Y-94319813D01*
X115304454Y-94319805D01*
X115339999Y-94141109D01*
X115340000Y-94141106D01*
X115340000Y-93958894D01*
X115339999Y-93958890D01*
X115304454Y-93780194D01*
X115304451Y-93780182D01*
X115234728Y-93611855D01*
X115234725Y-93611849D01*
X115223500Y-93595050D01*
X114768553Y-94049999D01*
X114665000Y-94049999D01*
X114665000Y-94000272D01*
X114626940Y-93908386D01*
X114556614Y-93838060D01*
X114464728Y-93800000D01*
X114365272Y-93800000D01*
X114326836Y-93815920D01*
X114328482Y-93797535D01*
X114356191Y-93755253D01*
X114896526Y-93214919D01*
X114957849Y-93181434D01*
X114984238Y-93178600D01*
X120594036Y-93180419D01*
X120661069Y-93200125D01*
X120678544Y-93213712D01*
X120736201Y-93267454D01*
X123540049Y-95880916D01*
X123575666Y-95941025D01*
X123579500Y-95971622D01*
X123579500Y-101561088D01*
X123559815Y-101628127D01*
X123538259Y-101653430D01*
X120614294Y-104273963D01*
X120604697Y-104282564D01*
X120592686Y-104289500D01*
X120555766Y-104326418D01*
X120553241Y-104328682D01*
X120553238Y-104328683D01*
X120516893Y-104361257D01*
X120516886Y-104361266D01*
X120516347Y-104362093D01*
X120500211Y-104381974D01*
X120499499Y-104382686D01*
X120475094Y-104424956D01*
X120471548Y-104430728D01*
X120444861Y-104471616D01*
X120444860Y-104471616D01*
X120444554Y-104472551D01*
X120440543Y-104484801D01*
X120433608Y-104496814D01*
X120420100Y-104547224D01*
X120419040Y-104550462D01*
X120403847Y-104596857D01*
X120403793Y-104597841D01*
X120403089Y-104610710D01*
X120399500Y-104624108D01*
X120399500Y-104676309D01*
X120396647Y-104728444D01*
X120396849Y-104729408D01*
X120399500Y-104754908D01*
X120399500Y-113897979D01*
X120396647Y-113911556D01*
X120399500Y-113963690D01*
X120399500Y-114015894D01*
X120399755Y-114016846D01*
X120403793Y-114042149D01*
X120403847Y-114043142D01*
X120403847Y-114043143D01*
X120419039Y-114089533D01*
X120420098Y-114092766D01*
X120433608Y-114143186D01*
X120440543Y-114155198D01*
X120444554Y-114167445D01*
X120444860Y-114168380D01*
X120444864Y-114168389D01*
X120471540Y-114209258D01*
X120475085Y-114215027D01*
X120499500Y-114257314D01*
X120499502Y-114257316D01*
X120500194Y-114258008D01*
X120516350Y-114277911D01*
X120516888Y-114278736D01*
X120516890Y-114278738D01*
X120516891Y-114278739D01*
X120516892Y-114278740D01*
X120555765Y-114313579D01*
X120592686Y-114350500D01*
X120604699Y-114357436D01*
X120614295Y-114366036D01*
X120614296Y-114366037D01*
X121997585Y-115605776D01*
X123538260Y-116986569D01*
X123575045Y-117045970D01*
X123579500Y-117078910D01*
X123579500Y-122668376D01*
X123559815Y-122735415D01*
X123540048Y-122759083D01*
X120678544Y-125426286D01*
X120616082Y-125457596D01*
X120594036Y-125459579D01*
X117825547Y-125460476D01*
X117758501Y-125440813D01*
X117712729Y-125388024D01*
X117702763Y-125318869D01*
X117710943Y-125289030D01*
X117735501Y-125229744D01*
X117753295Y-125140289D01*
X117760500Y-125104071D01*
X117760500Y-124975928D01*
X117735502Y-124850261D01*
X117735501Y-124850260D01*
X117735501Y-124850256D01*
X117686465Y-124731873D01*
X117686464Y-124731872D01*
X117686461Y-124731866D01*
X117615276Y-124625331D01*
X117615273Y-124625327D01*
X117524672Y-124534726D01*
X117524668Y-124534723D01*
X117418133Y-124463538D01*
X117418124Y-124463533D01*
X117299744Y-124414499D01*
X117299738Y-124414497D01*
X117174071Y-124389500D01*
X117174069Y-124389500D01*
X117045931Y-124389500D01*
X117045929Y-124389500D01*
X116920261Y-124414497D01*
X116920255Y-124414499D01*
X116801875Y-124463533D01*
X116801866Y-124463538D01*
X116695331Y-124534723D01*
X116695327Y-124534726D01*
X116604726Y-124625327D01*
X116604723Y-124625331D01*
X116533538Y-124731866D01*
X116533533Y-124731875D01*
X116484499Y-124850255D01*
X116484497Y-124850261D01*
X116459500Y-124975928D01*
X116459500Y-124975931D01*
X116459500Y-125104069D01*
X116459500Y-125104071D01*
X116459499Y-125104071D01*
X116484497Y-125229738D01*
X116484500Y-125229748D01*
X116509245Y-125289488D01*
X116516714Y-125358957D01*
X116485438Y-125421436D01*
X116425349Y-125457088D01*
X116394724Y-125460940D01*
X115151914Y-125461343D01*
X115084868Y-125441680D01*
X115039096Y-125388891D01*
X115029130Y-125319736D01*
X115058135Y-125256171D01*
X115064179Y-125249675D01*
X115133883Y-125179972D01*
X115235167Y-125028389D01*
X115304933Y-124859958D01*
X115334992Y-124708846D01*
X115340500Y-124681156D01*
X115340500Y-124498843D01*
X115304934Y-124320047D01*
X115304933Y-124320046D01*
X115304933Y-124320042D01*
X115304931Y-124320037D01*
X115235168Y-124151612D01*
X115235166Y-124151608D01*
X115133886Y-124000032D01*
X115133880Y-124000024D01*
X115004975Y-123871119D01*
X115004967Y-123871113D01*
X114853390Y-123769833D01*
X114783194Y-123740757D01*
X114728791Y-123696916D01*
X114706726Y-123630622D01*
X114709030Y-123602004D01*
X114730500Y-123494071D01*
X114730500Y-123365928D01*
X114705502Y-123240261D01*
X114705501Y-123240260D01*
X114705501Y-123240256D01*
X114667574Y-123148692D01*
X114656466Y-123121875D01*
X114656461Y-123121866D01*
X114585276Y-123015331D01*
X114585273Y-123015327D01*
X114494672Y-122924726D01*
X114494668Y-122924723D01*
X114388133Y-122853538D01*
X114388124Y-122853533D01*
X114269744Y-122804499D01*
X114269738Y-122804497D01*
X114144071Y-122779500D01*
X114144069Y-122779500D01*
X114015931Y-122779500D01*
X114015929Y-122779500D01*
X113890261Y-122804497D01*
X113890255Y-122804499D01*
X113771875Y-122853533D01*
X113771866Y-122853538D01*
X113665331Y-122924723D01*
X113665327Y-122924726D01*
X113574726Y-123015327D01*
X113574723Y-123015331D01*
X113503538Y-123121866D01*
X113503533Y-123121875D01*
X113454499Y-123240255D01*
X113454497Y-123240261D01*
X113429500Y-123365928D01*
X113429500Y-123365931D01*
X113429500Y-123494069D01*
X113429500Y-123494071D01*
X113429499Y-123494071D01*
X113434028Y-123516838D01*
X113427799Y-123586429D01*
X113384934Y-123641605D01*
X113329660Y-123662502D01*
X113329821Y-123663311D01*
X113324971Y-123664275D01*
X113324566Y-123664429D01*
X113323842Y-123664500D01*
X113145047Y-123700065D01*
X113145041Y-123700067D01*
X112976605Y-123769835D01*
X112973444Y-123771525D01*
X112971600Y-123771908D01*
X112970984Y-123772164D01*
X112970935Y-123772047D01*
X112905040Y-123785761D01*
X112856556Y-123771525D01*
X112853394Y-123769835D01*
X112684958Y-123700067D01*
X112684952Y-123700065D01*
X112506156Y-123664500D01*
X112506154Y-123664500D01*
X112323846Y-123664500D01*
X112323844Y-123664500D01*
X112145047Y-123700065D01*
X112145041Y-123700067D01*
X111976605Y-123769835D01*
X111973444Y-123771525D01*
X111971600Y-123771908D01*
X111970984Y-123772164D01*
X111970935Y-123772047D01*
X111905040Y-123785761D01*
X111856556Y-123771525D01*
X111853394Y-123769835D01*
X111684958Y-123700067D01*
X111684952Y-123700065D01*
X111506156Y-123664500D01*
X111506154Y-123664500D01*
X111323846Y-123664500D01*
X111323844Y-123664500D01*
X111145047Y-123700065D01*
X111145041Y-123700067D01*
X110976605Y-123769835D01*
X110973444Y-123771525D01*
X110971600Y-123771908D01*
X110971067Y-123772129D01*
X110969548Y-123773520D01*
X110937171Y-123779073D01*
X110905040Y-123785761D01*
X110902222Y-123785069D01*
X110900684Y-123785333D01*
X110891142Y-123782347D01*
X110866563Y-123776310D01*
X110857026Y-123772263D01*
X110853389Y-123769833D01*
X110765772Y-123733541D01*
X110765178Y-123733289D01*
X110738561Y-123711459D01*
X110711758Y-123689860D01*
X110711582Y-123689333D01*
X110711154Y-123688982D01*
X110700577Y-123656265D01*
X110689694Y-123623566D01*
X110689721Y-123622687D01*
X110689661Y-123622500D01*
X110689736Y-123622215D01*
X110690213Y-123606979D01*
X110690500Y-123604066D01*
X110690500Y-123475928D01*
X110665502Y-123350261D01*
X110665501Y-123350260D01*
X110665501Y-123350256D01*
X110622628Y-123246751D01*
X110616466Y-123231875D01*
X110616461Y-123231866D01*
X110545276Y-123125331D01*
X110545273Y-123125327D01*
X110454672Y-123034726D01*
X110454668Y-123034723D01*
X110348133Y-122963538D01*
X110348124Y-122963533D01*
X110229744Y-122914499D01*
X110229738Y-122914497D01*
X110104071Y-122889500D01*
X110104069Y-122889500D01*
X109975931Y-122889500D01*
X109975929Y-122889500D01*
X109850261Y-122914497D01*
X109850255Y-122914499D01*
X109731875Y-122963533D01*
X109731866Y-122963538D01*
X109625331Y-123034723D01*
X109625327Y-123034726D01*
X109534726Y-123125327D01*
X109534723Y-123125331D01*
X109463538Y-123231866D01*
X109463533Y-123231875D01*
X109414499Y-123350255D01*
X109414497Y-123350261D01*
X109389500Y-123475928D01*
X109389500Y-123549676D01*
X109369815Y-123616715D01*
X109317011Y-123662470D01*
X109289692Y-123671293D01*
X109145047Y-123700065D01*
X109145041Y-123700067D01*
X108976605Y-123769835D01*
X108973444Y-123771525D01*
X108971600Y-123771908D01*
X108970984Y-123772164D01*
X108970935Y-123772047D01*
X108905040Y-123785761D01*
X108856556Y-123771525D01*
X108853394Y-123769835D01*
X108684958Y-123700067D01*
X108684952Y-123700065D01*
X108506156Y-123664500D01*
X108506154Y-123664500D01*
X108323846Y-123664500D01*
X108323844Y-123664500D01*
X108145047Y-123700065D01*
X108145041Y-123700067D01*
X107976605Y-123769835D01*
X107973444Y-123771525D01*
X107971600Y-123771908D01*
X107970984Y-123772164D01*
X107970935Y-123772047D01*
X107905040Y-123785761D01*
X107856556Y-123771525D01*
X107853394Y-123769835D01*
X107684958Y-123700067D01*
X107684952Y-123700065D01*
X107506156Y-123664500D01*
X107506154Y-123664500D01*
X107323846Y-123664500D01*
X107323844Y-123664500D01*
X107145047Y-123700065D01*
X107145041Y-123700067D01*
X106976605Y-123769835D01*
X106973444Y-123771525D01*
X106971600Y-123771908D01*
X106970984Y-123772164D01*
X106970935Y-123772047D01*
X106905040Y-123785761D01*
X106856556Y-123771525D01*
X106853394Y-123769835D01*
X106684958Y-123700067D01*
X106684952Y-123700065D01*
X106506156Y-123664500D01*
X106506154Y-123664500D01*
X106323846Y-123664500D01*
X106323844Y-123664500D01*
X106145047Y-123700065D01*
X106145041Y-123700067D01*
X105976605Y-123769835D01*
X105973444Y-123771525D01*
X105971600Y-123771908D01*
X105970984Y-123772164D01*
X105970935Y-123772047D01*
X105905040Y-123785761D01*
X105856556Y-123771525D01*
X105853394Y-123769835D01*
X105684958Y-123700067D01*
X105684952Y-123700065D01*
X105506156Y-123664500D01*
X105506154Y-123664500D01*
X105323846Y-123664500D01*
X105323844Y-123664500D01*
X105145047Y-123700065D01*
X105145041Y-123700067D01*
X104976605Y-123769835D01*
X104973444Y-123771525D01*
X104971600Y-123771908D01*
X104970984Y-123772164D01*
X104970935Y-123772047D01*
X104905040Y-123785761D01*
X104856556Y-123771525D01*
X104853394Y-123769835D01*
X104684958Y-123700067D01*
X104684952Y-123700065D01*
X104506156Y-123664500D01*
X104506154Y-123664500D01*
X104323846Y-123664500D01*
X104323844Y-123664500D01*
X104145047Y-123700065D01*
X104145041Y-123700067D01*
X103976605Y-123769835D01*
X103973444Y-123771525D01*
X103971600Y-123771908D01*
X103970984Y-123772164D01*
X103970935Y-123772047D01*
X103905040Y-123785761D01*
X103856556Y-123771525D01*
X103853394Y-123769835D01*
X103684958Y-123700067D01*
X103684952Y-123700065D01*
X103506156Y-123664500D01*
X103506154Y-123664500D01*
X103323846Y-123664500D01*
X103323844Y-123664500D01*
X103145047Y-123700065D01*
X103145033Y-123700069D01*
X103133374Y-123704899D01*
X103063905Y-123712366D01*
X103001427Y-123681089D01*
X102965776Y-123621000D01*
X102964308Y-123614529D01*
X102955502Y-123570261D01*
X102955501Y-123570260D01*
X102955501Y-123570256D01*
X102906465Y-123451873D01*
X102906464Y-123451872D01*
X102906461Y-123451866D01*
X102835276Y-123345331D01*
X102835273Y-123345327D01*
X102744672Y-123254726D01*
X102744668Y-123254723D01*
X102638133Y-123183538D01*
X102638124Y-123183533D01*
X102519744Y-123134499D01*
X102519738Y-123134497D01*
X102394071Y-123109500D01*
X102394069Y-123109500D01*
X102265931Y-123109500D01*
X102265929Y-123109500D01*
X102140261Y-123134497D01*
X102140255Y-123134499D01*
X102021875Y-123183533D01*
X102021866Y-123183538D01*
X101915331Y-123254723D01*
X101915327Y-123254726D01*
X101824726Y-123345327D01*
X101824723Y-123345331D01*
X101753538Y-123451866D01*
X101753533Y-123451875D01*
X101704499Y-123570255D01*
X101704497Y-123570261D01*
X101703106Y-123577255D01*
X101670717Y-123639164D01*
X101609999Y-123673734D01*
X101557298Y-123674673D01*
X101506156Y-123664500D01*
X101506154Y-123664500D01*
X101323846Y-123664500D01*
X101323844Y-123664500D01*
X101145047Y-123700065D01*
X101145041Y-123700067D01*
X100976605Y-123769835D01*
X100973444Y-123771525D01*
X100971600Y-123771908D01*
X100970984Y-123772164D01*
X100970935Y-123772047D01*
X100905040Y-123785761D01*
X100856556Y-123771525D01*
X100853394Y-123769835D01*
X100684958Y-123700067D01*
X100684952Y-123700065D01*
X100506156Y-123664500D01*
X100506154Y-123664500D01*
X100323846Y-123664500D01*
X100323844Y-123664500D01*
X100145047Y-123700065D01*
X100145041Y-123700067D01*
X99976605Y-123769835D01*
X99973444Y-123771525D01*
X99971600Y-123771908D01*
X99970984Y-123772164D01*
X99970935Y-123772047D01*
X99905040Y-123785761D01*
X99856556Y-123771525D01*
X99853394Y-123769835D01*
X99684958Y-123700067D01*
X99684952Y-123700065D01*
X99506156Y-123664500D01*
X99506154Y-123664500D01*
X99323846Y-123664500D01*
X99323844Y-123664500D01*
X99145047Y-123700065D01*
X99145041Y-123700067D01*
X98976605Y-123769835D01*
X98973444Y-123771525D01*
X98971600Y-123771908D01*
X98970984Y-123772164D01*
X98970935Y-123772047D01*
X98905040Y-123785761D01*
X98856556Y-123771525D01*
X98853394Y-123769835D01*
X98684958Y-123700067D01*
X98684952Y-123700065D01*
X98506156Y-123664500D01*
X98506154Y-123664500D01*
X98323846Y-123664500D01*
X98323844Y-123664500D01*
X98145047Y-123700065D01*
X98145041Y-123700067D01*
X97976605Y-123769835D01*
X97973444Y-123771525D01*
X97971600Y-123771908D01*
X97970984Y-123772164D01*
X97970935Y-123772047D01*
X97905040Y-123785761D01*
X97856556Y-123771525D01*
X97853394Y-123769835D01*
X97684958Y-123700067D01*
X97684952Y-123700065D01*
X97506156Y-123664500D01*
X97506154Y-123664500D01*
X97323846Y-123664500D01*
X97323844Y-123664500D01*
X97145047Y-123700065D01*
X97145034Y-123700069D01*
X97133545Y-123704828D01*
X97064076Y-123712294D01*
X97042765Y-123706447D01*
X97038424Y-123704828D01*
X96957575Y-123674673D01*
X96947481Y-123670908D01*
X96947483Y-123670908D01*
X96887883Y-123664501D01*
X96887881Y-123664500D01*
X96887873Y-123664500D01*
X96887864Y-123664500D01*
X95942129Y-123664500D01*
X95942123Y-123664501D01*
X95882516Y-123670908D01*
X95747671Y-123721202D01*
X95747664Y-123721206D01*
X95632457Y-123807451D01*
X95632450Y-123807457D01*
X95620013Y-123824072D01*
X95564078Y-123865943D01*
X95494387Y-123870926D01*
X95473301Y-123864324D01*
X95463497Y-123860263D01*
X95463493Y-123860262D01*
X95463488Y-123860260D01*
X95308845Y-123829500D01*
X95308842Y-123829500D01*
X95151158Y-123829500D01*
X95151155Y-123829500D01*
X94996510Y-123860261D01*
X94996498Y-123860264D01*
X94850827Y-123920602D01*
X94850814Y-123920609D01*
X94719711Y-124008210D01*
X94719707Y-124008213D01*
X94608213Y-124119707D01*
X94608210Y-124119711D01*
X94520609Y-124250814D01*
X94520602Y-124250827D01*
X94460264Y-124396498D01*
X94460261Y-124396510D01*
X94429500Y-124551153D01*
X94429500Y-124708846D01*
X94460261Y-124863489D01*
X94460264Y-124863501D01*
X94520602Y-125009172D01*
X94520609Y-125009185D01*
X94608210Y-125140288D01*
X94608213Y-125140292D01*
X94724018Y-125256097D01*
X94722027Y-125258087D01*
X94754580Y-125305831D01*
X94756482Y-125375675D01*
X94720322Y-125435460D01*
X94657580Y-125466204D01*
X94636638Y-125467992D01*
X90229132Y-125469421D01*
X90162086Y-125449758D01*
X90146260Y-125437697D01*
X86916851Y-122538783D01*
X86916850Y-122538782D01*
X86914367Y-122536553D01*
X86877314Y-122499500D01*
X86865477Y-122492665D01*
X86855848Y-122484022D01*
X86855305Y-122483534D01*
X86855302Y-122483533D01*
X86855301Y-122483532D01*
X86808567Y-122459809D01*
X86763186Y-122433608D01*
X86749984Y-122430070D01*
X86738447Y-122424214D01*
X86738445Y-122424212D01*
X86737795Y-122423882D01*
X86737791Y-122423881D01*
X86721487Y-122420441D01*
X86689774Y-122413751D01*
X86683292Y-122412200D01*
X86635893Y-122399500D01*
X86635892Y-122399500D01*
X86622221Y-122399500D01*
X86608844Y-122396678D01*
X86556518Y-122399500D01*
X72223586Y-122399500D01*
X72156547Y-122379815D01*
X72132434Y-122359567D01*
X70172132Y-120234071D01*
X94149499Y-120234071D01*
X94174497Y-120359738D01*
X94174499Y-120359744D01*
X94223533Y-120478124D01*
X94223538Y-120478133D01*
X94294723Y-120584668D01*
X94294726Y-120584672D01*
X94385327Y-120675273D01*
X94385331Y-120675276D01*
X94491866Y-120746461D01*
X94491875Y-120746466D01*
X94494770Y-120747665D01*
X94610256Y-120795501D01*
X94610260Y-120795501D01*
X94610261Y-120795502D01*
X94735928Y-120820500D01*
X94735931Y-120820500D01*
X94864071Y-120820500D01*
X94948615Y-120803682D01*
X94989744Y-120795501D01*
X95108127Y-120746465D01*
X95214669Y-120675276D01*
X95305276Y-120584669D01*
X95376465Y-120478127D01*
X95425501Y-120359744D01*
X95439447Y-120289633D01*
X95450500Y-120234071D01*
X95450500Y-120105928D01*
X95450499Y-120105926D01*
X95443206Y-120069257D01*
X95439604Y-120051153D01*
X99829500Y-120051153D01*
X99829500Y-120208846D01*
X99860261Y-120363489D01*
X99860264Y-120363501D01*
X99920602Y-120509172D01*
X99920609Y-120509185D01*
X100008210Y-120640288D01*
X100008213Y-120640292D01*
X100119707Y-120751786D01*
X100119711Y-120751789D01*
X100250814Y-120839390D01*
X100250827Y-120839397D01*
X100396498Y-120899735D01*
X100396503Y-120899737D01*
X100551153Y-120930499D01*
X100551156Y-120930500D01*
X100551158Y-120930500D01*
X100708844Y-120930500D01*
X100708845Y-120930499D01*
X100863497Y-120899737D01*
X101009179Y-120839394D01*
X101140289Y-120751789D01*
X101251789Y-120640289D01*
X101339394Y-120509179D01*
X101399737Y-120363497D01*
X101414430Y-120289633D01*
X102049500Y-120289633D01*
X102049500Y-120447326D01*
X102080261Y-120601969D01*
X102080264Y-120601981D01*
X102140602Y-120747652D01*
X102140609Y-120747665D01*
X102228210Y-120878768D01*
X102228213Y-120878772D01*
X102339707Y-120990266D01*
X102339711Y-120990269D01*
X102470814Y-121077870D01*
X102470827Y-121077877D01*
X102616498Y-121138215D01*
X102616503Y-121138217D01*
X102771153Y-121168979D01*
X102771156Y-121168980D01*
X102771158Y-121168980D01*
X102928844Y-121168980D01*
X102928845Y-121168979D01*
X103083497Y-121138217D01*
X103229179Y-121077874D01*
X103360289Y-120990269D01*
X103471789Y-120878769D01*
X103559394Y-120747659D01*
X103619737Y-120601977D01*
X103650500Y-120447322D01*
X103650500Y-120289638D01*
X103650500Y-120289635D01*
X103650499Y-120289633D01*
X103639447Y-120234071D01*
X103619737Y-120134983D01*
X103619735Y-120134978D01*
X103559397Y-119989307D01*
X103559390Y-119989294D01*
X103471789Y-119858191D01*
X103471786Y-119858187D01*
X103360292Y-119746693D01*
X103360288Y-119746690D01*
X103229185Y-119659089D01*
X103229172Y-119659082D01*
X103083501Y-119598744D01*
X103083489Y-119598741D01*
X102928845Y-119567980D01*
X102928842Y-119567980D01*
X102771158Y-119567980D01*
X102771155Y-119567980D01*
X102616510Y-119598741D01*
X102616498Y-119598744D01*
X102470827Y-119659082D01*
X102470814Y-119659089D01*
X102339711Y-119746690D01*
X102339707Y-119746693D01*
X102228213Y-119858187D01*
X102228210Y-119858191D01*
X102140609Y-119989294D01*
X102140602Y-119989307D01*
X102080264Y-120134978D01*
X102080261Y-120134990D01*
X102049500Y-120289633D01*
X101414430Y-120289633D01*
X101420453Y-120259354D01*
X101420453Y-120259353D01*
X101430499Y-120208846D01*
X101430500Y-120208844D01*
X101430500Y-120051155D01*
X101430499Y-120051153D01*
X101428380Y-120040500D01*
X101399737Y-119896503D01*
X101361700Y-119804672D01*
X101339397Y-119750827D01*
X101339390Y-119750814D01*
X101251789Y-119619711D01*
X101251786Y-119619707D01*
X101140292Y-119508213D01*
X101140288Y-119508210D01*
X101009185Y-119420609D01*
X101009172Y-119420602D01*
X100863501Y-119360264D01*
X100863489Y-119360261D01*
X100708845Y-119329500D01*
X100708842Y-119329500D01*
X100551158Y-119329500D01*
X100551155Y-119329500D01*
X100396510Y-119360261D01*
X100396498Y-119360264D01*
X100250827Y-119420602D01*
X100250814Y-119420609D01*
X100119711Y-119508210D01*
X100119707Y-119508213D01*
X100008213Y-119619707D01*
X100008210Y-119619711D01*
X99920609Y-119750814D01*
X99920602Y-119750827D01*
X99860264Y-119896498D01*
X99860261Y-119896510D01*
X99829500Y-120051153D01*
X95439604Y-120051153D01*
X95427300Y-119989301D01*
X95425501Y-119980256D01*
X95376465Y-119861873D01*
X95376464Y-119861872D01*
X95376461Y-119861866D01*
X95305276Y-119755331D01*
X95305273Y-119755327D01*
X95214672Y-119664726D01*
X95214668Y-119664723D01*
X95108133Y-119593538D01*
X95108124Y-119593533D01*
X94989744Y-119544499D01*
X94989738Y-119544497D01*
X94864071Y-119519500D01*
X94864069Y-119519500D01*
X94735931Y-119519500D01*
X94735929Y-119519500D01*
X94610261Y-119544497D01*
X94610255Y-119544499D01*
X94491875Y-119593533D01*
X94491866Y-119593538D01*
X94385331Y-119664723D01*
X94385327Y-119664726D01*
X94294726Y-119755327D01*
X94294723Y-119755331D01*
X94223538Y-119861866D01*
X94223533Y-119861875D01*
X94174499Y-119980255D01*
X94174497Y-119980261D01*
X94149500Y-120105928D01*
X94149500Y-120105931D01*
X94149500Y-120234069D01*
X94149500Y-120234071D01*
X94149499Y-120234071D01*
X70172132Y-120234071D01*
X70125866Y-120183906D01*
X68923348Y-118880052D01*
X68892368Y-118817427D01*
X68890500Y-118795985D01*
X68890500Y-118061153D01*
X86419500Y-118061153D01*
X86419500Y-118218846D01*
X86450261Y-118373489D01*
X86450264Y-118373501D01*
X86510602Y-118519172D01*
X86510609Y-118519185D01*
X86598210Y-118650288D01*
X86598213Y-118650292D01*
X86709707Y-118761786D01*
X86709711Y-118761789D01*
X86840814Y-118849390D01*
X86840827Y-118849397D01*
X86927441Y-118885273D01*
X86986503Y-118909737D01*
X87111839Y-118934668D01*
X87141153Y-118940499D01*
X87141156Y-118940500D01*
X87141158Y-118940500D01*
X87298844Y-118940500D01*
X87298845Y-118940499D01*
X87453497Y-118909737D01*
X87566698Y-118862847D01*
X87636164Y-118855379D01*
X87698643Y-118886654D01*
X87717250Y-118908518D01*
X87734723Y-118934668D01*
X87734726Y-118934672D01*
X87825327Y-119025273D01*
X87825331Y-119025276D01*
X87931866Y-119096461D01*
X87931872Y-119096464D01*
X87931873Y-119096465D01*
X88050256Y-119145501D01*
X88050260Y-119145501D01*
X88050261Y-119145502D01*
X88175928Y-119170500D01*
X88175931Y-119170500D01*
X88304071Y-119170500D01*
X88388615Y-119153682D01*
X88429744Y-119145501D01*
X88548127Y-119096465D01*
X88654669Y-119025276D01*
X88745276Y-118934669D01*
X88816465Y-118828127D01*
X88865501Y-118709744D01*
X88880071Y-118636498D01*
X88890500Y-118584071D01*
X88890500Y-118531153D01*
X89189500Y-118531153D01*
X89189500Y-118688846D01*
X89220261Y-118843489D01*
X89220264Y-118843501D01*
X89280602Y-118989172D01*
X89280609Y-118989185D01*
X89368210Y-119120288D01*
X89368213Y-119120292D01*
X89479707Y-119231786D01*
X89479711Y-119231789D01*
X89610814Y-119319390D01*
X89610827Y-119319397D01*
X89756498Y-119379735D01*
X89756503Y-119379737D01*
X89911153Y-119410499D01*
X89911156Y-119410500D01*
X89911158Y-119410500D01*
X90068844Y-119410500D01*
X90068845Y-119410499D01*
X90223497Y-119379737D01*
X90353397Y-119325931D01*
X90369172Y-119319397D01*
X90369172Y-119319396D01*
X90369179Y-119319394D01*
X90500289Y-119231789D01*
X90611789Y-119120289D01*
X90699394Y-118989179D01*
X90759737Y-118843497D01*
X90790500Y-118688842D01*
X90790500Y-118652352D01*
X90810185Y-118585313D01*
X90862989Y-118539558D01*
X90932147Y-118529614D01*
X90995703Y-118558639D01*
X91029061Y-118604900D01*
X91063531Y-118688120D01*
X91063538Y-118688133D01*
X91134723Y-118794668D01*
X91134726Y-118794672D01*
X91225327Y-118885273D01*
X91225331Y-118885276D01*
X91331866Y-118956461D01*
X91331872Y-118956464D01*
X91331873Y-118956465D01*
X91450256Y-119005501D01*
X91450260Y-119005501D01*
X91450261Y-119005502D01*
X91575928Y-119030500D01*
X91575931Y-119030500D01*
X91704071Y-119030500D01*
X91788615Y-119013682D01*
X91829744Y-119005501D01*
X91948127Y-118956465D01*
X92054669Y-118885276D01*
X92145276Y-118794669D01*
X92216465Y-118688127D01*
X92265501Y-118569744D01*
X92265502Y-118569734D01*
X92265636Y-118569298D01*
X92265770Y-118569092D01*
X92267832Y-118564116D01*
X92268775Y-118564506D01*
X92303930Y-118510858D01*
X92367741Y-118482398D01*
X92436809Y-118492955D01*
X92489205Y-118539177D01*
X92505915Y-118581096D01*
X92530261Y-118703491D01*
X92530264Y-118703501D01*
X92590602Y-118849172D01*
X92590609Y-118849185D01*
X92678210Y-118980288D01*
X92678213Y-118980292D01*
X92789707Y-119091786D01*
X92789711Y-119091789D01*
X92920814Y-119179390D01*
X92920827Y-119179397D01*
X93066498Y-119239735D01*
X93066503Y-119239737D01*
X93221153Y-119270499D01*
X93221156Y-119270500D01*
X93221158Y-119270500D01*
X93378844Y-119270500D01*
X93378845Y-119270499D01*
X93533497Y-119239737D01*
X93679179Y-119179394D01*
X93810289Y-119091789D01*
X93921789Y-118980289D01*
X94009394Y-118849179D01*
X94018112Y-118828133D01*
X94025165Y-118811104D01*
X94069737Y-118703497D01*
X94100040Y-118551153D01*
X95669500Y-118551153D01*
X95669500Y-118708846D01*
X95700261Y-118863489D01*
X95700264Y-118863501D01*
X95760602Y-119009172D01*
X95760609Y-119009185D01*
X95848210Y-119140288D01*
X95848213Y-119140292D01*
X95959707Y-119251786D01*
X95959711Y-119251789D01*
X96090814Y-119339390D01*
X96090827Y-119339397D01*
X96189558Y-119380292D01*
X96236503Y-119399737D01*
X96391153Y-119430499D01*
X96391156Y-119430500D01*
X96391158Y-119430500D01*
X96548844Y-119430500D01*
X96548845Y-119430499D01*
X96703497Y-119399737D01*
X96849179Y-119339394D01*
X96980289Y-119251789D01*
X97091789Y-119140289D01*
X97179394Y-119009179D01*
X97180918Y-119005501D01*
X97201230Y-118956461D01*
X97239737Y-118863497D01*
X97243717Y-118843489D01*
X97254128Y-118791153D01*
X105609500Y-118791153D01*
X105609500Y-118948846D01*
X105640261Y-119103489D01*
X105640264Y-119103501D01*
X105700602Y-119249172D01*
X105700609Y-119249185D01*
X105788210Y-119380288D01*
X105788213Y-119380292D01*
X105899707Y-119491786D01*
X105899711Y-119491789D01*
X106030814Y-119579390D01*
X106030827Y-119579397D01*
X106176498Y-119639735D01*
X106176503Y-119639737D01*
X106331153Y-119670499D01*
X106331156Y-119670500D01*
X106331158Y-119670500D01*
X106488844Y-119670500D01*
X106488845Y-119670499D01*
X106643497Y-119639737D01*
X106789179Y-119579394D01*
X106920289Y-119491789D01*
X106958007Y-119454071D01*
X117069499Y-119454071D01*
X117094497Y-119579738D01*
X117094499Y-119579744D01*
X117143533Y-119698124D01*
X117143538Y-119698133D01*
X117214723Y-119804668D01*
X117214726Y-119804672D01*
X117305327Y-119895273D01*
X117305331Y-119895276D01*
X117411866Y-119966461D01*
X117411872Y-119966464D01*
X117411873Y-119966465D01*
X117530256Y-120015501D01*
X117530260Y-120015501D01*
X117530261Y-120015502D01*
X117655928Y-120040500D01*
X117655931Y-120040500D01*
X117784071Y-120040500D01*
X117868615Y-120023682D01*
X117909744Y-120015501D01*
X118028127Y-119966465D01*
X118134669Y-119895276D01*
X118225276Y-119804669D01*
X118296465Y-119698127D01*
X118345501Y-119579744D01*
X118359730Y-119508211D01*
X118370500Y-119454071D01*
X118370500Y-119325928D01*
X118345502Y-119200261D01*
X118345501Y-119200260D01*
X118345501Y-119200256D01*
X118296465Y-119081873D01*
X118296464Y-119081872D01*
X118296461Y-119081866D01*
X118225276Y-118975331D01*
X118225273Y-118975327D01*
X118134672Y-118884726D01*
X118134668Y-118884723D01*
X118028133Y-118813538D01*
X118028124Y-118813533D01*
X117909744Y-118764499D01*
X117909738Y-118764497D01*
X117784071Y-118739500D01*
X117784069Y-118739500D01*
X117655931Y-118739500D01*
X117655929Y-118739500D01*
X117530261Y-118764497D01*
X117530255Y-118764499D01*
X117411875Y-118813533D01*
X117411866Y-118813538D01*
X117305331Y-118884723D01*
X117305327Y-118884726D01*
X117214726Y-118975327D01*
X117214723Y-118975331D01*
X117143538Y-119081866D01*
X117143533Y-119081875D01*
X117094499Y-119200255D01*
X117094497Y-119200261D01*
X117069500Y-119325928D01*
X117069500Y-119325931D01*
X117069500Y-119454069D01*
X117069500Y-119454071D01*
X117069499Y-119454071D01*
X106958007Y-119454071D01*
X107031789Y-119380289D01*
X107072478Y-119319394D01*
X107118213Y-119250948D01*
X107118925Y-119249880D01*
X107119394Y-119249179D01*
X107179737Y-119103497D01*
X107210500Y-118948842D01*
X107210500Y-118791158D01*
X107210500Y-118791155D01*
X107210499Y-118791153D01*
X107204658Y-118761789D01*
X107179737Y-118636503D01*
X107158019Y-118584071D01*
X107119397Y-118490827D01*
X107119390Y-118490814D01*
X107031789Y-118359711D01*
X107031786Y-118359707D01*
X106920292Y-118248213D01*
X106920288Y-118248210D01*
X106789185Y-118160609D01*
X106789172Y-118160602D01*
X106643501Y-118100264D01*
X106643489Y-118100261D01*
X106488845Y-118069500D01*
X106488842Y-118069500D01*
X106331158Y-118069500D01*
X106331155Y-118069500D01*
X106176510Y-118100261D01*
X106176498Y-118100264D01*
X106030827Y-118160602D01*
X106030814Y-118160609D01*
X105899711Y-118248210D01*
X105899707Y-118248213D01*
X105788213Y-118359707D01*
X105788210Y-118359711D01*
X105700609Y-118490814D01*
X105700602Y-118490827D01*
X105640264Y-118636498D01*
X105640261Y-118636510D01*
X105609500Y-118791153D01*
X97254128Y-118791153D01*
X97260151Y-118760874D01*
X97260151Y-118760873D01*
X97268106Y-118720877D01*
X97270500Y-118708842D01*
X97270500Y-118551158D01*
X97270500Y-118551155D01*
X97270499Y-118551153D01*
X97264139Y-118519179D01*
X97239737Y-118396503D01*
X97230208Y-118373497D01*
X97179397Y-118250827D01*
X97179390Y-118250814D01*
X97091789Y-118119711D01*
X97091786Y-118119707D01*
X96980292Y-118008213D01*
X96980288Y-118008210D01*
X96849185Y-117920609D01*
X96849172Y-117920602D01*
X96703501Y-117860264D01*
X96703489Y-117860261D01*
X96548845Y-117829500D01*
X96548842Y-117829500D01*
X96391158Y-117829500D01*
X96391155Y-117829500D01*
X96236510Y-117860261D01*
X96236498Y-117860264D01*
X96090827Y-117920602D01*
X96090814Y-117920609D01*
X95959711Y-118008210D01*
X95959707Y-118008213D01*
X95848213Y-118119707D01*
X95848210Y-118119711D01*
X95760609Y-118250814D01*
X95760602Y-118250827D01*
X95700264Y-118396498D01*
X95700261Y-118396510D01*
X95669500Y-118551153D01*
X94100040Y-118551153D01*
X94100500Y-118548842D01*
X94100500Y-118391158D01*
X94100500Y-118391155D01*
X94100499Y-118391153D01*
X94088386Y-118330256D01*
X94069737Y-118236503D01*
X94067386Y-118230827D01*
X94009397Y-118090827D01*
X94009390Y-118090814D01*
X93921789Y-117959711D01*
X93921786Y-117959707D01*
X93810292Y-117848213D01*
X93810288Y-117848210D01*
X93679185Y-117760609D01*
X93679172Y-117760602D01*
X93533501Y-117700264D01*
X93533489Y-117700261D01*
X93378845Y-117669500D01*
X93378842Y-117669500D01*
X93221158Y-117669500D01*
X93221155Y-117669500D01*
X93066510Y-117700261D01*
X93066498Y-117700264D01*
X92920827Y-117760602D01*
X92920814Y-117760609D01*
X92789711Y-117848210D01*
X92789707Y-117848213D01*
X92678213Y-117959707D01*
X92678210Y-117959711D01*
X92590609Y-118090814D01*
X92590602Y-118090827D01*
X92530264Y-118236498D01*
X92530262Y-118236506D01*
X92524098Y-118267492D01*
X92491711Y-118329403D01*
X92430994Y-118363975D01*
X92361225Y-118360234D01*
X92304554Y-118319366D01*
X92280864Y-118267489D01*
X92269801Y-118211873D01*
X92265501Y-118190256D01*
X92216465Y-118071873D01*
X92216464Y-118071872D01*
X92216461Y-118071866D01*
X92145276Y-117965331D01*
X92145273Y-117965327D01*
X92054672Y-117874726D01*
X92054668Y-117874723D01*
X91948133Y-117803538D01*
X91948124Y-117803533D01*
X91829744Y-117754499D01*
X91829738Y-117754497D01*
X91704071Y-117729500D01*
X91704069Y-117729500D01*
X91575931Y-117729500D01*
X91575929Y-117729500D01*
X91450261Y-117754497D01*
X91450255Y-117754499D01*
X91331875Y-117803533D01*
X91331866Y-117803538D01*
X91225331Y-117874723D01*
X91225327Y-117874726D01*
X91134726Y-117965327D01*
X91134723Y-117965331D01*
X91063538Y-118071866D01*
X91063533Y-118071875D01*
X91014499Y-118190255D01*
X91014497Y-118190261D01*
X90989500Y-118315925D01*
X90989064Y-118320357D01*
X90962901Y-118385143D01*
X90905865Y-118425500D01*
X90836065Y-118428615D01*
X90775661Y-118393499D01*
X90751100Y-118355651D01*
X90699397Y-118230827D01*
X90699390Y-118230814D01*
X90611789Y-118099711D01*
X90611786Y-118099707D01*
X90500292Y-117988213D01*
X90500288Y-117988210D01*
X90369185Y-117900609D01*
X90369172Y-117900602D01*
X90223501Y-117840264D01*
X90223489Y-117840261D01*
X90068845Y-117809500D01*
X90068842Y-117809500D01*
X89911158Y-117809500D01*
X89911155Y-117809500D01*
X89756510Y-117840261D01*
X89756498Y-117840264D01*
X89610827Y-117900602D01*
X89610814Y-117900609D01*
X89479711Y-117988210D01*
X89479707Y-117988213D01*
X89368213Y-118099707D01*
X89368210Y-118099711D01*
X89280609Y-118230814D01*
X89280602Y-118230827D01*
X89220264Y-118376498D01*
X89220261Y-118376510D01*
X89189500Y-118531153D01*
X88890500Y-118531153D01*
X88890500Y-118455928D01*
X88865502Y-118330261D01*
X88865501Y-118330260D01*
X88865501Y-118330256D01*
X88824311Y-118230814D01*
X88816466Y-118211875D01*
X88816461Y-118211866D01*
X88745276Y-118105331D01*
X88745273Y-118105327D01*
X88654672Y-118014726D01*
X88654668Y-118014723D01*
X88548133Y-117943538D01*
X88548124Y-117943533D01*
X88429744Y-117894499D01*
X88429738Y-117894497D01*
X88304071Y-117869500D01*
X88304069Y-117869500D01*
X88175931Y-117869500D01*
X88175928Y-117869500D01*
X88089558Y-117886680D01*
X88019967Y-117880453D01*
X87964789Y-117837590D01*
X87950808Y-117812519D01*
X87929394Y-117760821D01*
X87929390Y-117760814D01*
X87841789Y-117629711D01*
X87841786Y-117629707D01*
X87730292Y-117518213D01*
X87730288Y-117518210D01*
X87610545Y-117438200D01*
X87610496Y-117438168D01*
X87599179Y-117430606D01*
X87599172Y-117430602D01*
X87453501Y-117370264D01*
X87453489Y-117370261D01*
X87307155Y-117341153D01*
X107869500Y-117341153D01*
X107869500Y-117498846D01*
X107900261Y-117653489D01*
X107900264Y-117653501D01*
X107960602Y-117799172D01*
X107960609Y-117799185D01*
X108048210Y-117930288D01*
X108048213Y-117930292D01*
X108159707Y-118041786D01*
X108159711Y-118041789D01*
X108290814Y-118129390D01*
X108290827Y-118129397D01*
X108366181Y-118160609D01*
X108436503Y-118189737D01*
X108582823Y-118218842D01*
X108591153Y-118220499D01*
X108591156Y-118220500D01*
X108591158Y-118220500D01*
X108748844Y-118220500D01*
X108748845Y-118220499D01*
X108903497Y-118189737D01*
X109049179Y-118129394D01*
X109180289Y-118041789D01*
X109291789Y-117930289D01*
X109379394Y-117799179D01*
X109439737Y-117653497D01*
X109470500Y-117498842D01*
X109470500Y-117341158D01*
X109470500Y-117341155D01*
X109470499Y-117341153D01*
X109458173Y-117279185D01*
X109439737Y-117186503D01*
X109439735Y-117186498D01*
X109379397Y-117040827D01*
X109379390Y-117040814D01*
X109291789Y-116909711D01*
X109291786Y-116909707D01*
X109180292Y-116798213D01*
X109180288Y-116798210D01*
X109049185Y-116710609D01*
X109049172Y-116710602D01*
X108903501Y-116650264D01*
X108903489Y-116650261D01*
X108748845Y-116619500D01*
X108748842Y-116619500D01*
X108591158Y-116619500D01*
X108591155Y-116619500D01*
X108436510Y-116650261D01*
X108436498Y-116650264D01*
X108290827Y-116710602D01*
X108290814Y-116710609D01*
X108159711Y-116798210D01*
X108159707Y-116798213D01*
X108048213Y-116909707D01*
X108048210Y-116909711D01*
X107960609Y-117040814D01*
X107960602Y-117040827D01*
X107900264Y-117186498D01*
X107900261Y-117186510D01*
X107869500Y-117341153D01*
X87307155Y-117341153D01*
X87298845Y-117339500D01*
X87298842Y-117339500D01*
X87141158Y-117339500D01*
X87141155Y-117339500D01*
X86986510Y-117370261D01*
X86986498Y-117370264D01*
X86840827Y-117430602D01*
X86840814Y-117430609D01*
X86709711Y-117518210D01*
X86709707Y-117518213D01*
X86598213Y-117629707D01*
X86598210Y-117629711D01*
X86510609Y-117760814D01*
X86510602Y-117760827D01*
X86450264Y-117906498D01*
X86450261Y-117906510D01*
X86419500Y-118061153D01*
X68890500Y-118061153D01*
X68890500Y-116821153D01*
X69239500Y-116821153D01*
X69239500Y-116978846D01*
X69270261Y-117133489D01*
X69270264Y-117133501D01*
X69330602Y-117279172D01*
X69330609Y-117279185D01*
X69418210Y-117410288D01*
X69418213Y-117410292D01*
X69529707Y-117521786D01*
X69529711Y-117521789D01*
X69660814Y-117609390D01*
X69660827Y-117609397D01*
X69805931Y-117669500D01*
X69806503Y-117669737D01*
X69959967Y-117700263D01*
X69961153Y-117700499D01*
X69961156Y-117700500D01*
X69961158Y-117700500D01*
X70118844Y-117700500D01*
X70118845Y-117700499D01*
X70273497Y-117669737D01*
X70419179Y-117609394D01*
X70550289Y-117521789D01*
X70661789Y-117410289D01*
X70749394Y-117279179D01*
X70809737Y-117133497D01*
X70840500Y-116978842D01*
X70840500Y-116821158D01*
X70840500Y-116821155D01*
X70840499Y-116821153D01*
X70835936Y-116798213D01*
X70809737Y-116666503D01*
X70809735Y-116666498D01*
X70800446Y-116644071D01*
X83249499Y-116644071D01*
X83274497Y-116769738D01*
X83274499Y-116769744D01*
X83323533Y-116888124D01*
X83323538Y-116888133D01*
X83394723Y-116994668D01*
X83394726Y-116994672D01*
X83485327Y-117085273D01*
X83485331Y-117085276D01*
X83591866Y-117156461D01*
X83591872Y-117156464D01*
X83591873Y-117156465D01*
X83710256Y-117205501D01*
X83710260Y-117205501D01*
X83710261Y-117205502D01*
X83835928Y-117230500D01*
X83835931Y-117230500D01*
X83964071Y-117230500D01*
X84048615Y-117213682D01*
X84089744Y-117205501D01*
X84208127Y-117156465D01*
X84314669Y-117085276D01*
X84405276Y-116994669D01*
X84476465Y-116888127D01*
X84525501Y-116769744D01*
X84546036Y-116666510D01*
X84550500Y-116644071D01*
X84550500Y-116515928D01*
X84525502Y-116390261D01*
X84525501Y-116390260D01*
X84525501Y-116390256D01*
X84476465Y-116271873D01*
X84476464Y-116271872D01*
X84476461Y-116271866D01*
X84405276Y-116165331D01*
X84405273Y-116165327D01*
X84314672Y-116074726D01*
X84314668Y-116074723D01*
X84208133Y-116003538D01*
X84208124Y-116003533D01*
X84089744Y-115954499D01*
X84089738Y-115954497D01*
X83964071Y-115929500D01*
X83964069Y-115929500D01*
X83835931Y-115929500D01*
X83835929Y-115929500D01*
X83710261Y-115954497D01*
X83710255Y-115954499D01*
X83591875Y-116003533D01*
X83591866Y-116003538D01*
X83485331Y-116074723D01*
X83485327Y-116074726D01*
X83394726Y-116165327D01*
X83394723Y-116165331D01*
X83323538Y-116271866D01*
X83323533Y-116271875D01*
X83274499Y-116390255D01*
X83274497Y-116390261D01*
X83249500Y-116515928D01*
X83249500Y-116515931D01*
X83249500Y-116644069D01*
X83249500Y-116644071D01*
X83249499Y-116644071D01*
X70800446Y-116644071D01*
X70764501Y-116557291D01*
X70749395Y-116520824D01*
X70749394Y-116520821D01*
X70749392Y-116520818D01*
X70749390Y-116520814D01*
X70661789Y-116389711D01*
X70661786Y-116389707D01*
X70550292Y-116278213D01*
X70550288Y-116278210D01*
X70419185Y-116190609D01*
X70419172Y-116190602D01*
X70273501Y-116130264D01*
X70273489Y-116130261D01*
X70118845Y-116099500D01*
X70118842Y-116099500D01*
X69961158Y-116099500D01*
X69961155Y-116099500D01*
X69806510Y-116130261D01*
X69806498Y-116130264D01*
X69660827Y-116190602D01*
X69660814Y-116190609D01*
X69529711Y-116278210D01*
X69529707Y-116278213D01*
X69418213Y-116389707D01*
X69418210Y-116389711D01*
X69330609Y-116520814D01*
X69330602Y-116520827D01*
X69270264Y-116666498D01*
X69270261Y-116666510D01*
X69239500Y-116821153D01*
X68890500Y-116821153D01*
X68890500Y-115061153D01*
X95629500Y-115061153D01*
X95629500Y-115218846D01*
X95660261Y-115373489D01*
X95660264Y-115373501D01*
X95720602Y-115519172D01*
X95720609Y-115519185D01*
X95808210Y-115650288D01*
X95808213Y-115650292D01*
X95919707Y-115761786D01*
X95919711Y-115761789D01*
X96050814Y-115849390D01*
X96050827Y-115849397D01*
X96187732Y-115906104D01*
X96196503Y-115909737D01*
X96295858Y-115929500D01*
X96351153Y-115940499D01*
X96351156Y-115940500D01*
X96351158Y-115940500D01*
X96508844Y-115940500D01*
X96508845Y-115940499D01*
X96663497Y-115909737D01*
X96809179Y-115849394D01*
X96940289Y-115761789D01*
X97051789Y-115650289D01*
X97139394Y-115519179D01*
X97199737Y-115373497D01*
X97230500Y-115218842D01*
X97230500Y-115061158D01*
X97230500Y-115061155D01*
X97230499Y-115061153D01*
X97229090Y-115054069D01*
X97199737Y-114906503D01*
X97178612Y-114855502D01*
X97139397Y-114760827D01*
X97139390Y-114760814D01*
X97051789Y-114629711D01*
X97051786Y-114629707D01*
X96940292Y-114518213D01*
X96940288Y-114518210D01*
X96809185Y-114430609D01*
X96809172Y-114430602D01*
X96663501Y-114370264D01*
X96663489Y-114370261D01*
X96508845Y-114339500D01*
X96508842Y-114339500D01*
X96351158Y-114339500D01*
X96351155Y-114339500D01*
X96196510Y-114370261D01*
X96196498Y-114370264D01*
X96050827Y-114430602D01*
X96050814Y-114430609D01*
X95919711Y-114518210D01*
X95919707Y-114518213D01*
X95808213Y-114629707D01*
X95808210Y-114629711D01*
X95720609Y-114760814D01*
X95720602Y-114760827D01*
X95660264Y-114906498D01*
X95660261Y-114906510D01*
X95629500Y-115061153D01*
X68890500Y-115061153D01*
X68890500Y-113531153D01*
X91379500Y-113531153D01*
X91379500Y-113688846D01*
X91410261Y-113843489D01*
X91410264Y-113843501D01*
X91470602Y-113989172D01*
X91470609Y-113989185D01*
X91558210Y-114120288D01*
X91558213Y-114120292D01*
X91669707Y-114231786D01*
X91669711Y-114231789D01*
X91800814Y-114319390D01*
X91800827Y-114319397D01*
X91923633Y-114370264D01*
X91946503Y-114379737D01*
X92101153Y-114410499D01*
X92101156Y-114410500D01*
X92101158Y-114410500D01*
X92258844Y-114410500D01*
X92258845Y-114410499D01*
X92413497Y-114379737D01*
X92559179Y-114319394D01*
X92690289Y-114231789D01*
X92801789Y-114120289D01*
X92889394Y-113989179D01*
X92949737Y-113843497D01*
X92980500Y-113688842D01*
X92980500Y-113531158D01*
X92980500Y-113531155D01*
X92980499Y-113531153D01*
X92966509Y-113460821D01*
X92949737Y-113376503D01*
X92937861Y-113347831D01*
X92889397Y-113230827D01*
X92889390Y-113230814D01*
X92801789Y-113099711D01*
X92801786Y-113099707D01*
X92690292Y-112988213D01*
X92690288Y-112988210D01*
X92559185Y-112900609D01*
X92559172Y-112900602D01*
X92413501Y-112840264D01*
X92413489Y-112840261D01*
X92258845Y-112809500D01*
X92258842Y-112809500D01*
X92101158Y-112809500D01*
X92101155Y-112809500D01*
X91946510Y-112840261D01*
X91946498Y-112840264D01*
X91800827Y-112900602D01*
X91800814Y-112900609D01*
X91669711Y-112988210D01*
X91669707Y-112988213D01*
X91558213Y-113099707D01*
X91558210Y-113099711D01*
X91470609Y-113230814D01*
X91470602Y-113230827D01*
X91410264Y-113376498D01*
X91410261Y-113376510D01*
X91379500Y-113531153D01*
X68890500Y-113531153D01*
X68890500Y-112191153D01*
X93189500Y-112191153D01*
X93189500Y-112348846D01*
X93220261Y-112503489D01*
X93220264Y-112503501D01*
X93280602Y-112649172D01*
X93280609Y-112649185D01*
X93368210Y-112780288D01*
X93368213Y-112780292D01*
X93479707Y-112891786D01*
X93479711Y-112891789D01*
X93610814Y-112979390D01*
X93610827Y-112979397D01*
X93747954Y-113036196D01*
X93756503Y-113039737D01*
X93909962Y-113070262D01*
X93911153Y-113070499D01*
X93911156Y-113070500D01*
X93911158Y-113070500D01*
X94068844Y-113070500D01*
X94068845Y-113070499D01*
X94223497Y-113039737D01*
X94369179Y-112979394D01*
X94500289Y-112891789D01*
X94611789Y-112780289D01*
X94699394Y-112649179D01*
X94700604Y-112646259D01*
X94723654Y-112590609D01*
X94759737Y-112503497D01*
X94790500Y-112348842D01*
X94790500Y-112191158D01*
X94790500Y-112191155D01*
X94790499Y-112191153D01*
X94784402Y-112160500D01*
X94759737Y-112036503D01*
X94759735Y-112036498D01*
X94699397Y-111890827D01*
X94699390Y-111890814D01*
X94611789Y-111759711D01*
X94611786Y-111759707D01*
X94500292Y-111648213D01*
X94500288Y-111648210D01*
X94369185Y-111560609D01*
X94369172Y-111560602D01*
X94223501Y-111500264D01*
X94223489Y-111500261D01*
X94068845Y-111469500D01*
X94068842Y-111469500D01*
X93911158Y-111469500D01*
X93911155Y-111469500D01*
X93756510Y-111500261D01*
X93756498Y-111500264D01*
X93610827Y-111560602D01*
X93610814Y-111560609D01*
X93479711Y-111648210D01*
X93479707Y-111648213D01*
X93368213Y-111759707D01*
X93368210Y-111759711D01*
X93280609Y-111890814D01*
X93280602Y-111890827D01*
X93220264Y-112036498D01*
X93220261Y-112036510D01*
X93189500Y-112191153D01*
X68890500Y-112191153D01*
X68890500Y-111444071D01*
X84619499Y-111444071D01*
X84644497Y-111569738D01*
X84644499Y-111569744D01*
X84693533Y-111688124D01*
X84693538Y-111688133D01*
X84764723Y-111794668D01*
X84764726Y-111794672D01*
X84855327Y-111885273D01*
X84855331Y-111885276D01*
X84961866Y-111956461D01*
X84961872Y-111956464D01*
X84961873Y-111956465D01*
X85080256Y-112005501D01*
X85080260Y-112005501D01*
X85080261Y-112005502D01*
X85205928Y-112030500D01*
X85205931Y-112030500D01*
X85334071Y-112030500D01*
X85431330Y-112011153D01*
X85459744Y-112005501D01*
X85578127Y-111956465D01*
X85684669Y-111885276D01*
X85775276Y-111794669D01*
X85846465Y-111688127D01*
X85895501Y-111569744D01*
X85909322Y-111500263D01*
X85920500Y-111444071D01*
X85920500Y-111315928D01*
X85895502Y-111190261D01*
X85895501Y-111190260D01*
X85895501Y-111190256D01*
X85850174Y-111080827D01*
X85846466Y-111071875D01*
X85846461Y-111071866D01*
X85775276Y-110965331D01*
X85775273Y-110965327D01*
X85684672Y-110874726D01*
X85684668Y-110874723D01*
X85578133Y-110803538D01*
X85578124Y-110803533D01*
X85459744Y-110754499D01*
X85459738Y-110754497D01*
X85334071Y-110729500D01*
X85334069Y-110729500D01*
X85205931Y-110729500D01*
X85205929Y-110729500D01*
X85080261Y-110754497D01*
X85080255Y-110754499D01*
X84961875Y-110803533D01*
X84961866Y-110803538D01*
X84855331Y-110874723D01*
X84855327Y-110874726D01*
X84764726Y-110965327D01*
X84764723Y-110965331D01*
X84693538Y-111071866D01*
X84693533Y-111071875D01*
X84644499Y-111190255D01*
X84644497Y-111190261D01*
X84619500Y-111315928D01*
X84619500Y-111315931D01*
X84619500Y-111444069D01*
X84619500Y-111444071D01*
X84619499Y-111444071D01*
X68890500Y-111444071D01*
X68890500Y-107793653D01*
X74939500Y-107793653D01*
X74939500Y-107951346D01*
X74970261Y-108105989D01*
X74970264Y-108106001D01*
X75030602Y-108251672D01*
X75030609Y-108251685D01*
X75118210Y-108382788D01*
X75118213Y-108382792D01*
X75229707Y-108494286D01*
X75229711Y-108494289D01*
X75285996Y-108531898D01*
X75330801Y-108585510D01*
X75339508Y-108654835D01*
X75309353Y-108717863D01*
X75285996Y-108738102D01*
X75229711Y-108775710D01*
X75229707Y-108775713D01*
X75118213Y-108887207D01*
X75118210Y-108887211D01*
X75030609Y-109018314D01*
X75030602Y-109018327D01*
X74970264Y-109163998D01*
X74970261Y-109164010D01*
X74939500Y-109318653D01*
X74939500Y-109476346D01*
X74970261Y-109630989D01*
X74970264Y-109631001D01*
X75030602Y-109776672D01*
X75030609Y-109776685D01*
X75118210Y-109907788D01*
X75118213Y-109907792D01*
X75229707Y-110019286D01*
X75229711Y-110019289D01*
X75360814Y-110106890D01*
X75360827Y-110106897D01*
X75506498Y-110167235D01*
X75506503Y-110167237D01*
X75587155Y-110183279D01*
X75613961Y-110188612D01*
X75675872Y-110220997D01*
X75710446Y-110281712D01*
X75711387Y-110286037D01*
X75732761Y-110393491D01*
X75732764Y-110393501D01*
X75793102Y-110539172D01*
X75793109Y-110539185D01*
X75880710Y-110670288D01*
X75880713Y-110670292D01*
X75992207Y-110781786D01*
X75992211Y-110781789D01*
X76123314Y-110869390D01*
X76123327Y-110869397D01*
X76268998Y-110929735D01*
X76269003Y-110929737D01*
X76423653Y-110960499D01*
X76423656Y-110960500D01*
X76423658Y-110960500D01*
X76581344Y-110960500D01*
X76581345Y-110960499D01*
X76735997Y-110929737D01*
X76881679Y-110869394D01*
X77012789Y-110781789D01*
X77124289Y-110670289D01*
X77161898Y-110614003D01*
X77215509Y-110569198D01*
X77284834Y-110560491D01*
X77347862Y-110590645D01*
X77368100Y-110614001D01*
X77390159Y-110647015D01*
X77405712Y-110670291D01*
X77517207Y-110781786D01*
X77517211Y-110781789D01*
X77648314Y-110869390D01*
X77648327Y-110869397D01*
X77793998Y-110929735D01*
X77794003Y-110929737D01*
X77948653Y-110960499D01*
X77948656Y-110960500D01*
X77948658Y-110960500D01*
X78106344Y-110960500D01*
X78106345Y-110960499D01*
X78260997Y-110929737D01*
X78406679Y-110869394D01*
X78537789Y-110781789D01*
X78649289Y-110670289D01*
X78736894Y-110539179D01*
X78797237Y-110393497D01*
X78818612Y-110286037D01*
X78850996Y-110224127D01*
X78911712Y-110189553D01*
X78916038Y-110188612D01*
X79023497Y-110167237D01*
X79169179Y-110106894D01*
X79300289Y-110019289D01*
X79411789Y-109907789D01*
X79462996Y-109831153D01*
X94539500Y-109831153D01*
X94539500Y-109988846D01*
X94570261Y-110143489D01*
X94570264Y-110143501D01*
X94630602Y-110289172D01*
X94630609Y-110289185D01*
X94718210Y-110420288D01*
X94718213Y-110420292D01*
X94829707Y-110531786D01*
X94829711Y-110531789D01*
X94960814Y-110619390D01*
X94960827Y-110619397D01*
X95106498Y-110679735D01*
X95106503Y-110679737D01*
X95261153Y-110710499D01*
X95261156Y-110710500D01*
X95305059Y-110710500D01*
X95372098Y-110730185D01*
X95417853Y-110782989D01*
X95427797Y-110852147D01*
X95408161Y-110903391D01*
X95363109Y-110970814D01*
X95363102Y-110970827D01*
X95302764Y-111116498D01*
X95302761Y-111116510D01*
X95272000Y-111271153D01*
X95272000Y-111428846D01*
X95302761Y-111583489D01*
X95302764Y-111583501D01*
X95363102Y-111729172D01*
X95363109Y-111729185D01*
X95450710Y-111860288D01*
X95450713Y-111860292D01*
X95562207Y-111971786D01*
X95562211Y-111971789D01*
X95693314Y-112059390D01*
X95693327Y-112059397D01*
X95838998Y-112119735D01*
X95839003Y-112119737D01*
X95993653Y-112150499D01*
X95993656Y-112150500D01*
X95993658Y-112150500D01*
X96151344Y-112150500D01*
X96151345Y-112150499D01*
X96305997Y-112119737D01*
X96399148Y-112081153D01*
X96919500Y-112081153D01*
X96919500Y-112238846D01*
X96950261Y-112393489D01*
X96950264Y-112393501D01*
X97010602Y-112539172D01*
X97010609Y-112539185D01*
X97098210Y-112670288D01*
X97098213Y-112670292D01*
X97209707Y-112781786D01*
X97209711Y-112781789D01*
X97340814Y-112869390D01*
X97340827Y-112869397D01*
X97486440Y-112929711D01*
X97486503Y-112929737D01*
X97641153Y-112960499D01*
X97641156Y-112960500D01*
X97641158Y-112960500D01*
X97798844Y-112960500D01*
X97798845Y-112960499D01*
X97953497Y-112929737D01*
X98099179Y-112869394D01*
X98230289Y-112781789D01*
X98281476Y-112730602D01*
X98337319Y-112674760D01*
X98398642Y-112641275D01*
X98468334Y-112646259D01*
X98512681Y-112674760D01*
X98549707Y-112711786D01*
X98549711Y-112711789D01*
X98680814Y-112799390D01*
X98680827Y-112799397D01*
X98807457Y-112851848D01*
X98826503Y-112859737D01*
X98981153Y-112890499D01*
X98981156Y-112890500D01*
X98981158Y-112890500D01*
X99138844Y-112890500D01*
X99138845Y-112890499D01*
X99293497Y-112859737D01*
X99439179Y-112799394D01*
X99439184Y-112799390D01*
X99444554Y-112796521D01*
X99445904Y-112799048D01*
X99500735Y-112781709D01*
X99568168Y-112800002D01*
X99615005Y-112851848D01*
X99626378Y-112920786D01*
X99606404Y-112974572D01*
X99565228Y-113036196D01*
X99565224Y-113036203D01*
X99504819Y-113182036D01*
X99460978Y-113236439D01*
X99394684Y-113258504D01*
X99342806Y-113249144D01*
X99223881Y-113199884D01*
X99223869Y-113199881D01*
X99069225Y-113169120D01*
X99069222Y-113169120D01*
X98911538Y-113169120D01*
X98911535Y-113169120D01*
X98756890Y-113199881D01*
X98756878Y-113199884D01*
X98611207Y-113260222D01*
X98611194Y-113260229D01*
X98480091Y-113347830D01*
X98480087Y-113347833D01*
X98368593Y-113459327D01*
X98368590Y-113459331D01*
X98280989Y-113590434D01*
X98280982Y-113590447D01*
X98220644Y-113736118D01*
X98220641Y-113736130D01*
X98189880Y-113890773D01*
X98189880Y-114048466D01*
X98220641Y-114203109D01*
X98220644Y-114203121D01*
X98280982Y-114348792D01*
X98280989Y-114348805D01*
X98368590Y-114479908D01*
X98368593Y-114479912D01*
X98403432Y-114514751D01*
X98436917Y-114576074D01*
X98431933Y-114645766D01*
X98390061Y-114701699D01*
X98324597Y-114726116D01*
X98315751Y-114726432D01*
X98274224Y-114726432D01*
X98119579Y-114757193D01*
X98119567Y-114757196D01*
X97973896Y-114817534D01*
X97973883Y-114817541D01*
X97842780Y-114905142D01*
X97842776Y-114905145D01*
X97731282Y-115016639D01*
X97731279Y-115016643D01*
X97643678Y-115147746D01*
X97643671Y-115147759D01*
X97583333Y-115293430D01*
X97583330Y-115293442D01*
X97552569Y-115448085D01*
X97552569Y-115605778D01*
X97583330Y-115760421D01*
X97583333Y-115760433D01*
X97643671Y-115906104D01*
X97643678Y-115906117D01*
X97731279Y-116037220D01*
X97731282Y-116037224D01*
X97842776Y-116148718D01*
X97842780Y-116148721D01*
X97973883Y-116236322D01*
X97973896Y-116236329D01*
X98119567Y-116296667D01*
X98119572Y-116296669D01*
X98274222Y-116327431D01*
X98274225Y-116327432D01*
X98274227Y-116327432D01*
X98431913Y-116327432D01*
X98431914Y-116327431D01*
X98586566Y-116296669D01*
X98732248Y-116236326D01*
X98863358Y-116148721D01*
X98974858Y-116037221D01*
X99062463Y-115906111D01*
X99122806Y-115760429D01*
X99153569Y-115605774D01*
X99153569Y-115564250D01*
X99173254Y-115497211D01*
X99226058Y-115451456D01*
X99295216Y-115441512D01*
X99358772Y-115470537D01*
X99365250Y-115476569D01*
X99420087Y-115531406D01*
X99420091Y-115531409D01*
X99551194Y-115619010D01*
X99551207Y-115619017D01*
X99626713Y-115650292D01*
X99696883Y-115679357D01*
X99851533Y-115710119D01*
X99851536Y-115710120D01*
X99851538Y-115710120D01*
X100009224Y-115710120D01*
X100009225Y-115710119D01*
X100163877Y-115679357D01*
X100309559Y-115619014D01*
X100440669Y-115531409D01*
X100552169Y-115419909D01*
X100639774Y-115288799D01*
X100700117Y-115143117D01*
X100730880Y-114988462D01*
X100730880Y-114830778D01*
X100730880Y-114830775D01*
X100730879Y-114830773D01*
X100716966Y-114760827D01*
X100700117Y-114676123D01*
X100672718Y-114609977D01*
X100665250Y-114540509D01*
X100696525Y-114478030D01*
X100756614Y-114442378D01*
X100826439Y-114444872D01*
X100856171Y-114459424D01*
X100990814Y-114549390D01*
X100990827Y-114549397D01*
X101136498Y-114609735D01*
X101136503Y-114609737D01*
X101188114Y-114620003D01*
X101271860Y-114636662D01*
X101333771Y-114669047D01*
X101368346Y-114729763D01*
X101364901Y-114794014D01*
X101366267Y-114794429D01*
X101364497Y-114800261D01*
X101339500Y-114925928D01*
X101339500Y-114925931D01*
X101339500Y-115054069D01*
X101339500Y-115054071D01*
X101339499Y-115054071D01*
X101364497Y-115179738D01*
X101364499Y-115179744D01*
X101413533Y-115298124D01*
X101413538Y-115298133D01*
X101484723Y-115404668D01*
X101484726Y-115404672D01*
X101575327Y-115495273D01*
X101575331Y-115495276D01*
X101681866Y-115566461D01*
X101681872Y-115566464D01*
X101681873Y-115566465D01*
X101800256Y-115615501D01*
X101800260Y-115615501D01*
X101800261Y-115615502D01*
X101925928Y-115640500D01*
X101925931Y-115640500D01*
X102054071Y-115640500D01*
X102162083Y-115619014D01*
X102179744Y-115615501D01*
X102298127Y-115566465D01*
X102404669Y-115495276D01*
X102495276Y-115404669D01*
X102566465Y-115298127D01*
X102615501Y-115179744D01*
X102633253Y-115090500D01*
X102641689Y-115048094D01*
X102642957Y-115048346D01*
X102666607Y-114989764D01*
X102723639Y-114949400D01*
X102793438Y-114946277D01*
X102832747Y-114963595D01*
X102911866Y-115016461D01*
X102911875Y-115016466D01*
X102917911Y-115018966D01*
X103030256Y-115065501D01*
X103030260Y-115065501D01*
X103030261Y-115065502D01*
X103155928Y-115090500D01*
X103240946Y-115090500D01*
X103307985Y-115110185D01*
X103353740Y-115162989D01*
X103363684Y-115232147D01*
X103355507Y-115261953D01*
X103335499Y-115310255D01*
X103335497Y-115310261D01*
X103310500Y-115435928D01*
X103310500Y-115435931D01*
X103310500Y-115564069D01*
X103310500Y-115564071D01*
X103310499Y-115564071D01*
X103335497Y-115689738D01*
X103335499Y-115689744D01*
X103384533Y-115808124D01*
X103384538Y-115808133D01*
X103455723Y-115914668D01*
X103455726Y-115914672D01*
X103546327Y-116005273D01*
X103546331Y-116005276D01*
X103652866Y-116076461D01*
X103652872Y-116076464D01*
X103652873Y-116076465D01*
X103771256Y-116125501D01*
X103771260Y-116125501D01*
X103771261Y-116125502D01*
X103896928Y-116150500D01*
X103896931Y-116150500D01*
X104025071Y-116150500D01*
X104126804Y-116130263D01*
X104150744Y-116125501D01*
X104269127Y-116076465D01*
X104375669Y-116005276D01*
X104466276Y-115914669D01*
X104537465Y-115808127D01*
X104586501Y-115689744D01*
X104600570Y-115619017D01*
X104611500Y-115564071D01*
X104611500Y-115435928D01*
X104586502Y-115310261D01*
X104586501Y-115310260D01*
X104586501Y-115310256D01*
X104537465Y-115191873D01*
X104537464Y-115191872D01*
X104537461Y-115191866D01*
X104466276Y-115085331D01*
X104466273Y-115085327D01*
X104375672Y-114994726D01*
X104375668Y-114994723D01*
X104269133Y-114923538D01*
X104269124Y-114923533D01*
X104150744Y-114874499D01*
X104150738Y-114874497D01*
X104025071Y-114849500D01*
X104025069Y-114849500D01*
X103940054Y-114849500D01*
X103873015Y-114829815D01*
X103827260Y-114777011D01*
X103817316Y-114707853D01*
X103825493Y-114678047D01*
X103826290Y-114676123D01*
X103845501Y-114629744D01*
X103857437Y-114569738D01*
X103870500Y-114504071D01*
X103870500Y-114444071D01*
X106681499Y-114444071D01*
X106706497Y-114569738D01*
X106706499Y-114569744D01*
X106755533Y-114688124D01*
X106755538Y-114688133D01*
X106826723Y-114794668D01*
X106826726Y-114794672D01*
X106917327Y-114885273D01*
X106917331Y-114885276D01*
X107023866Y-114956461D01*
X107023872Y-114956464D01*
X107023873Y-114956465D01*
X107142256Y-115005501D01*
X107142260Y-115005501D01*
X107142261Y-115005502D01*
X107267928Y-115030500D01*
X107267931Y-115030500D01*
X107396071Y-115030500D01*
X107480615Y-115013682D01*
X107521744Y-115005501D01*
X107640127Y-114956465D01*
X107746669Y-114885276D01*
X107837276Y-114794669D01*
X107841515Y-114788324D01*
X107895120Y-114743517D01*
X107964444Y-114734803D01*
X108013512Y-114754106D01*
X108091866Y-114806461D01*
X108091872Y-114806464D01*
X108091873Y-114806465D01*
X108210256Y-114855501D01*
X108210260Y-114855501D01*
X108210261Y-114855502D01*
X108335928Y-114880500D01*
X108335931Y-114880500D01*
X108464071Y-114880500D01*
X108548615Y-114863682D01*
X108589744Y-114855501D01*
X108708127Y-114806465D01*
X108814669Y-114735276D01*
X108905276Y-114644669D01*
X108976465Y-114538127D01*
X109025501Y-114419744D01*
X109036184Y-114366037D01*
X109050500Y-114294071D01*
X109050500Y-114165928D01*
X109025502Y-114040261D01*
X109025501Y-114040260D01*
X109025501Y-114040256D01*
X108976465Y-113921873D01*
X108976464Y-113921872D01*
X108976461Y-113921866D01*
X108905276Y-113815331D01*
X108905273Y-113815327D01*
X108814672Y-113724726D01*
X108814668Y-113724723D01*
X108708133Y-113653538D01*
X108708124Y-113653533D01*
X108589744Y-113604499D01*
X108589738Y-113604497D01*
X108464071Y-113579500D01*
X108464069Y-113579500D01*
X108335931Y-113579500D01*
X108335929Y-113579500D01*
X108210261Y-113604497D01*
X108210255Y-113604499D01*
X108091875Y-113653533D01*
X108091866Y-113653538D01*
X107985331Y-113724723D01*
X107985327Y-113724726D01*
X107894726Y-113815327D01*
X107894723Y-113815331D01*
X107890480Y-113821682D01*
X107836867Y-113866487D01*
X107767542Y-113875194D01*
X107718487Y-113855893D01*
X107640133Y-113803538D01*
X107640124Y-113803533D01*
X107521744Y-113754499D01*
X107521738Y-113754497D01*
X107396071Y-113729500D01*
X107396069Y-113729500D01*
X107267931Y-113729500D01*
X107267929Y-113729500D01*
X107142261Y-113754497D01*
X107142255Y-113754499D01*
X107023875Y-113803533D01*
X107023866Y-113803538D01*
X106917331Y-113874723D01*
X106917327Y-113874726D01*
X106826726Y-113965327D01*
X106826723Y-113965331D01*
X106755538Y-114071866D01*
X106755533Y-114071875D01*
X106706499Y-114190255D01*
X106706497Y-114190261D01*
X106681500Y-114315928D01*
X106681500Y-114315931D01*
X106681500Y-114444069D01*
X106681500Y-114444071D01*
X106681499Y-114444071D01*
X103870500Y-114444071D01*
X103870500Y-114375928D01*
X103870499Y-114375926D01*
X103862166Y-114334030D01*
X103845502Y-114250261D01*
X103845501Y-114250260D01*
X103845501Y-114250256D01*
X103803724Y-114149397D01*
X103796466Y-114131875D01*
X103796461Y-114131866D01*
X103725276Y-114025331D01*
X103725273Y-114025327D01*
X103634672Y-113934726D01*
X103634668Y-113934723D01*
X103528133Y-113863538D01*
X103528124Y-113863533D01*
X103409744Y-113814499D01*
X103409738Y-113814497D01*
X103284071Y-113789500D01*
X103284069Y-113789500D01*
X103155931Y-113789500D01*
X103155929Y-113789500D01*
X103030261Y-113814497D01*
X103030255Y-113814499D01*
X102911875Y-113863533D01*
X102911866Y-113863538D01*
X102805331Y-113934723D01*
X102805327Y-113934726D01*
X102714726Y-114025327D01*
X102714723Y-114025331D01*
X102643538Y-114131866D01*
X102643533Y-114131875D01*
X102594499Y-114250255D01*
X102594497Y-114250261D01*
X102568311Y-114381906D01*
X102567046Y-114381654D01*
X102543377Y-114440254D01*
X102486338Y-114480607D01*
X102416537Y-114483716D01*
X102377252Y-114466404D01*
X102298133Y-114413538D01*
X102298124Y-114413533D01*
X102179744Y-114364499D01*
X102179734Y-114364496D01*
X102179607Y-114364471D01*
X102179546Y-114364439D01*
X102173912Y-114362730D01*
X102174236Y-114361661D01*
X102117697Y-114332084D01*
X102083125Y-114271367D01*
X102086868Y-114201598D01*
X102089233Y-114195423D01*
X102139737Y-114073497D01*
X102170500Y-113918842D01*
X102170500Y-113761158D01*
X102170500Y-113761155D01*
X102170499Y-113761153D01*
X102163253Y-113724724D01*
X102139737Y-113606503D01*
X102138906Y-113604497D01*
X102079397Y-113460827D01*
X102079390Y-113460814D01*
X102054763Y-113423957D01*
X102012798Y-113361153D01*
X110849500Y-113361153D01*
X110849500Y-113518846D01*
X110880261Y-113673489D01*
X110880264Y-113673501D01*
X110940602Y-113819172D01*
X110940609Y-113819185D01*
X111028210Y-113950288D01*
X111028213Y-113950292D01*
X111139707Y-114061786D01*
X111139711Y-114061789D01*
X111270814Y-114149390D01*
X111270827Y-114149397D01*
X111416498Y-114209735D01*
X111416503Y-114209737D01*
X111571153Y-114240499D01*
X111571156Y-114240500D01*
X111571158Y-114240500D01*
X111728844Y-114240500D01*
X111728845Y-114240499D01*
X111883497Y-114209737D01*
X112029179Y-114149394D01*
X112160289Y-114061789D01*
X112271789Y-113950289D01*
X112359394Y-113819179D01*
X112419737Y-113673497D01*
X112450500Y-113518842D01*
X112450500Y-113361158D01*
X112450500Y-113361155D01*
X112450499Y-113361153D01*
X112426253Y-113239257D01*
X112422651Y-113221153D01*
X116829500Y-113221153D01*
X116829500Y-113378846D01*
X116860261Y-113533489D01*
X116860264Y-113533501D01*
X116920602Y-113679172D01*
X116920609Y-113679185D01*
X117008210Y-113810288D01*
X117008213Y-113810292D01*
X117119707Y-113921786D01*
X117119711Y-113921789D01*
X117250814Y-114009390D01*
X117250827Y-114009397D01*
X117396498Y-114069735D01*
X117396503Y-114069737D01*
X117496024Y-114089533D01*
X117551153Y-114100499D01*
X117551156Y-114100500D01*
X117551158Y-114100500D01*
X117708844Y-114100500D01*
X117708845Y-114100499D01*
X117863497Y-114069737D01*
X117991188Y-114016846D01*
X118009172Y-114009397D01*
X118009172Y-114009396D01*
X118009179Y-114009394D01*
X118140289Y-113921789D01*
X118251789Y-113810289D01*
X118339394Y-113679179D01*
X118399737Y-113533497D01*
X118430500Y-113378842D01*
X118430500Y-113221158D01*
X118430500Y-113221155D01*
X118430499Y-113221153D01*
X118420149Y-113169120D01*
X118399737Y-113066503D01*
X118397386Y-113060827D01*
X118339397Y-112920827D01*
X118339390Y-112920814D01*
X118251789Y-112789711D01*
X118251786Y-112789707D01*
X118140292Y-112678213D01*
X118140288Y-112678210D01*
X118009185Y-112590609D01*
X118009172Y-112590602D01*
X117863501Y-112530264D01*
X117863489Y-112530261D01*
X117708845Y-112499500D01*
X117708842Y-112499500D01*
X117551158Y-112499500D01*
X117551155Y-112499500D01*
X117396510Y-112530261D01*
X117396498Y-112530264D01*
X117250827Y-112590602D01*
X117250814Y-112590609D01*
X117119711Y-112678210D01*
X117119707Y-112678213D01*
X117008213Y-112789707D01*
X117008210Y-112789711D01*
X116920609Y-112920814D01*
X116920602Y-112920827D01*
X116860264Y-113066498D01*
X116860261Y-113066510D01*
X116829500Y-113221153D01*
X112422651Y-113221153D01*
X112419738Y-113206508D01*
X112419737Y-113206507D01*
X112419737Y-113206503D01*
X112375501Y-113099707D01*
X112359397Y-113060827D01*
X112359390Y-113060814D01*
X112271789Y-112929711D01*
X112271786Y-112929707D01*
X112160292Y-112818213D01*
X112160288Y-112818210D01*
X112029185Y-112730609D01*
X112029172Y-112730602D01*
X111883501Y-112670264D01*
X111883489Y-112670261D01*
X111728845Y-112639500D01*
X111728842Y-112639500D01*
X111571158Y-112639500D01*
X111571155Y-112639500D01*
X111416510Y-112670261D01*
X111416498Y-112670264D01*
X111270827Y-112730602D01*
X111270814Y-112730609D01*
X111139711Y-112818210D01*
X111139707Y-112818213D01*
X111028213Y-112929707D01*
X111028210Y-112929711D01*
X110940609Y-113060814D01*
X110940602Y-113060827D01*
X110880264Y-113206498D01*
X110880261Y-113206510D01*
X110849500Y-113361153D01*
X102012798Y-113361153D01*
X101991789Y-113329711D01*
X101991786Y-113329707D01*
X101880292Y-113218213D01*
X101880288Y-113218210D01*
X101749185Y-113130609D01*
X101749172Y-113130602D01*
X101603501Y-113070264D01*
X101603489Y-113070261D01*
X101448845Y-113039500D01*
X101448842Y-113039500D01*
X101291158Y-113039500D01*
X101291155Y-113039500D01*
X101136505Y-113070261D01*
X101136502Y-113070262D01*
X101128909Y-113073408D01*
X101059440Y-113080874D01*
X100996961Y-113049597D01*
X100978358Y-113027736D01*
X100896409Y-112905091D01*
X100896406Y-112905087D01*
X100784912Y-112793593D01*
X100784908Y-112793590D01*
X100653805Y-112705989D01*
X100653792Y-112705982D01*
X100508121Y-112645644D01*
X100508109Y-112645641D01*
X100353465Y-112614880D01*
X100353462Y-112614880D01*
X100195778Y-112614880D01*
X100195775Y-112614880D01*
X100041130Y-112645641D01*
X100041118Y-112645644D01*
X99895447Y-112705982D01*
X99890066Y-112708859D01*
X99888757Y-112706409D01*
X99833402Y-112723679D01*
X99766041Y-112705124D01*
X99719405Y-112653096D01*
X99708301Y-112584115D01*
X99728215Y-112530807D01*
X99769394Y-112469179D01*
X99829737Y-112323497D01*
X99860500Y-112168842D01*
X99860500Y-112011158D01*
X99860500Y-112011155D01*
X99860499Y-112011153D01*
X99852371Y-111970292D01*
X99829737Y-111856503D01*
X99804125Y-111794669D01*
X99769397Y-111710827D01*
X99769390Y-111710814D01*
X99681789Y-111579711D01*
X99681786Y-111579707D01*
X99570292Y-111468213D01*
X99570288Y-111468210D01*
X99439185Y-111380609D01*
X99439172Y-111380602D01*
X99293501Y-111320264D01*
X99293489Y-111320261D01*
X99138845Y-111289500D01*
X99138842Y-111289500D01*
X98981158Y-111289500D01*
X98981155Y-111289500D01*
X98826510Y-111320261D01*
X98826498Y-111320264D01*
X98680827Y-111380602D01*
X98680814Y-111380609D01*
X98549711Y-111468210D01*
X98549707Y-111468213D01*
X98442681Y-111575240D01*
X98381358Y-111608725D01*
X98311666Y-111603741D01*
X98267319Y-111575240D01*
X98230292Y-111538213D01*
X98230288Y-111538210D01*
X98099185Y-111450609D01*
X98099172Y-111450602D01*
X97953501Y-111390264D01*
X97953489Y-111390261D01*
X97798845Y-111359500D01*
X97798842Y-111359500D01*
X97641158Y-111359500D01*
X97641155Y-111359500D01*
X97486510Y-111390261D01*
X97486498Y-111390264D01*
X97340827Y-111450602D01*
X97340814Y-111450609D01*
X97209711Y-111538210D01*
X97209707Y-111538213D01*
X97098213Y-111649707D01*
X97098210Y-111649711D01*
X97056334Y-111712382D01*
X97056329Y-111712391D01*
X97010606Y-111780821D01*
X96956411Y-111911658D01*
X96956403Y-111911676D01*
X96950264Y-111926499D01*
X96950261Y-111926510D01*
X96919500Y-112081153D01*
X96399148Y-112081153D01*
X96451679Y-112059394D01*
X96582789Y-111971789D01*
X96694289Y-111860289D01*
X96781894Y-111729179D01*
X96842237Y-111583497D01*
X96873000Y-111428842D01*
X96873000Y-111271158D01*
X96873000Y-111271155D01*
X96872999Y-111271153D01*
X96864119Y-111226510D01*
X96842237Y-111116503D01*
X96831978Y-111091735D01*
X96781897Y-110970827D01*
X96781890Y-110970814D01*
X96694289Y-110839711D01*
X96694286Y-110839707D01*
X96582792Y-110728213D01*
X96582788Y-110728210D01*
X96451685Y-110640609D01*
X96451672Y-110640602D01*
X96306001Y-110580264D01*
X96305989Y-110580261D01*
X96151345Y-110549500D01*
X96151342Y-110549500D01*
X96107441Y-110549500D01*
X96040402Y-110529815D01*
X95994647Y-110477011D01*
X95984703Y-110407853D01*
X96004339Y-110356609D01*
X96049390Y-110289185D01*
X96049390Y-110289184D01*
X96049394Y-110289179D01*
X96050696Y-110286037D01*
X96077636Y-110220997D01*
X96109737Y-110143497D01*
X96140500Y-109988842D01*
X96140500Y-109831158D01*
X96140500Y-109831155D01*
X96140499Y-109831153D01*
X96131942Y-109788133D01*
X96109737Y-109676503D01*
X96093130Y-109636409D01*
X96049397Y-109530827D01*
X96049390Y-109530814D01*
X95961789Y-109399711D01*
X95961786Y-109399707D01*
X95850292Y-109288213D01*
X95850288Y-109288210D01*
X95719185Y-109200609D01*
X95719172Y-109200602D01*
X95668532Y-109179627D01*
X95573501Y-109140264D01*
X95573489Y-109140261D01*
X95418845Y-109109500D01*
X95418842Y-109109500D01*
X95261158Y-109109500D01*
X95261155Y-109109500D01*
X95106510Y-109140261D01*
X95106498Y-109140264D01*
X94960827Y-109200602D01*
X94960814Y-109200609D01*
X94829711Y-109288210D01*
X94829707Y-109288213D01*
X94718213Y-109399707D01*
X94718210Y-109399711D01*
X94630609Y-109530814D01*
X94630602Y-109530827D01*
X94570264Y-109676498D01*
X94570261Y-109676510D01*
X94539500Y-109831153D01*
X79462996Y-109831153D01*
X79499394Y-109776679D01*
X79501420Y-109771789D01*
X79515847Y-109736958D01*
X79559737Y-109630997D01*
X79590500Y-109476342D01*
X79590500Y-109318658D01*
X79590500Y-109318655D01*
X79590499Y-109318653D01*
X79584443Y-109288210D01*
X79559737Y-109164003D01*
X79550171Y-109140908D01*
X79499397Y-109018327D01*
X79499390Y-109018314D01*
X79486202Y-108998577D01*
X79444237Y-108935773D01*
X91904880Y-108935773D01*
X91904880Y-109093466D01*
X91935641Y-109248109D01*
X91935644Y-109248121D01*
X91995982Y-109393792D01*
X91995989Y-109393805D01*
X92083590Y-109524908D01*
X92083593Y-109524912D01*
X92195087Y-109636406D01*
X92195091Y-109636409D01*
X92326194Y-109724010D01*
X92326207Y-109724017D01*
X92453361Y-109776685D01*
X92471883Y-109784357D01*
X92626533Y-109815119D01*
X92626536Y-109815120D01*
X92626538Y-109815120D01*
X92784224Y-109815120D01*
X92784225Y-109815119D01*
X92938877Y-109784357D01*
X93084559Y-109724014D01*
X93084565Y-109724010D01*
X93087628Y-109721964D01*
X93155672Y-109676498D01*
X93215669Y-109636409D01*
X93327169Y-109524909D01*
X93414774Y-109393799D01*
X93419033Y-109383518D01*
X93455434Y-109295637D01*
X93475117Y-109248117D01*
X93489678Y-109174914D01*
X93522061Y-109113007D01*
X93582776Y-109078432D01*
X93635484Y-109077491D01*
X93669944Y-109084345D01*
X93751155Y-109100500D01*
X93751158Y-109100500D01*
X93908844Y-109100500D01*
X93908845Y-109100499D01*
X94056378Y-109071153D01*
X98259500Y-109071153D01*
X98259500Y-109228846D01*
X98290261Y-109383489D01*
X98290264Y-109383501D01*
X98350602Y-109529172D01*
X98350609Y-109529185D01*
X98438210Y-109660288D01*
X98438213Y-109660292D01*
X98549707Y-109771786D01*
X98549711Y-109771789D01*
X98680814Y-109859390D01*
X98680827Y-109859397D01*
X98797665Y-109907792D01*
X98826503Y-109919737D01*
X98981153Y-109950499D01*
X98981156Y-109950500D01*
X98981158Y-109950500D01*
X99138844Y-109950500D01*
X99138845Y-109950499D01*
X99293497Y-109919737D01*
X99439179Y-109859394D01*
X99570289Y-109771789D01*
X99658228Y-109683850D01*
X100286803Y-109683850D01*
X100286803Y-109841543D01*
X100317564Y-109996186D01*
X100317567Y-109996198D01*
X100377905Y-110141869D01*
X100377912Y-110141882D01*
X100465513Y-110272985D01*
X100465516Y-110272989D01*
X100577010Y-110384483D01*
X100577014Y-110384486D01*
X100708117Y-110472087D01*
X100708130Y-110472094D01*
X100852249Y-110531789D01*
X100853806Y-110532434D01*
X100863447Y-110534351D01*
X100925357Y-110566732D01*
X100959934Y-110627446D01*
X100956198Y-110697216D01*
X100915334Y-110753890D01*
X100908150Y-110759071D01*
X100789711Y-110838210D01*
X100789707Y-110838213D01*
X100678213Y-110949707D01*
X100678210Y-110949711D01*
X100590609Y-111080814D01*
X100590602Y-111080827D01*
X100530264Y-111226498D01*
X100530261Y-111226510D01*
X100499500Y-111381153D01*
X100499500Y-111538846D01*
X100530261Y-111693489D01*
X100530264Y-111693501D01*
X100590602Y-111839172D01*
X100590609Y-111839185D01*
X100678210Y-111970288D01*
X100678213Y-111970292D01*
X100789707Y-112081786D01*
X100789711Y-112081789D01*
X100920814Y-112169390D01*
X100920827Y-112169397D01*
X101066498Y-112229735D01*
X101066503Y-112229737D01*
X101221153Y-112260499D01*
X101221156Y-112260500D01*
X101221158Y-112260500D01*
X101378844Y-112260500D01*
X101378845Y-112260499D01*
X101533497Y-112229737D01*
X101679179Y-112169394D01*
X101810289Y-112081789D01*
X101921789Y-111970289D01*
X102009394Y-111839179D01*
X102018112Y-111818133D01*
X102027829Y-111794672D01*
X102069737Y-111693497D01*
X102093492Y-111574071D01*
X106179499Y-111574071D01*
X106204497Y-111699738D01*
X106204499Y-111699744D01*
X106253533Y-111818124D01*
X106253538Y-111818133D01*
X106324723Y-111924668D01*
X106324726Y-111924672D01*
X106415327Y-112015273D01*
X106415331Y-112015276D01*
X106521866Y-112086461D01*
X106521872Y-112086464D01*
X106521873Y-112086465D01*
X106640256Y-112135501D01*
X106640260Y-112135501D01*
X106640261Y-112135502D01*
X106765928Y-112160500D01*
X106765931Y-112160500D01*
X106894071Y-112160500D01*
X106978615Y-112143682D01*
X107019744Y-112135501D01*
X107138127Y-112086465D01*
X107244669Y-112015276D01*
X107291646Y-111968299D01*
X107352969Y-111934813D01*
X107368069Y-111933189D01*
X107368009Y-111932576D01*
X107374071Y-111931979D01*
X107476136Y-111911676D01*
X107499744Y-111906980D01*
X107618127Y-111857944D01*
X107724669Y-111786755D01*
X107815276Y-111696148D01*
X107886465Y-111589606D01*
X107935501Y-111471223D01*
X107951605Y-111390264D01*
X107960500Y-111345550D01*
X107960500Y-111217407D01*
X107935502Y-111091740D01*
X107935501Y-111091739D01*
X107935501Y-111091735D01*
X107886465Y-110973352D01*
X107886464Y-110973351D01*
X107886461Y-110973345D01*
X107815276Y-110866810D01*
X107815273Y-110866806D01*
X107724672Y-110776205D01*
X107724668Y-110776202D01*
X107618133Y-110705017D01*
X107618124Y-110705012D01*
X107499744Y-110655978D01*
X107499738Y-110655976D01*
X107374071Y-110630979D01*
X107374069Y-110630979D01*
X107245931Y-110630979D01*
X107245929Y-110630979D01*
X107120261Y-110655976D01*
X107120255Y-110655978D01*
X107001875Y-110705012D01*
X107001866Y-110705017D01*
X106895331Y-110776202D01*
X106895327Y-110776205D01*
X106848354Y-110823180D01*
X106787031Y-110856666D01*
X106771930Y-110858289D01*
X106771991Y-110858903D01*
X106765928Y-110859499D01*
X106640261Y-110884497D01*
X106640255Y-110884499D01*
X106521875Y-110933533D01*
X106521866Y-110933538D01*
X106415331Y-111004723D01*
X106415327Y-111004726D01*
X106324726Y-111095327D01*
X106324723Y-111095331D01*
X106253538Y-111201866D01*
X106253533Y-111201875D01*
X106204499Y-111320255D01*
X106204497Y-111320261D01*
X106179500Y-111445928D01*
X106179500Y-111445931D01*
X106179500Y-111574069D01*
X106179500Y-111574071D01*
X106179499Y-111574071D01*
X102093492Y-111574071D01*
X102100500Y-111538842D01*
X102100500Y-111381158D01*
X102100500Y-111381155D01*
X102100499Y-111381153D01*
X102088386Y-111320256D01*
X102069737Y-111226503D01*
X102024172Y-111116498D01*
X102009397Y-111080827D01*
X102009390Y-111080814D01*
X101921789Y-110949711D01*
X101921786Y-110949707D01*
X101810292Y-110838213D01*
X101810288Y-110838210D01*
X101679185Y-110750609D01*
X101679172Y-110750602D01*
X101533501Y-110690264D01*
X101533489Y-110690261D01*
X101523852Y-110688344D01*
X101461941Y-110655959D01*
X101427367Y-110595244D01*
X101431106Y-110525474D01*
X101471973Y-110468802D01*
X101479153Y-110463625D01*
X101584118Y-110393489D01*
X101597592Y-110384486D01*
X101709092Y-110272986D01*
X101796697Y-110141876D01*
X101811189Y-110106890D01*
X101836002Y-110046985D01*
X101879842Y-109992581D01*
X101946136Y-109970516D01*
X102013836Y-109987795D01*
X102039797Y-110010087D01*
X102040446Y-110009439D01*
X102156250Y-110125243D01*
X102156254Y-110125246D01*
X102287357Y-110212847D01*
X102287370Y-110212854D01*
X102350112Y-110238842D01*
X102433046Y-110273194D01*
X102587696Y-110303956D01*
X102587699Y-110303957D01*
X102587701Y-110303957D01*
X102745387Y-110303957D01*
X102745388Y-110303956D01*
X102900040Y-110273194D01*
X103045722Y-110212851D01*
X103176832Y-110125246D01*
X103288332Y-110013746D01*
X103375937Y-109882636D01*
X103436280Y-109736954D01*
X103467043Y-109582299D01*
X103467043Y-109544071D01*
X111139499Y-109544071D01*
X111164497Y-109669738D01*
X111164499Y-109669744D01*
X111213533Y-109788124D01*
X111213538Y-109788133D01*
X111284723Y-109894668D01*
X111284726Y-109894672D01*
X111375327Y-109985273D01*
X111375331Y-109985276D01*
X111481866Y-110056461D01*
X111481872Y-110056464D01*
X111481873Y-110056465D01*
X111600256Y-110105501D01*
X111600260Y-110105501D01*
X111600261Y-110105502D01*
X111725928Y-110130500D01*
X111725931Y-110130500D01*
X111854071Y-110130500D01*
X111938615Y-110113682D01*
X111979744Y-110105501D01*
X112098127Y-110056465D01*
X112204669Y-109985276D01*
X112295276Y-109894669D01*
X112366465Y-109788127D01*
X112415501Y-109669744D01*
X112432895Y-109582301D01*
X112440500Y-109544071D01*
X112440500Y-109415928D01*
X112415502Y-109290261D01*
X112415501Y-109290260D01*
X112415501Y-109290256D01*
X112366465Y-109171873D01*
X112366464Y-109171872D01*
X112366461Y-109171866D01*
X112295276Y-109065331D01*
X112295273Y-109065327D01*
X112204672Y-108974726D01*
X112204668Y-108974723D01*
X112098133Y-108903538D01*
X112098124Y-108903533D01*
X111979744Y-108854499D01*
X111979738Y-108854497D01*
X111854071Y-108829500D01*
X111854069Y-108829500D01*
X111725931Y-108829500D01*
X111725929Y-108829500D01*
X111600261Y-108854497D01*
X111600255Y-108854499D01*
X111481875Y-108903533D01*
X111481866Y-108903538D01*
X111375331Y-108974723D01*
X111375327Y-108974726D01*
X111284726Y-109065327D01*
X111284723Y-109065331D01*
X111213538Y-109171866D01*
X111213533Y-109171875D01*
X111164499Y-109290255D01*
X111164497Y-109290261D01*
X111139500Y-109415928D01*
X111139500Y-109415931D01*
X111139500Y-109544069D01*
X111139500Y-109544071D01*
X111139499Y-109544071D01*
X103467043Y-109544071D01*
X103467043Y-109424615D01*
X103467043Y-109424611D01*
X103445966Y-109318653D01*
X103436280Y-109269960D01*
X103427233Y-109248118D01*
X103375940Y-109124284D01*
X103375933Y-109124271D01*
X103288332Y-108993168D01*
X103288329Y-108993164D01*
X103176835Y-108881670D01*
X103176831Y-108881667D01*
X103045728Y-108794066D01*
X103045715Y-108794059D01*
X102900044Y-108733721D01*
X102900032Y-108733718D01*
X102745388Y-108702957D01*
X102745385Y-108702957D01*
X102587701Y-108702957D01*
X102587698Y-108702957D01*
X102433053Y-108733718D01*
X102433041Y-108733721D01*
X102287370Y-108794059D01*
X102287357Y-108794066D01*
X102156254Y-108881667D01*
X102156250Y-108881670D01*
X102044756Y-108993164D01*
X102044753Y-108993168D01*
X101957152Y-109124271D01*
X101957147Y-109124281D01*
X101917843Y-109219169D01*
X101874001Y-109273573D01*
X101807707Y-109295637D01*
X101740008Y-109278357D01*
X101714049Y-109256065D01*
X101713400Y-109256715D01*
X101597595Y-109140910D01*
X101597591Y-109140907D01*
X101466488Y-109053306D01*
X101466475Y-109053299D01*
X101320804Y-108992961D01*
X101320792Y-108992958D01*
X101166148Y-108962197D01*
X101166145Y-108962197D01*
X101008461Y-108962197D01*
X101008458Y-108962197D01*
X100853813Y-108992958D01*
X100853801Y-108992961D01*
X100708130Y-109053299D01*
X100708117Y-109053306D01*
X100577014Y-109140907D01*
X100577010Y-109140910D01*
X100465516Y-109252404D01*
X100465513Y-109252408D01*
X100377912Y-109383511D01*
X100377905Y-109383524D01*
X100317567Y-109529195D01*
X100317564Y-109529207D01*
X100286803Y-109683850D01*
X99658228Y-109683850D01*
X99681789Y-109660289D01*
X99759444Y-109544071D01*
X99769390Y-109529185D01*
X99769390Y-109529184D01*
X99769394Y-109529179D01*
X99771162Y-109524912D01*
X99816302Y-109415931D01*
X99829737Y-109383497D01*
X99860500Y-109228842D01*
X99860500Y-109071158D01*
X99860500Y-109071155D01*
X99860499Y-109071153D01*
X99849990Y-109018321D01*
X99829737Y-108916503D01*
X99811215Y-108871786D01*
X99769397Y-108770827D01*
X99769390Y-108770814D01*
X99681789Y-108639711D01*
X99681786Y-108639707D01*
X99570292Y-108528213D01*
X99570288Y-108528210D01*
X99439185Y-108440609D01*
X99439172Y-108440602D01*
X99293501Y-108380264D01*
X99293489Y-108380261D01*
X99138845Y-108349500D01*
X99138842Y-108349500D01*
X98981158Y-108349500D01*
X98981155Y-108349500D01*
X98826510Y-108380261D01*
X98826498Y-108380264D01*
X98680827Y-108440602D01*
X98680814Y-108440609D01*
X98549711Y-108528210D01*
X98549707Y-108528213D01*
X98438213Y-108639707D01*
X98438210Y-108639711D01*
X98350609Y-108770814D01*
X98350602Y-108770827D01*
X98290264Y-108916498D01*
X98290261Y-108916510D01*
X98259500Y-109071153D01*
X94056378Y-109071153D01*
X94063497Y-109069737D01*
X94209179Y-109009394D01*
X94340289Y-108921789D01*
X94451789Y-108810289D01*
X94539394Y-108679179D01*
X94599737Y-108533497D01*
X94630500Y-108378842D01*
X94630500Y-108221158D01*
X94630500Y-108221155D01*
X94624155Y-108189258D01*
X94624155Y-108189257D01*
X94620554Y-108171153D01*
X106549500Y-108171153D01*
X106549500Y-108328846D01*
X106580261Y-108483489D01*
X106580264Y-108483501D01*
X106640602Y-108629172D01*
X106640609Y-108629185D01*
X106728210Y-108760288D01*
X106728213Y-108760292D01*
X106839707Y-108871786D01*
X106839711Y-108871789D01*
X106970814Y-108959390D01*
X106970827Y-108959397D01*
X107113084Y-109018321D01*
X107116503Y-109019737D01*
X107271153Y-109050499D01*
X107271156Y-109050500D01*
X107271158Y-109050500D01*
X107428844Y-109050500D01*
X107428845Y-109050499D01*
X107583497Y-109019737D01*
X107729179Y-108959394D01*
X107860289Y-108871789D01*
X107971789Y-108760289D01*
X108059394Y-108629179D01*
X108119737Y-108483497D01*
X108150500Y-108328842D01*
X108150500Y-108171158D01*
X108150500Y-108171155D01*
X108150499Y-108171153D01*
X108137539Y-108106001D01*
X108119737Y-108016503D01*
X108119735Y-108016498D01*
X108059397Y-107870827D01*
X108059390Y-107870814D01*
X107971789Y-107739711D01*
X107971786Y-107739707D01*
X107860292Y-107628213D01*
X107860288Y-107628210D01*
X107729185Y-107540609D01*
X107729172Y-107540602D01*
X107583501Y-107480264D01*
X107583489Y-107480261D01*
X107428845Y-107449500D01*
X107428842Y-107449500D01*
X107271158Y-107449500D01*
X107271155Y-107449500D01*
X107116510Y-107480261D01*
X107116498Y-107480264D01*
X106970827Y-107540602D01*
X106970814Y-107540609D01*
X106839711Y-107628210D01*
X106839707Y-107628213D01*
X106728213Y-107739707D01*
X106728210Y-107739711D01*
X106640609Y-107870814D01*
X106640602Y-107870827D01*
X106580264Y-108016498D01*
X106580261Y-108016510D01*
X106549500Y-108171153D01*
X94620554Y-108171153D01*
X94599738Y-108066510D01*
X94599738Y-108066508D01*
X94599737Y-108066503D01*
X94599735Y-108066498D01*
X94539397Y-107920827D01*
X94539390Y-107920814D01*
X94451789Y-107789711D01*
X94451786Y-107789707D01*
X94340292Y-107678213D01*
X94340288Y-107678210D01*
X94209185Y-107590609D01*
X94209172Y-107590602D01*
X94063501Y-107530264D01*
X94063489Y-107530261D01*
X93908845Y-107499500D01*
X93908842Y-107499500D01*
X93751158Y-107499500D01*
X93751155Y-107499500D01*
X93596510Y-107530261D01*
X93596498Y-107530264D01*
X93450827Y-107590602D01*
X93450814Y-107590609D01*
X93319711Y-107678210D01*
X93319707Y-107678213D01*
X93208213Y-107789707D01*
X93208210Y-107789711D01*
X93120609Y-107920814D01*
X93120602Y-107920827D01*
X93060264Y-108066498D01*
X93060261Y-108066508D01*
X93045702Y-108139703D01*
X93013317Y-108201614D01*
X92952601Y-108236188D01*
X92899894Y-108237128D01*
X92784225Y-108214120D01*
X92784222Y-108214120D01*
X92626538Y-108214120D01*
X92626535Y-108214120D01*
X92471890Y-108244881D01*
X92471878Y-108244884D01*
X92326207Y-108305222D01*
X92326194Y-108305229D01*
X92195091Y-108392830D01*
X92195087Y-108392833D01*
X92083593Y-108504327D01*
X92083590Y-108504331D01*
X91995989Y-108635434D01*
X91995982Y-108635447D01*
X91935644Y-108781118D01*
X91935641Y-108781130D01*
X91904880Y-108935773D01*
X79444237Y-108935773D01*
X79411789Y-108887211D01*
X79411786Y-108887207D01*
X79300291Y-108775712D01*
X79277015Y-108760159D01*
X79244003Y-108738101D01*
X79199198Y-108684491D01*
X79190491Y-108615166D01*
X79220645Y-108552138D01*
X79244003Y-108531898D01*
X79300289Y-108494289D01*
X79411789Y-108382789D01*
X79499394Y-108251679D01*
X79559737Y-108105997D01*
X79590500Y-107951342D01*
X79590500Y-107793658D01*
X79590500Y-107793655D01*
X79590499Y-107793653D01*
X79559738Y-107639010D01*
X79559737Y-107639003D01*
X79555267Y-107628211D01*
X79499397Y-107493327D01*
X79499390Y-107493314D01*
X79411789Y-107362211D01*
X79411786Y-107362207D01*
X79300292Y-107250713D01*
X79300288Y-107250710D01*
X79169185Y-107163109D01*
X79169172Y-107163102D01*
X79023501Y-107102764D01*
X79023491Y-107102761D01*
X78916037Y-107081387D01*
X78854126Y-107049002D01*
X78819552Y-106988286D01*
X78818612Y-106983961D01*
X78813279Y-106957155D01*
X78797237Y-106876503D01*
X78777724Y-106829394D01*
X78736897Y-106730827D01*
X78736890Y-106730814D01*
X78649289Y-106599711D01*
X78649286Y-106599707D01*
X78537792Y-106488213D01*
X78537788Y-106488210D01*
X78406685Y-106400609D01*
X78406672Y-106400602D01*
X78261001Y-106340264D01*
X78260989Y-106340261D01*
X78106345Y-106309500D01*
X78106342Y-106309500D01*
X77948658Y-106309500D01*
X77948655Y-106309500D01*
X77794010Y-106340261D01*
X77793998Y-106340264D01*
X77648327Y-106400602D01*
X77648314Y-106400609D01*
X77517211Y-106488210D01*
X77517207Y-106488213D01*
X77405713Y-106599707D01*
X77405710Y-106599711D01*
X77368102Y-106655996D01*
X77314490Y-106700801D01*
X77245165Y-106709508D01*
X77182137Y-106679353D01*
X77161898Y-106655996D01*
X77124289Y-106599711D01*
X77124286Y-106599707D01*
X77012792Y-106488213D01*
X77012788Y-106488210D01*
X76881685Y-106400609D01*
X76881672Y-106400602D01*
X76736001Y-106340264D01*
X76735989Y-106340261D01*
X76581345Y-106309500D01*
X76581342Y-106309500D01*
X76423658Y-106309500D01*
X76423655Y-106309500D01*
X76269010Y-106340261D01*
X76268998Y-106340264D01*
X76123327Y-106400602D01*
X76123314Y-106400609D01*
X75992211Y-106488210D01*
X75992207Y-106488213D01*
X75880713Y-106599707D01*
X75880710Y-106599711D01*
X75793109Y-106730814D01*
X75793102Y-106730827D01*
X75732764Y-106876498D01*
X75732761Y-106876508D01*
X75711387Y-106983962D01*
X75679002Y-107045873D01*
X75618286Y-107080447D01*
X75613962Y-107081387D01*
X75506508Y-107102761D01*
X75506498Y-107102764D01*
X75360827Y-107163102D01*
X75360814Y-107163109D01*
X75229711Y-107250710D01*
X75229707Y-107250713D01*
X75118213Y-107362207D01*
X75118210Y-107362211D01*
X75030609Y-107493314D01*
X75030602Y-107493327D01*
X74970264Y-107638998D01*
X74970261Y-107639010D01*
X74939500Y-107793653D01*
X68890500Y-107793653D01*
X68890500Y-106204071D01*
X94159499Y-106204071D01*
X94184497Y-106329738D01*
X94184499Y-106329744D01*
X94233533Y-106448124D01*
X94233538Y-106448133D01*
X94304723Y-106554668D01*
X94304726Y-106554672D01*
X94395327Y-106645273D01*
X94395331Y-106645276D01*
X94501866Y-106716461D01*
X94501872Y-106716464D01*
X94501873Y-106716465D01*
X94620256Y-106765501D01*
X94620260Y-106765501D01*
X94620261Y-106765502D01*
X94745928Y-106790500D01*
X94745931Y-106790500D01*
X94874071Y-106790500D01*
X94958615Y-106773682D01*
X94999744Y-106765501D01*
X95118127Y-106716465D01*
X95224669Y-106645276D01*
X95315276Y-106554669D01*
X95386465Y-106448127D01*
X95435501Y-106329744D01*
X95453405Y-106239737D01*
X95460500Y-106204071D01*
X95460500Y-106075928D01*
X95435502Y-105950261D01*
X95435501Y-105950260D01*
X95435501Y-105950256D01*
X95386465Y-105831873D01*
X95386464Y-105831872D01*
X95386461Y-105831866D01*
X95315276Y-105725331D01*
X95315273Y-105725327D01*
X95224672Y-105634726D01*
X95224668Y-105634723D01*
X95118133Y-105563538D01*
X95118124Y-105563533D01*
X94999744Y-105514499D01*
X94999738Y-105514497D01*
X94960453Y-105506683D01*
X94874071Y-105489500D01*
X94874069Y-105489500D01*
X94745931Y-105489500D01*
X94745929Y-105489500D01*
X94620261Y-105514497D01*
X94620255Y-105514499D01*
X94501875Y-105563533D01*
X94501866Y-105563538D01*
X94395331Y-105634723D01*
X94395327Y-105634726D01*
X94304726Y-105725327D01*
X94304723Y-105725331D01*
X94233538Y-105831866D01*
X94233533Y-105831875D01*
X94184499Y-105950255D01*
X94184497Y-105950261D01*
X94159500Y-106075928D01*
X94159500Y-106075931D01*
X94159500Y-106204069D01*
X94159500Y-106204071D01*
X94159499Y-106204071D01*
X68890500Y-106204071D01*
X68890500Y-105144071D01*
X89009499Y-105144071D01*
X89034497Y-105269738D01*
X89034499Y-105269744D01*
X89083533Y-105388124D01*
X89083538Y-105388133D01*
X89154723Y-105494668D01*
X89154726Y-105494672D01*
X89245327Y-105585273D01*
X89245331Y-105585276D01*
X89351866Y-105656461D01*
X89351872Y-105656464D01*
X89351873Y-105656465D01*
X89470256Y-105705501D01*
X89470260Y-105705501D01*
X89470261Y-105705502D01*
X89595928Y-105730500D01*
X89595931Y-105730500D01*
X89724071Y-105730500D01*
X89826543Y-105710116D01*
X89849744Y-105705501D01*
X89968127Y-105656465D01*
X90074669Y-105585276D01*
X90165276Y-105494669D01*
X90234443Y-105391153D01*
X96079500Y-105391153D01*
X96079500Y-105548846D01*
X96110261Y-105703489D01*
X96110264Y-105703501D01*
X96170602Y-105849172D01*
X96170609Y-105849185D01*
X96258210Y-105980288D01*
X96258213Y-105980292D01*
X96369707Y-106091786D01*
X96369711Y-106091789D01*
X96500814Y-106179390D01*
X96500827Y-106179397D01*
X96646498Y-106239735D01*
X96646503Y-106239737D01*
X96801153Y-106270499D01*
X96801156Y-106270500D01*
X96801158Y-106270500D01*
X96958844Y-106270500D01*
X96958845Y-106270499D01*
X97113497Y-106239737D01*
X97259179Y-106179394D01*
X97390289Y-106091789D01*
X97440925Y-106041153D01*
X99219500Y-106041153D01*
X99219500Y-106198846D01*
X99250261Y-106353489D01*
X99250264Y-106353501D01*
X99310602Y-106499172D01*
X99310609Y-106499185D01*
X99398210Y-106630288D01*
X99398213Y-106630292D01*
X99509707Y-106741786D01*
X99509711Y-106741789D01*
X99640814Y-106829390D01*
X99640827Y-106829397D01*
X99754541Y-106876498D01*
X99786503Y-106889737D01*
X99941153Y-106920499D01*
X99941156Y-106920500D01*
X99941158Y-106920500D01*
X100098844Y-106920500D01*
X100098845Y-106920499D01*
X100253497Y-106889737D01*
X100399179Y-106829394D01*
X100530289Y-106741789D01*
X100641789Y-106630289D01*
X100729394Y-106499179D01*
X100733938Y-106488210D01*
X100750540Y-106448127D01*
X100789737Y-106353497D01*
X100820500Y-106198842D01*
X100820500Y-106041158D01*
X100820500Y-106041155D01*
X100820499Y-106041153D01*
X100789738Y-105886510D01*
X100789737Y-105886503D01*
X100789735Y-105886498D01*
X100729397Y-105740827D01*
X100729390Y-105740814D01*
X100641789Y-105609711D01*
X100641786Y-105609707D01*
X100530292Y-105498213D01*
X100530288Y-105498210D01*
X100399185Y-105410609D01*
X100399172Y-105410602D01*
X100253501Y-105350264D01*
X100253489Y-105350261D01*
X100098845Y-105319500D01*
X100098842Y-105319500D01*
X99941158Y-105319500D01*
X99941155Y-105319500D01*
X99786510Y-105350261D01*
X99786498Y-105350264D01*
X99640827Y-105410602D01*
X99640814Y-105410609D01*
X99509711Y-105498210D01*
X99509707Y-105498213D01*
X99398213Y-105609707D01*
X99398210Y-105609711D01*
X99310609Y-105740814D01*
X99310602Y-105740827D01*
X99250264Y-105886498D01*
X99250261Y-105886510D01*
X99219500Y-106041153D01*
X97440925Y-106041153D01*
X97501789Y-105980289D01*
X97521857Y-105950256D01*
X97589390Y-105849185D01*
X97589390Y-105849184D01*
X97589394Y-105849179D01*
X97596562Y-105831875D01*
X97631707Y-105747025D01*
X97649737Y-105703497D01*
X97680500Y-105548842D01*
X97680500Y-105391158D01*
X97680500Y-105391155D01*
X97680499Y-105391153D01*
X97666246Y-105319500D01*
X97649737Y-105236503D01*
X97618170Y-105160292D01*
X97589397Y-105090827D01*
X97589390Y-105090814D01*
X97501789Y-104959711D01*
X97501786Y-104959707D01*
X97390292Y-104848213D01*
X97390288Y-104848210D01*
X97259185Y-104760609D01*
X97259172Y-104760602D01*
X97113501Y-104700264D01*
X97113489Y-104700261D01*
X97045229Y-104686683D01*
X97045228Y-104686683D01*
X96958844Y-104669500D01*
X96958842Y-104669500D01*
X96801158Y-104669500D01*
X96801155Y-104669500D01*
X96646510Y-104700261D01*
X96646498Y-104700264D01*
X96500827Y-104760602D01*
X96500814Y-104760609D01*
X96369711Y-104848210D01*
X96369707Y-104848213D01*
X96258213Y-104959707D01*
X96258210Y-104959711D01*
X96170609Y-105090814D01*
X96170602Y-105090827D01*
X96110264Y-105236498D01*
X96110261Y-105236510D01*
X96079500Y-105391153D01*
X90234443Y-105391153D01*
X90236465Y-105388127D01*
X90285501Y-105269744D01*
X90302240Y-105185594D01*
X90310500Y-105144071D01*
X90310500Y-105015928D01*
X90285502Y-104890261D01*
X90285501Y-104890260D01*
X90285501Y-104890256D01*
X90236465Y-104771873D01*
X90236464Y-104771872D01*
X90236461Y-104771866D01*
X90165276Y-104665331D01*
X90165273Y-104665327D01*
X90074672Y-104574726D01*
X90074668Y-104574723D01*
X90069325Y-104571153D01*
X103109500Y-104571153D01*
X103109500Y-104728846D01*
X103140261Y-104883489D01*
X103140264Y-104883501D01*
X103200602Y-105029172D01*
X103200609Y-105029185D01*
X103288210Y-105160288D01*
X103288213Y-105160292D01*
X103399707Y-105271786D01*
X103399711Y-105271789D01*
X103530814Y-105359390D01*
X103530827Y-105359397D01*
X103654466Y-105410609D01*
X103676503Y-105419737D01*
X103831153Y-105450499D01*
X103831156Y-105450500D01*
X103831158Y-105450500D01*
X103988844Y-105450500D01*
X103988845Y-105450499D01*
X104143497Y-105419737D01*
X104289179Y-105359394D01*
X104420289Y-105271789D01*
X104531789Y-105160289D01*
X104542626Y-105144071D01*
X105159499Y-105144071D01*
X105184497Y-105269738D01*
X105184499Y-105269744D01*
X105233533Y-105388124D01*
X105233538Y-105388133D01*
X105304723Y-105494668D01*
X105304726Y-105494672D01*
X105395327Y-105585273D01*
X105395331Y-105585276D01*
X105501866Y-105656461D01*
X105501872Y-105656464D01*
X105501873Y-105656465D01*
X105620256Y-105705501D01*
X105620260Y-105705501D01*
X105620261Y-105705502D01*
X105745928Y-105730500D01*
X105745931Y-105730500D01*
X105874070Y-105730500D01*
X105903626Y-105724620D01*
X105976542Y-105710116D01*
X106046133Y-105716343D01*
X106048187Y-105717172D01*
X106067875Y-105725327D01*
X106120256Y-105747024D01*
X106120260Y-105747024D01*
X106120261Y-105747025D01*
X106245928Y-105772023D01*
X106245931Y-105772023D01*
X106374071Y-105772023D01*
X106458615Y-105755205D01*
X106499744Y-105747024D01*
X106618127Y-105697988D01*
X106724669Y-105626799D01*
X106815276Y-105536192D01*
X106886465Y-105429650D01*
X106935501Y-105311267D01*
X106960500Y-105185592D01*
X106960500Y-105057454D01*
X106960500Y-105057451D01*
X106935502Y-104931784D01*
X106935501Y-104931783D01*
X106935501Y-104931779D01*
X106886465Y-104813396D01*
X106886464Y-104813395D01*
X106886461Y-104813389D01*
X106815276Y-104706854D01*
X106815273Y-104706850D01*
X106724672Y-104616249D01*
X106724668Y-104616246D01*
X106618133Y-104545061D01*
X106618124Y-104545056D01*
X106499744Y-104496022D01*
X106499738Y-104496020D01*
X106374071Y-104471023D01*
X106374069Y-104471023D01*
X106245931Y-104471023D01*
X106245928Y-104471023D01*
X106143456Y-104491406D01*
X106073865Y-104485179D01*
X106071813Y-104484350D01*
X105999748Y-104454500D01*
X105999738Y-104454497D01*
X105874071Y-104429500D01*
X105874069Y-104429500D01*
X105745931Y-104429500D01*
X105745929Y-104429500D01*
X105620261Y-104454497D01*
X105620255Y-104454499D01*
X105501875Y-104503533D01*
X105501866Y-104503538D01*
X105395331Y-104574723D01*
X105395327Y-104574726D01*
X105304726Y-104665327D01*
X105304723Y-104665331D01*
X105233538Y-104771866D01*
X105233533Y-104771875D01*
X105184499Y-104890255D01*
X105184497Y-104890261D01*
X105159500Y-105015928D01*
X105159500Y-105015931D01*
X105159500Y-105144069D01*
X105159500Y-105144071D01*
X105159499Y-105144071D01*
X104542626Y-105144071D01*
X104619394Y-105029179D01*
X104619395Y-105029176D01*
X104619397Y-105029173D01*
X104647060Y-104962387D01*
X104647060Y-104962386D01*
X104648170Y-104959707D01*
X104679737Y-104883497D01*
X104710500Y-104728842D01*
X104710500Y-104571158D01*
X104710500Y-104571155D01*
X104710499Y-104571153D01*
X104695973Y-104498127D01*
X104679737Y-104416503D01*
X104627131Y-104289500D01*
X104619397Y-104270827D01*
X104619390Y-104270814D01*
X104531789Y-104139711D01*
X104531786Y-104139707D01*
X104420292Y-104028213D01*
X104420288Y-104028210D01*
X104289185Y-103940609D01*
X104289172Y-103940602D01*
X104143501Y-103880264D01*
X104143489Y-103880261D01*
X103988845Y-103849500D01*
X103988842Y-103849500D01*
X103831158Y-103849500D01*
X103831155Y-103849500D01*
X103676510Y-103880261D01*
X103676498Y-103880264D01*
X103530827Y-103940602D01*
X103530814Y-103940609D01*
X103399711Y-104028210D01*
X103399707Y-104028213D01*
X103288213Y-104139707D01*
X103288210Y-104139711D01*
X103200609Y-104270814D01*
X103200602Y-104270827D01*
X103140264Y-104416498D01*
X103140261Y-104416510D01*
X103109500Y-104571153D01*
X90069325Y-104571153D01*
X89968133Y-104503538D01*
X89968124Y-104503533D01*
X89849744Y-104454499D01*
X89849738Y-104454497D01*
X89724071Y-104429500D01*
X89724069Y-104429500D01*
X89595931Y-104429500D01*
X89595929Y-104429500D01*
X89470261Y-104454497D01*
X89470255Y-104454499D01*
X89351875Y-104503533D01*
X89351866Y-104503538D01*
X89245331Y-104574723D01*
X89245327Y-104574726D01*
X89154726Y-104665327D01*
X89154723Y-104665331D01*
X89083538Y-104771866D01*
X89083533Y-104771875D01*
X89034499Y-104890255D01*
X89034497Y-104890261D01*
X89009500Y-105015928D01*
X89009500Y-105015931D01*
X89009500Y-105144069D01*
X89009500Y-105144071D01*
X89009499Y-105144071D01*
X68890500Y-105144071D01*
X68890500Y-104254071D01*
X85849499Y-104254071D01*
X85874497Y-104379738D01*
X85874499Y-104379744D01*
X85923533Y-104498124D01*
X85923538Y-104498133D01*
X85994723Y-104604668D01*
X85994726Y-104604672D01*
X86085327Y-104695273D01*
X86085331Y-104695276D01*
X86191866Y-104766461D01*
X86191872Y-104766464D01*
X86191873Y-104766465D01*
X86310256Y-104815501D01*
X86310260Y-104815501D01*
X86310261Y-104815502D01*
X86435928Y-104840500D01*
X86435931Y-104840500D01*
X86564071Y-104840500D01*
X86648615Y-104823682D01*
X86689744Y-104815501D01*
X86808127Y-104766465D01*
X86914669Y-104695276D01*
X87005276Y-104604669D01*
X87076465Y-104498127D01*
X87125501Y-104379744D01*
X87150500Y-104254069D01*
X87150500Y-104125931D01*
X87150500Y-104125928D01*
X87125502Y-104000261D01*
X87125501Y-104000260D01*
X87125501Y-104000256D01*
X87076465Y-103881873D01*
X87076464Y-103881872D01*
X87076461Y-103881866D01*
X87005276Y-103775331D01*
X87005273Y-103775327D01*
X86914672Y-103684726D01*
X86914668Y-103684723D01*
X86808133Y-103613538D01*
X86808124Y-103613533D01*
X86689744Y-103564499D01*
X86689738Y-103564497D01*
X86564071Y-103539500D01*
X86564069Y-103539500D01*
X86435931Y-103539500D01*
X86435929Y-103539500D01*
X86310261Y-103564497D01*
X86310255Y-103564499D01*
X86191875Y-103613533D01*
X86191866Y-103613538D01*
X86085331Y-103684723D01*
X86085327Y-103684726D01*
X85994726Y-103775327D01*
X85994723Y-103775331D01*
X85923538Y-103881866D01*
X85923533Y-103881875D01*
X85874499Y-104000255D01*
X85874497Y-104000261D01*
X85849500Y-104125928D01*
X85849500Y-104125931D01*
X85849500Y-104254069D01*
X85849500Y-104254071D01*
X85849499Y-104254071D01*
X68890500Y-104254071D01*
X68890500Y-103364071D01*
X90749499Y-103364071D01*
X90774497Y-103489738D01*
X90774499Y-103489744D01*
X90823533Y-103608124D01*
X90823538Y-103608133D01*
X90894723Y-103714668D01*
X90894726Y-103714672D01*
X90985327Y-103805273D01*
X90985331Y-103805276D01*
X91091866Y-103876461D01*
X91091875Y-103876466D01*
X91104912Y-103881866D01*
X91210256Y-103925501D01*
X91210260Y-103925501D01*
X91210261Y-103925502D01*
X91335928Y-103950500D01*
X91335931Y-103950500D01*
X91464071Y-103950500D01*
X91548615Y-103933682D01*
X91589744Y-103925501D01*
X91708127Y-103876465D01*
X91814669Y-103805276D01*
X91905276Y-103714669D01*
X91976465Y-103608127D01*
X92025501Y-103489744D01*
X92037547Y-103429185D01*
X92050500Y-103364071D01*
X92050500Y-103235928D01*
X92025502Y-103110261D01*
X92025501Y-103110260D01*
X92025501Y-103110256D01*
X91976465Y-102991873D01*
X91976464Y-102991872D01*
X91976461Y-102991866D01*
X91962621Y-102971153D01*
X111749500Y-102971153D01*
X111749500Y-103128846D01*
X111780261Y-103283489D01*
X111780264Y-103283501D01*
X111840602Y-103429172D01*
X111840609Y-103429185D01*
X111928210Y-103560288D01*
X111928213Y-103560292D01*
X112039707Y-103671786D01*
X112039711Y-103671789D01*
X112170814Y-103759390D01*
X112170827Y-103759397D01*
X112316498Y-103819735D01*
X112316503Y-103819737D01*
X112466131Y-103849500D01*
X112471153Y-103850499D01*
X112471156Y-103850500D01*
X112471158Y-103850500D01*
X112628844Y-103850500D01*
X112628845Y-103850499D01*
X112783497Y-103819737D01*
X112929179Y-103759394D01*
X113060289Y-103671789D01*
X113171789Y-103560289D01*
X113259394Y-103429179D01*
X113319737Y-103283497D01*
X113350500Y-103128842D01*
X113350500Y-102971158D01*
X113350500Y-102971155D01*
X113350499Y-102971153D01*
X113336295Y-102899744D01*
X113319737Y-102816503D01*
X113310716Y-102794724D01*
X113259397Y-102670827D01*
X113259390Y-102670814D01*
X113171789Y-102539711D01*
X113171786Y-102539707D01*
X113060292Y-102428213D01*
X113060288Y-102428210D01*
X112929185Y-102340609D01*
X112929172Y-102340602D01*
X112783501Y-102280264D01*
X112783489Y-102280261D01*
X112628845Y-102249500D01*
X112628842Y-102249500D01*
X112471158Y-102249500D01*
X112471155Y-102249500D01*
X112316510Y-102280261D01*
X112316498Y-102280264D01*
X112170827Y-102340602D01*
X112170814Y-102340609D01*
X112039711Y-102428210D01*
X112039707Y-102428213D01*
X111928213Y-102539707D01*
X111928210Y-102539711D01*
X111840609Y-102670814D01*
X111840602Y-102670827D01*
X111780264Y-102816498D01*
X111780261Y-102816510D01*
X111749500Y-102971153D01*
X91962621Y-102971153D01*
X91905276Y-102885331D01*
X91905273Y-102885327D01*
X91814672Y-102794726D01*
X91814668Y-102794723D01*
X91708133Y-102723538D01*
X91708124Y-102723533D01*
X91589744Y-102674499D01*
X91589738Y-102674497D01*
X91464071Y-102649500D01*
X91464069Y-102649500D01*
X91335931Y-102649500D01*
X91335929Y-102649500D01*
X91210261Y-102674497D01*
X91210255Y-102674499D01*
X91091875Y-102723533D01*
X91091866Y-102723538D01*
X90985331Y-102794723D01*
X90985327Y-102794726D01*
X90894726Y-102885327D01*
X90894723Y-102885331D01*
X90823538Y-102991866D01*
X90823533Y-102991875D01*
X90774499Y-103110255D01*
X90774497Y-103110261D01*
X90749500Y-103235928D01*
X90749500Y-103235931D01*
X90749500Y-103364069D01*
X90749500Y-103364071D01*
X90749499Y-103364071D01*
X68890500Y-103364071D01*
X68890500Y-102354617D01*
X68910185Y-102287578D01*
X68962989Y-102241823D01*
X69032147Y-102231879D01*
X69095703Y-102260904D01*
X69129061Y-102307165D01*
X69150602Y-102359172D01*
X69150609Y-102359185D01*
X69238210Y-102490288D01*
X69238213Y-102490292D01*
X69349707Y-102601786D01*
X69349711Y-102601789D01*
X69480814Y-102689390D01*
X69480827Y-102689397D01*
X69626498Y-102749735D01*
X69626503Y-102749737D01*
X69781153Y-102780499D01*
X69781156Y-102780500D01*
X69781158Y-102780500D01*
X69938844Y-102780500D01*
X69938845Y-102780499D01*
X69971161Y-102774071D01*
X83139499Y-102774071D01*
X83164497Y-102899738D01*
X83164499Y-102899744D01*
X83213533Y-103018124D01*
X83213538Y-103018133D01*
X83284723Y-103124668D01*
X83284726Y-103124672D01*
X83375327Y-103215273D01*
X83375331Y-103215276D01*
X83481866Y-103286461D01*
X83481872Y-103286464D01*
X83481873Y-103286465D01*
X83600256Y-103335501D01*
X83600260Y-103335501D01*
X83600261Y-103335502D01*
X83725928Y-103360500D01*
X83725931Y-103360500D01*
X83854071Y-103360500D01*
X83938615Y-103343682D01*
X83979744Y-103335501D01*
X84098127Y-103286465D01*
X84204669Y-103215276D01*
X84204672Y-103215273D01*
X84277788Y-103142158D01*
X84295273Y-103124672D01*
X84295276Y-103124669D01*
X84366465Y-103018127D01*
X84415501Y-102899744D01*
X84436391Y-102794726D01*
X84440500Y-102774071D01*
X84440500Y-102645928D01*
X84415502Y-102520261D01*
X84415501Y-102520260D01*
X84415501Y-102520256D01*
X84366465Y-102401873D01*
X84366464Y-102401872D01*
X84366461Y-102401866D01*
X84295276Y-102295331D01*
X84295273Y-102295327D01*
X84204672Y-102204726D01*
X84204668Y-102204723D01*
X84098133Y-102133538D01*
X84098124Y-102133533D01*
X83979744Y-102084499D01*
X83979738Y-102084497D01*
X83854071Y-102059500D01*
X83854069Y-102059500D01*
X83725931Y-102059500D01*
X83725929Y-102059500D01*
X83600261Y-102084497D01*
X83600255Y-102084499D01*
X83481875Y-102133533D01*
X83481866Y-102133538D01*
X83375331Y-102204723D01*
X83375327Y-102204726D01*
X83284726Y-102295327D01*
X83284723Y-102295331D01*
X83213538Y-102401866D01*
X83213533Y-102401875D01*
X83164499Y-102520255D01*
X83164497Y-102520261D01*
X83139500Y-102645928D01*
X83139500Y-102645931D01*
X83139500Y-102774069D01*
X83139500Y-102774071D01*
X83139499Y-102774071D01*
X69971161Y-102774071D01*
X70093497Y-102749737D01*
X70239179Y-102689394D01*
X70370289Y-102601789D01*
X70481789Y-102490289D01*
X70504661Y-102456057D01*
X70558270Y-102411253D01*
X70627595Y-102402544D01*
X70686429Y-102429095D01*
X70689704Y-102431782D01*
X70689711Y-102431789D01*
X70696711Y-102436466D01*
X70820814Y-102519390D01*
X70820827Y-102519397D01*
X70966498Y-102579735D01*
X70966503Y-102579737D01*
X71121153Y-102610499D01*
X71121156Y-102610500D01*
X71121158Y-102610500D01*
X71278844Y-102610500D01*
X71278845Y-102610499D01*
X71433497Y-102579737D01*
X71483709Y-102558938D01*
X71564975Y-102525278D01*
X71579172Y-102519397D01*
X71579172Y-102519396D01*
X71579179Y-102519394D01*
X71710289Y-102431789D01*
X71821789Y-102320289D01*
X71909394Y-102189179D01*
X71918112Y-102168133D01*
X71932543Y-102133292D01*
X71969737Y-102043497D01*
X71993492Y-101924071D01*
X81819499Y-101924071D01*
X81844497Y-102049738D01*
X81844499Y-102049744D01*
X81893533Y-102168124D01*
X81893538Y-102168133D01*
X81964723Y-102274668D01*
X81964726Y-102274672D01*
X82055327Y-102365273D01*
X82055331Y-102365276D01*
X82161866Y-102436461D01*
X82161872Y-102436464D01*
X82161873Y-102436465D01*
X82280256Y-102485501D01*
X82280260Y-102485501D01*
X82280261Y-102485502D01*
X82405928Y-102510500D01*
X82405931Y-102510500D01*
X82534071Y-102510500D01*
X82618615Y-102493682D01*
X82659744Y-102485501D01*
X82778127Y-102436465D01*
X82884669Y-102365276D01*
X82975276Y-102274669D01*
X83046465Y-102168127D01*
X83095501Y-102049744D01*
X83116402Y-101944672D01*
X83120500Y-101924071D01*
X83120500Y-101795928D01*
X83095502Y-101670261D01*
X83095501Y-101670260D01*
X83095501Y-101670256D01*
X83046465Y-101551873D01*
X83046464Y-101551872D01*
X83046461Y-101551866D01*
X82975276Y-101445331D01*
X82975273Y-101445327D01*
X82954017Y-101424071D01*
X86729499Y-101424071D01*
X86754497Y-101549738D01*
X86754499Y-101549744D01*
X86803533Y-101668124D01*
X86803538Y-101668133D01*
X86874723Y-101774668D01*
X86874726Y-101774672D01*
X86965327Y-101865273D01*
X86965331Y-101865276D01*
X87071866Y-101936461D01*
X87071872Y-101936464D01*
X87071873Y-101936465D01*
X87190256Y-101985501D01*
X87190260Y-101985501D01*
X87190261Y-101985502D01*
X87315928Y-102010500D01*
X87315931Y-102010500D01*
X87444071Y-102010500D01*
X87528615Y-101993682D01*
X87569744Y-101985501D01*
X87688127Y-101936465D01*
X87794669Y-101865276D01*
X87885276Y-101774669D01*
X87956465Y-101668127D01*
X88005501Y-101549744D01*
X88022173Y-101465931D01*
X88030500Y-101424071D01*
X88030500Y-101295928D01*
X88005502Y-101170261D01*
X88005501Y-101170260D01*
X88005501Y-101170256D01*
X87976649Y-101100602D01*
X87956466Y-101051875D01*
X87956461Y-101051866D01*
X87885276Y-100945331D01*
X87885273Y-100945327D01*
X87794672Y-100854726D01*
X87794668Y-100854723D01*
X87688133Y-100783538D01*
X87688124Y-100783533D01*
X87569744Y-100734499D01*
X87569738Y-100734497D01*
X87444071Y-100709500D01*
X87444069Y-100709500D01*
X87315931Y-100709500D01*
X87315929Y-100709500D01*
X87190261Y-100734497D01*
X87190255Y-100734499D01*
X87071875Y-100783533D01*
X87071866Y-100783538D01*
X86965331Y-100854723D01*
X86965327Y-100854726D01*
X86874726Y-100945327D01*
X86874723Y-100945331D01*
X86803538Y-101051866D01*
X86803533Y-101051875D01*
X86754502Y-101170248D01*
X86754497Y-101170261D01*
X86729500Y-101295928D01*
X86729500Y-101295931D01*
X86729500Y-101424069D01*
X86729500Y-101424071D01*
X86729499Y-101424071D01*
X82954017Y-101424071D01*
X82884672Y-101354726D01*
X82884668Y-101354723D01*
X82778133Y-101283538D01*
X82778124Y-101283533D01*
X82659744Y-101234499D01*
X82659738Y-101234497D01*
X82534071Y-101209500D01*
X82534069Y-101209500D01*
X82405931Y-101209500D01*
X82405929Y-101209500D01*
X82280261Y-101234497D01*
X82280255Y-101234499D01*
X82161875Y-101283533D01*
X82161866Y-101283538D01*
X82055331Y-101354723D01*
X82055327Y-101354726D01*
X81964726Y-101445327D01*
X81964723Y-101445331D01*
X81893538Y-101551866D01*
X81893533Y-101551875D01*
X81844499Y-101670255D01*
X81844497Y-101670261D01*
X81819500Y-101795928D01*
X81819500Y-101795931D01*
X81819500Y-101924069D01*
X81819500Y-101924071D01*
X81819499Y-101924071D01*
X71993492Y-101924071D01*
X72000500Y-101888842D01*
X72000500Y-101731158D01*
X72000500Y-101731155D01*
X72000499Y-101731153D01*
X71988386Y-101670256D01*
X71969737Y-101576503D01*
X71950013Y-101528885D01*
X71909397Y-101430827D01*
X71909390Y-101430814D01*
X71821789Y-101299711D01*
X71821786Y-101299707D01*
X71710292Y-101188213D01*
X71710288Y-101188210D01*
X71579185Y-101100609D01*
X71579172Y-101100602D01*
X71433501Y-101040264D01*
X71433489Y-101040261D01*
X71278845Y-101009500D01*
X71278842Y-101009500D01*
X71121158Y-101009500D01*
X71121155Y-101009500D01*
X70966510Y-101040261D01*
X70966498Y-101040264D01*
X70820827Y-101100602D01*
X70820814Y-101100609D01*
X70689711Y-101188210D01*
X70689707Y-101188213D01*
X70578213Y-101299707D01*
X70578210Y-101299711D01*
X70555338Y-101333942D01*
X70501725Y-101378747D01*
X70432400Y-101387454D01*
X70373572Y-101360905D01*
X70370288Y-101358210D01*
X70239185Y-101270609D01*
X70239172Y-101270602D01*
X70093501Y-101210264D01*
X70093489Y-101210261D01*
X69938845Y-101179500D01*
X69938842Y-101179500D01*
X69781158Y-101179500D01*
X69781155Y-101179500D01*
X69626510Y-101210261D01*
X69626498Y-101210264D01*
X69480827Y-101270602D01*
X69480814Y-101270609D01*
X69349711Y-101358210D01*
X69349707Y-101358213D01*
X69238213Y-101469707D01*
X69238210Y-101469711D01*
X69150609Y-101600814D01*
X69150604Y-101600823D01*
X69129061Y-101652835D01*
X69085220Y-101707238D01*
X69018926Y-101729303D01*
X68951227Y-101712024D01*
X68903616Y-101660887D01*
X68890500Y-101605382D01*
X68890500Y-99844013D01*
X68910185Y-99776974D01*
X68923338Y-99759956D01*
X69609408Y-99016071D01*
X90759499Y-99016071D01*
X90784497Y-99141738D01*
X90784499Y-99141744D01*
X90833533Y-99260124D01*
X90833538Y-99260133D01*
X90882346Y-99333178D01*
X90903224Y-99399855D01*
X90900862Y-99426257D01*
X90894054Y-99460485D01*
X90894054Y-99588623D01*
X90894054Y-99588625D01*
X90894053Y-99588625D01*
X90919051Y-99714292D01*
X90919053Y-99714298D01*
X90968087Y-99832678D01*
X90968092Y-99832687D01*
X91039277Y-99939222D01*
X91039280Y-99939226D01*
X91129882Y-100029828D01*
X91171726Y-100057787D01*
X91216531Y-100111399D01*
X91224452Y-100136697D01*
X91239887Y-100214292D01*
X91239889Y-100214298D01*
X91288923Y-100332678D01*
X91288928Y-100332687D01*
X91360113Y-100439222D01*
X91360116Y-100439226D01*
X91450717Y-100529827D01*
X91450721Y-100529830D01*
X91557256Y-100601015D01*
X91557265Y-100601020D01*
X91578238Y-100609707D01*
X91675646Y-100650055D01*
X91675650Y-100650055D01*
X91675651Y-100650056D01*
X91801318Y-100675054D01*
X91801321Y-100675054D01*
X91929461Y-100675054D01*
X92014005Y-100658236D01*
X92055134Y-100650055D01*
X92173517Y-100601019D01*
X92280059Y-100529830D01*
X92370666Y-100439223D01*
X92371734Y-100437625D01*
X97435945Y-100437625D01*
X97460943Y-100563292D01*
X97460946Y-100563302D01*
X97497066Y-100650503D01*
X97504535Y-100719972D01*
X97504122Y-100722146D01*
X97479500Y-100845926D01*
X97479500Y-100845931D01*
X97479500Y-100974069D01*
X97479500Y-100974071D01*
X97479499Y-100974071D01*
X97504497Y-101099738D01*
X97504499Y-101099744D01*
X97519655Y-101136333D01*
X97527124Y-101205802D01*
X97519655Y-101231238D01*
X97474500Y-101340251D01*
X97474497Y-101340261D01*
X97449500Y-101465928D01*
X97449500Y-101465931D01*
X97449500Y-101594069D01*
X97449500Y-101594071D01*
X97449499Y-101594071D01*
X97474497Y-101719738D01*
X97474499Y-101719744D01*
X97523533Y-101838124D01*
X97523538Y-101838133D01*
X97594723Y-101944668D01*
X97594726Y-101944672D01*
X97685327Y-102035273D01*
X97685331Y-102035276D01*
X97791866Y-102106461D01*
X97791872Y-102106464D01*
X97791873Y-102106465D01*
X97910256Y-102155501D01*
X97910260Y-102155501D01*
X97910261Y-102155502D01*
X98035928Y-102180500D01*
X98035931Y-102180500D01*
X98164071Y-102180500D01*
X98248615Y-102163682D01*
X98289744Y-102155501D01*
X98408127Y-102106465D01*
X98514669Y-102035276D01*
X98542320Y-102007625D01*
X101893053Y-102007625D01*
X101918051Y-102133292D01*
X101918053Y-102133298D01*
X101967087Y-102251678D01*
X101967092Y-102251687D01*
X102038277Y-102358222D01*
X102038280Y-102358226D01*
X102128881Y-102448827D01*
X102128885Y-102448830D01*
X102235420Y-102520015D01*
X102235429Y-102520020D01*
X102235999Y-102520256D01*
X102353810Y-102569055D01*
X102353814Y-102569055D01*
X102353815Y-102569056D01*
X102479482Y-102594054D01*
X102479485Y-102594054D01*
X102607625Y-102594054D01*
X102692169Y-102577236D01*
X102733298Y-102569055D01*
X102851681Y-102520019D01*
X102958223Y-102448830D01*
X103048830Y-102358223D01*
X103120019Y-102251681D01*
X103169055Y-102133298D01*
X103183957Y-102058383D01*
X103194054Y-102007625D01*
X103194054Y-101879482D01*
X103169056Y-101753815D01*
X103169055Y-101753814D01*
X103169055Y-101753810D01*
X103122033Y-101640289D01*
X103120020Y-101635429D01*
X103120015Y-101635420D01*
X103048830Y-101528885D01*
X103048827Y-101528881D01*
X102958226Y-101438280D01*
X102958222Y-101438277D01*
X102851687Y-101367092D01*
X102851678Y-101367087D01*
X102733298Y-101318053D01*
X102733292Y-101318051D01*
X102607625Y-101293054D01*
X102607623Y-101293054D01*
X102479485Y-101293054D01*
X102479483Y-101293054D01*
X102353815Y-101318051D01*
X102353809Y-101318053D01*
X102235429Y-101367087D01*
X102235420Y-101367092D01*
X102128885Y-101438277D01*
X102128881Y-101438280D01*
X102038280Y-101528881D01*
X102038277Y-101528885D01*
X101967092Y-101635420D01*
X101967087Y-101635429D01*
X101918053Y-101753809D01*
X101918051Y-101753815D01*
X101893054Y-101879482D01*
X101893054Y-101879485D01*
X101893054Y-102007623D01*
X101893054Y-102007625D01*
X101893053Y-102007625D01*
X98542320Y-102007625D01*
X98605276Y-101944669D01*
X98676465Y-101838127D01*
X98725501Y-101719744D01*
X98738692Y-101653430D01*
X98750500Y-101594071D01*
X98750500Y-101465928D01*
X98725502Y-101340261D01*
X98725501Y-101340260D01*
X98725501Y-101340256D01*
X98710343Y-101303663D01*
X98707584Y-101277996D01*
X98700945Y-101253045D01*
X98703571Y-101240670D01*
X98702875Y-101234196D01*
X98706859Y-101218250D01*
X98708403Y-101213446D01*
X98755501Y-101099744D01*
X98765167Y-101051153D01*
X109999500Y-101051153D01*
X109999500Y-101208846D01*
X110030261Y-101363489D01*
X110030264Y-101363501D01*
X110090602Y-101509172D01*
X110090609Y-101509185D01*
X110178210Y-101640288D01*
X110178213Y-101640292D01*
X110289707Y-101751786D01*
X110289711Y-101751789D01*
X110420814Y-101839390D01*
X110420827Y-101839397D01*
X110542363Y-101889738D01*
X110566503Y-101899737D01*
X110721153Y-101930499D01*
X110721156Y-101930500D01*
X110721158Y-101930500D01*
X110878844Y-101930500D01*
X110878845Y-101930499D01*
X111033497Y-101899737D01*
X111179179Y-101839394D01*
X111310289Y-101751789D01*
X111421789Y-101640289D01*
X111509394Y-101509179D01*
X111569737Y-101363497D01*
X111600500Y-101208842D01*
X111600500Y-101051158D01*
X111598510Y-101041153D01*
X111949500Y-101041153D01*
X111949500Y-101198846D01*
X111980261Y-101353489D01*
X111980264Y-101353501D01*
X112040602Y-101499172D01*
X112040609Y-101499185D01*
X112128210Y-101630288D01*
X112128213Y-101630292D01*
X112239707Y-101741786D01*
X112239711Y-101741789D01*
X112370814Y-101829390D01*
X112370827Y-101829397D01*
X112457441Y-101865273D01*
X112516503Y-101889737D01*
X112665090Y-101919293D01*
X112671153Y-101920499D01*
X112671156Y-101920500D01*
X112671158Y-101920500D01*
X112828844Y-101920500D01*
X112828845Y-101920499D01*
X112983497Y-101889737D01*
X113096166Y-101843067D01*
X113129172Y-101829397D01*
X113129172Y-101829396D01*
X113129179Y-101829394D01*
X113260289Y-101741789D01*
X113371789Y-101630289D01*
X113459394Y-101499179D01*
X113519737Y-101353497D01*
X113550500Y-101198842D01*
X113550500Y-101041158D01*
X113550500Y-101041155D01*
X113550499Y-101041153D01*
X113537155Y-100974069D01*
X113519737Y-100886503D01*
X113506574Y-100854724D01*
X113459397Y-100740827D01*
X113459390Y-100740814D01*
X113371789Y-100609711D01*
X113371786Y-100609707D01*
X113260292Y-100498213D01*
X113260288Y-100498210D01*
X113129185Y-100410609D01*
X113129172Y-100410602D01*
X112983501Y-100350264D01*
X112983489Y-100350261D01*
X112828845Y-100319500D01*
X112828842Y-100319500D01*
X112671158Y-100319500D01*
X112671155Y-100319500D01*
X112516510Y-100350261D01*
X112516498Y-100350264D01*
X112370827Y-100410602D01*
X112370814Y-100410609D01*
X112239711Y-100498210D01*
X112239707Y-100498213D01*
X112128213Y-100609707D01*
X112128210Y-100609711D01*
X112040609Y-100740814D01*
X112040602Y-100740827D01*
X111980264Y-100886498D01*
X111980261Y-100886510D01*
X111949500Y-101041153D01*
X111598510Y-101041153D01*
X111569737Y-100896503D01*
X111566935Y-100889738D01*
X111509397Y-100750827D01*
X111509390Y-100750814D01*
X111421789Y-100619711D01*
X111421786Y-100619707D01*
X111310292Y-100508213D01*
X111310288Y-100508210D01*
X111179185Y-100420609D01*
X111179172Y-100420602D01*
X111033501Y-100360264D01*
X111033489Y-100360261D01*
X110878845Y-100329500D01*
X110878842Y-100329500D01*
X110721158Y-100329500D01*
X110721155Y-100329500D01*
X110566510Y-100360261D01*
X110566498Y-100360264D01*
X110420827Y-100420602D01*
X110420814Y-100420609D01*
X110289711Y-100508210D01*
X110289707Y-100508213D01*
X110178213Y-100619707D01*
X110178210Y-100619711D01*
X110090609Y-100750814D01*
X110090602Y-100750827D01*
X110030264Y-100896498D01*
X110030261Y-100896510D01*
X109999500Y-101051153D01*
X98765167Y-101051153D01*
X98780500Y-100974069D01*
X98780500Y-100845931D01*
X98780500Y-100845928D01*
X98755502Y-100720261D01*
X98755501Y-100720260D01*
X98755501Y-100720256D01*
X98719378Y-100633049D01*
X98711910Y-100563582D01*
X98712311Y-100561464D01*
X98736946Y-100437623D01*
X98736946Y-100336995D01*
X98756631Y-100269956D01*
X98809435Y-100224201D01*
X98878593Y-100214257D01*
X98885110Y-100215373D01*
X98945687Y-100227422D01*
X98961157Y-100230500D01*
X98961158Y-100230500D01*
X99118844Y-100230500D01*
X99118845Y-100230499D01*
X99273497Y-100199737D01*
X99407888Y-100144071D01*
X104629499Y-100144071D01*
X104654497Y-100269738D01*
X104654499Y-100269744D01*
X104703533Y-100388124D01*
X104703538Y-100388133D01*
X104774723Y-100494668D01*
X104774726Y-100494672D01*
X104865327Y-100585273D01*
X104865331Y-100585276D01*
X104971866Y-100656461D01*
X104971872Y-100656464D01*
X104971873Y-100656465D01*
X105090256Y-100705501D01*
X105090260Y-100705501D01*
X105090261Y-100705502D01*
X105215928Y-100730500D01*
X105215931Y-100730500D01*
X105344071Y-100730500D01*
X105449640Y-100709500D01*
X105469744Y-100705501D01*
X105588127Y-100656465D01*
X105694669Y-100585276D01*
X105785276Y-100494669D01*
X105856465Y-100388127D01*
X105905501Y-100269744D01*
X105916538Y-100214257D01*
X105930500Y-100144071D01*
X105930500Y-100041153D01*
X106679500Y-100041153D01*
X106679500Y-100198846D01*
X106710261Y-100353489D01*
X106710264Y-100353501D01*
X106770602Y-100499172D01*
X106770609Y-100499185D01*
X106858210Y-100630288D01*
X106858213Y-100630292D01*
X106969707Y-100741786D01*
X106969711Y-100741789D01*
X107100814Y-100829390D01*
X107100827Y-100829397D01*
X107161973Y-100854724D01*
X107246503Y-100889737D01*
X107401153Y-100920499D01*
X107401156Y-100920500D01*
X107401158Y-100920500D01*
X107558844Y-100920500D01*
X107558845Y-100920499D01*
X107713497Y-100889737D01*
X107859179Y-100829394D01*
X107990289Y-100741789D01*
X108101789Y-100630289D01*
X108189394Y-100499179D01*
X108249737Y-100353497D01*
X108280500Y-100198842D01*
X108280500Y-100041158D01*
X108280500Y-100041155D01*
X108280499Y-100041153D01*
X108260436Y-99940289D01*
X108249737Y-99886503D01*
X108232137Y-99844013D01*
X108189397Y-99740827D01*
X108189390Y-99740814D01*
X108101789Y-99609711D01*
X108101786Y-99609707D01*
X107990292Y-99498213D01*
X107990288Y-99498210D01*
X107859185Y-99410609D01*
X107859172Y-99410602D01*
X107713501Y-99350264D01*
X107713489Y-99350261D01*
X107558845Y-99319500D01*
X107558842Y-99319500D01*
X107401158Y-99319500D01*
X107401155Y-99319500D01*
X107246510Y-99350261D01*
X107246498Y-99350264D01*
X107100827Y-99410602D01*
X107100814Y-99410609D01*
X106969711Y-99498210D01*
X106969707Y-99498213D01*
X106858213Y-99609707D01*
X106858210Y-99609711D01*
X106770609Y-99740814D01*
X106770602Y-99740827D01*
X106710264Y-99886498D01*
X106710261Y-99886510D01*
X106679500Y-100041153D01*
X105930500Y-100041153D01*
X105930500Y-100015928D01*
X105905502Y-99890261D01*
X105905501Y-99890260D01*
X105905501Y-99890256D01*
X105856465Y-99771873D01*
X105856464Y-99771872D01*
X105856461Y-99771866D01*
X105785276Y-99665331D01*
X105785273Y-99665327D01*
X105694672Y-99574726D01*
X105694668Y-99574723D01*
X105588133Y-99503538D01*
X105588124Y-99503533D01*
X105469744Y-99454499D01*
X105469738Y-99454497D01*
X105344071Y-99429500D01*
X105344069Y-99429500D01*
X105215931Y-99429500D01*
X105215929Y-99429500D01*
X105090261Y-99454497D01*
X105090255Y-99454499D01*
X104971875Y-99503533D01*
X104971866Y-99503538D01*
X104865331Y-99574723D01*
X104865327Y-99574726D01*
X104774726Y-99665327D01*
X104774723Y-99665331D01*
X104703538Y-99771866D01*
X104703533Y-99771875D01*
X104654499Y-99890255D01*
X104654497Y-99890261D01*
X104629500Y-100015928D01*
X104629500Y-100015931D01*
X104629500Y-100144069D01*
X104629500Y-100144071D01*
X104629499Y-100144071D01*
X99407888Y-100144071D01*
X99419172Y-100139397D01*
X99419172Y-100139396D01*
X99419179Y-100139394D01*
X99550289Y-100051789D01*
X99661789Y-99940289D01*
X99749394Y-99809179D01*
X99809737Y-99663497D01*
X99840500Y-99508842D01*
X99840500Y-99351158D01*
X99840500Y-99351155D01*
X99840499Y-99351153D01*
X99837248Y-99334809D01*
X99809737Y-99196503D01*
X99802793Y-99179738D01*
X99749397Y-99050827D01*
X99749390Y-99050814D01*
X99661789Y-98919711D01*
X99661786Y-98919707D01*
X99550292Y-98808213D01*
X99550288Y-98808210D01*
X99464897Y-98751153D01*
X116959500Y-98751153D01*
X116959500Y-98908846D01*
X116990261Y-99063489D01*
X116990264Y-99063501D01*
X117050602Y-99209172D01*
X117050609Y-99209185D01*
X117138210Y-99340288D01*
X117138213Y-99340292D01*
X117249707Y-99451786D01*
X117249711Y-99451789D01*
X117380814Y-99539390D01*
X117380827Y-99539397D01*
X117499671Y-99588623D01*
X117526503Y-99599737D01*
X117627698Y-99619866D01*
X117681153Y-99630499D01*
X117681156Y-99630500D01*
X117681158Y-99630500D01*
X117838844Y-99630500D01*
X117838845Y-99630499D01*
X117993497Y-99599737D01*
X118139179Y-99539394D01*
X118270289Y-99451789D01*
X118381789Y-99340289D01*
X118469394Y-99209179D01*
X118529737Y-99063497D01*
X118560500Y-98908842D01*
X118560500Y-98751158D01*
X118560500Y-98751155D01*
X118560499Y-98751153D01*
X118554422Y-98720602D01*
X118529737Y-98596503D01*
X118520967Y-98575331D01*
X118469397Y-98450827D01*
X118469390Y-98450814D01*
X118381789Y-98319711D01*
X118381786Y-98319707D01*
X118270292Y-98208213D01*
X118270288Y-98208210D01*
X118139185Y-98120609D01*
X118139172Y-98120602D01*
X117993501Y-98060264D01*
X117993489Y-98060261D01*
X117838845Y-98029500D01*
X117838842Y-98029500D01*
X117681158Y-98029500D01*
X117681155Y-98029500D01*
X117526510Y-98060261D01*
X117526498Y-98060264D01*
X117380827Y-98120602D01*
X117380814Y-98120609D01*
X117249711Y-98208210D01*
X117249707Y-98208213D01*
X117138213Y-98319707D01*
X117138210Y-98319711D01*
X117050609Y-98450814D01*
X117050602Y-98450827D01*
X116990264Y-98596498D01*
X116990261Y-98596510D01*
X116959500Y-98751153D01*
X99464897Y-98751153D01*
X99419185Y-98720609D01*
X99419172Y-98720602D01*
X99273501Y-98660264D01*
X99273489Y-98660261D01*
X99118845Y-98629500D01*
X99118842Y-98629500D01*
X99083606Y-98629500D01*
X99016567Y-98609815D01*
X98970812Y-98557011D01*
X98959606Y-98505500D01*
X98959606Y-98387928D01*
X98934608Y-98262261D01*
X98934607Y-98262260D01*
X98934607Y-98262256D01*
X98885571Y-98143873D01*
X98885570Y-98143872D01*
X98885567Y-98143866D01*
X98814382Y-98037331D01*
X98814379Y-98037327D01*
X98723778Y-97946726D01*
X98723774Y-97946723D01*
X98617239Y-97875538D01*
X98617230Y-97875533D01*
X98498850Y-97826499D01*
X98498844Y-97826497D01*
X98373177Y-97801500D01*
X98373175Y-97801500D01*
X98245037Y-97801500D01*
X98245035Y-97801500D01*
X98119367Y-97826497D01*
X98119361Y-97826499D01*
X98000981Y-97875533D01*
X98000972Y-97875538D01*
X97894437Y-97946723D01*
X97894433Y-97946726D01*
X97803832Y-98037327D01*
X97803829Y-98037331D01*
X97732644Y-98143866D01*
X97732639Y-98143875D01*
X97683605Y-98262255D01*
X97683603Y-98262261D01*
X97658606Y-98387928D01*
X97658606Y-98501974D01*
X97638921Y-98569013D01*
X97637708Y-98570865D01*
X97563538Y-98681866D01*
X97563533Y-98681875D01*
X97514499Y-98800255D01*
X97514497Y-98800261D01*
X97489500Y-98925928D01*
X97489500Y-98925931D01*
X97489500Y-99054069D01*
X97489500Y-99054071D01*
X97489499Y-99054071D01*
X97514497Y-99179738D01*
X97514499Y-99179744D01*
X97563533Y-99298124D01*
X97563538Y-99298133D01*
X97634723Y-99404668D01*
X97634726Y-99404672D01*
X97725327Y-99495273D01*
X97725331Y-99495276D01*
X97831556Y-99566254D01*
X97876361Y-99619866D01*
X97885068Y-99689191D01*
X97854913Y-99752219D01*
X97810118Y-99783917D01*
X97778322Y-99797087D01*
X97778312Y-99797092D01*
X97671777Y-99868277D01*
X97671773Y-99868280D01*
X97581172Y-99958881D01*
X97581169Y-99958885D01*
X97509984Y-100065420D01*
X97509979Y-100065429D01*
X97460945Y-100183809D01*
X97460943Y-100183815D01*
X97435946Y-100309482D01*
X97435946Y-100309485D01*
X97435946Y-100437623D01*
X97435946Y-100437625D01*
X97435945Y-100437625D01*
X92371734Y-100437625D01*
X92441855Y-100332681D01*
X92467837Y-100269956D01*
X92473642Y-100255941D01*
X92473642Y-100255940D01*
X92490891Y-100214298D01*
X92502536Y-100155757D01*
X92515890Y-100088625D01*
X92515890Y-99960482D01*
X92490892Y-99834815D01*
X92490891Y-99834814D01*
X92490891Y-99834810D01*
X92441855Y-99716427D01*
X92441854Y-99716426D01*
X92441851Y-99716420D01*
X92370666Y-99609885D01*
X92370663Y-99609881D01*
X92280062Y-99519280D01*
X92280056Y-99519275D01*
X92238216Y-99491318D01*
X92193412Y-99437706D01*
X92185491Y-99412409D01*
X92170056Y-99334815D01*
X92170055Y-99334814D01*
X92170055Y-99334810D01*
X92121019Y-99216427D01*
X92121018Y-99216426D01*
X92121015Y-99216420D01*
X92072207Y-99143374D01*
X92051329Y-99076697D01*
X92053691Y-99050298D01*
X92060500Y-99016069D01*
X92060500Y-98887931D01*
X92060500Y-98887928D01*
X92035502Y-98762261D01*
X92035501Y-98762260D01*
X92035501Y-98762256D01*
X91986465Y-98643873D01*
X91986464Y-98643872D01*
X91986461Y-98643866D01*
X91915276Y-98537331D01*
X91915273Y-98537327D01*
X91824672Y-98446726D01*
X91824668Y-98446723D01*
X91718133Y-98375538D01*
X91718124Y-98375533D01*
X91599744Y-98326499D01*
X91599738Y-98326497D01*
X91474071Y-98301500D01*
X91474069Y-98301500D01*
X91345931Y-98301500D01*
X91345929Y-98301500D01*
X91220261Y-98326497D01*
X91220255Y-98326499D01*
X91101875Y-98375533D01*
X91101866Y-98375538D01*
X90995331Y-98446723D01*
X90995327Y-98446726D01*
X90904726Y-98537327D01*
X90904723Y-98537331D01*
X90833538Y-98643866D01*
X90833533Y-98643875D01*
X90784499Y-98762255D01*
X90784497Y-98762261D01*
X90759500Y-98887928D01*
X90759500Y-98887931D01*
X90759500Y-99016069D01*
X90759500Y-99016071D01*
X90759499Y-99016071D01*
X69609408Y-99016071D01*
X72132435Y-96280431D01*
X72192355Y-96244498D01*
X72223586Y-96240500D01*
X86556518Y-96240500D01*
X86608844Y-96243322D01*
X86622221Y-96240500D01*
X86635892Y-96240500D01*
X86683318Y-96227791D01*
X86689759Y-96226250D01*
X86737790Y-96216119D01*
X86738446Y-96215786D01*
X86749985Y-96209928D01*
X86763186Y-96206392D01*
X86808567Y-96180190D01*
X86855301Y-96156468D01*
X86865474Y-96147335D01*
X86877314Y-96140500D01*
X86914369Y-96103444D01*
X90146261Y-93202300D01*
X90209297Y-93172167D01*
X90229126Y-93170577D01*
X95456026Y-93172271D01*
G37*
%TD.AperFunction*%
%TD*%
M02*
