%TF.GenerationSoftware,KiCad,Pcbnew,9.0.3*%
%TF.CreationDate,2025-08-23T20:39:02+05:00*%
%TF.ProjectId,esp-32-new,6573702d-3332-42d6-9e65-772e6b696361,rev?*%
%TF.SameCoordinates,Original*%
%TF.FileFunction,Paste,Top*%
%TF.FilePolarity,Positive*%
%FSLAX46Y46*%
G04 Gerber Fmt 4.6, Leading zero omitted, Abs format (unit mm)*
G04 Created by KiCad (PCBNEW 9.0.3) date 2025-08-23 20:39:02*
%MOMM*%
%LPD*%
G01*
G04 APERTURE LIST*
G04 Aperture macros list*
%AMRoundRect*
0 Rectangle with rounded corners*
0 $1 Rounding radius*
0 $2 $3 $4 $5 $6 $7 $8 $9 X,Y pos of 4 corners*
0 Add a 4 corners polygon primitive as box body*
4,1,4,$2,$3,$4,$5,$6,$7,$8,$9,$2,$3,0*
0 Add four circle primitives for the rounded corners*
1,1,$1+$1,$2,$3*
1,1,$1+$1,$4,$5*
1,1,$1+$1,$6,$7*
1,1,$1+$1,$8,$9*
0 Add four rect primitives between the rounded corners*
20,1,$1+$1,$2,$3,$4,$5,0*
20,1,$1+$1,$4,$5,$6,$7,0*
20,1,$1+$1,$6,$7,$8,$9,0*
20,1,$1+$1,$8,$9,$2,$3,0*%
G04 Aperture macros list end*
%ADD10RoundRect,0.237500X0.237500X-0.250000X0.237500X0.250000X-0.237500X0.250000X-0.237500X-0.250000X0*%
%ADD11RoundRect,0.062500X-0.062500X0.117500X-0.062500X-0.117500X0.062500X-0.117500X0.062500X0.117500X0*%
%ADD12RoundRect,0.155000X0.155000X-0.212500X0.155000X0.212500X-0.155000X0.212500X-0.155000X-0.212500X0*%
%ADD13RoundRect,0.237500X-0.250000X-0.237500X0.250000X-0.237500X0.250000X0.237500X-0.250000X0.237500X0*%
%ADD14RoundRect,0.250000X-0.650000X0.412500X-0.650000X-0.412500X0.650000X-0.412500X0.650000X0.412500X0*%
%ADD15RoundRect,0.237500X-0.287500X-0.237500X0.287500X-0.237500X0.287500X0.237500X-0.287500X0.237500X0*%
%ADD16RoundRect,0.225000X-0.225000X-0.375000X0.225000X-0.375000X0.225000X0.375000X-0.225000X0.375000X0*%
%ADD17RoundRect,0.375000X0.625000X0.375000X-0.625000X0.375000X-0.625000X-0.375000X0.625000X-0.375000X0*%
%ADD18RoundRect,0.500000X0.500000X1.400000X-0.500000X1.400000X-0.500000X-1.400000X0.500000X-1.400000X0*%
%ADD19RoundRect,0.112500X-0.187500X-0.112500X0.187500X-0.112500X0.187500X0.112500X-0.187500X0.112500X0*%
%ADD20R,1.380000X0.450000*%
%ADD21R,1.300000X1.650000*%
%ADD22R,1.550000X1.425000*%
%ADD23R,1.900000X1.800000*%
%ADD24R,1.900000X1.000000*%
G04 APERTURE END LIST*
D10*
%TO.C,R4*%
X110620000Y-118480000D03*
X110620000Y-116655000D03*
%TD*%
%TO.C,R2*%
X105420000Y-118560000D03*
X105420000Y-116735000D03*
%TD*%
D11*
%TO.C,D3*%
X110800000Y-100327500D03*
X110800000Y-99487500D03*
%TD*%
D10*
%TO.C,R3*%
X107410000Y-118560000D03*
X107410000Y-116735000D03*
%TD*%
D12*
%TO.C,C9*%
X97280000Y-100107500D03*
X97280000Y-98972500D03*
%TD*%
D13*
%TO.C,R10*%
X110560000Y-120590000D03*
X112385000Y-120590000D03*
%TD*%
D14*
%TO.C,C7*%
X89930000Y-116890000D03*
X89930000Y-120015000D03*
%TD*%
D15*
%TO.C,D5*%
X117150000Y-123950000D03*
X118900000Y-123950000D03*
%TD*%
D14*
%TO.C,C6*%
X93280000Y-116890000D03*
X93280000Y-120015000D03*
%TD*%
D11*
%TO.C,D4*%
X112750000Y-100327500D03*
X112750000Y-99487500D03*
%TD*%
D16*
%TO.C,D2*%
X103660000Y-103020000D03*
X106960000Y-103020000D03*
%TD*%
D10*
%TO.C,R9*%
X101400000Y-118572500D03*
X101400000Y-116747500D03*
%TD*%
%TO.C,R8*%
X99270000Y-118602500D03*
X99270000Y-116777500D03*
%TD*%
D17*
%TO.C,U3*%
X90960000Y-110910000D03*
X90960000Y-108610000D03*
D18*
X84660000Y-108610000D03*
D17*
X90960000Y-106310000D03*
%TD*%
D12*
%TO.C,C2*%
X100230000Y-112517500D03*
X100230000Y-111382500D03*
%TD*%
D19*
%TO.C,D1*%
X110612500Y-113410000D03*
X112712500Y-113410000D03*
%TD*%
D20*
%TO.C,J1*%
X116800000Y-110370000D03*
X116800000Y-109720000D03*
X116800000Y-109070000D03*
X116800000Y-108420000D03*
X116800000Y-107770000D03*
D21*
X119460000Y-112445000D03*
D22*
X116885000Y-111557500D03*
D23*
X119460000Y-110220000D03*
D24*
X119460000Y-107520000D03*
D22*
X116885000Y-106582500D03*
D21*
X119460000Y-105695000D03*
%TD*%
D14*
%TO.C,C1*%
X96630000Y-116890000D03*
X96630000Y-120015000D03*
%TD*%
D10*
%TO.C,R1*%
X103460000Y-118602500D03*
X103460000Y-116777500D03*
%TD*%
M02*
